<?xml version="1.0" encoding="UTF-8" standalone="no"?>
<!-- Created with Inkscape (http://www.inkscape.org/) -->

<svg
   xmlns:dc="http://purl.org/dc/elements/1.1/"
   xmlns:cc="http://creativecommons.org/ns#"
   xmlns:rdf="http://www.w3.org/1999/02/22-rdf-syntax-ns#"
   xmlns:svg="http://www.w3.org/2000/svg"
   xmlns="http://www.w3.org/2000/svg"
   xmlns:sodipodi="http://sodipodi.sourceforge.net/DTD/sodipodi-0.dtd"
   xmlns:inkscape="http://www.inkscape.org/namespaces/inkscape"
   width="50mm"
   height="50mm"
   viewBox="0 0 50 50"
   version="1.1"
   id="svg1305"
   inkscape:version="0.92.1 r15371"
   sodipodi:docname="female-3.svg">
  <defs
     id="defs1299">
    <clipPath
       clipPathUnits="userSpaceOnUse"
       id="clipPath21">
      <circle
         style="opacity:1;fill:#ffff00;fill-opacity:1;fill-rule:nonzero;stroke:none;stroke-width:2.66561413;stroke-miterlimit:4;stroke-dasharray:none;stroke-opacity:0"
         id="circle23"
         cx="25"
         cy="272"
         r="25" />
    </clipPath>
    <clipPath
       clipPathUnits="userSpaceOnUse"
       id="clipPath25">
      <circle
         style="opacity:1;fill:#ffff00;fill-opacity:1;fill-rule:nonzero;stroke:none;stroke-width:2.66561413;stroke-miterlimit:4;stroke-dasharray:none;stroke-opacity:0"
         id="circle27"
         cx="25"
         cy="272"
         r="25" />
    </clipPath>
    <clipPath
       clipPathUnits="userSpaceOnUse"
       id="clipPath29">
      <circle
         style="opacity:1;fill:#ffff00;fill-opacity:1;fill-rule:nonzero;stroke:none;stroke-width:2.66561413;stroke-miterlimit:4;stroke-dasharray:none;stroke-opacity:0"
         id="circle31"
         cx="25"
         cy="272"
         r="25" />
    </clipPath>
    <clipPath
       clipPathUnits="userSpaceOnUse"
       id="clipPath33">
      <circle
         style="opacity:1;fill:#ffff00;fill-opacity:1;fill-rule:nonzero;stroke:none;stroke-width:2.66561413;stroke-miterlimit:4;stroke-dasharray:none;stroke-opacity:0"
         id="circle35"
         cx="25"
         cy="272"
         r="25" />
    </clipPath>
    <clipPath
       clipPathUnits="userSpaceOnUse"
       id="clipPath37">
      <circle
         style="opacity:1;fill:#ffff00;fill-opacity:1;fill-rule:nonzero;stroke:none;stroke-width:2.66561413;stroke-miterlimit:4;stroke-dasharray:none;stroke-opacity:0"
         id="circle39"
         cx="25"
         cy="272"
         r="25" />
    </clipPath>
    <clipPath
       clipPathUnits="userSpaceOnUse"
       id="clipPath41">
      <circle
         style="opacity:1;fill:#ffff00;fill-opacity:1;fill-rule:nonzero;stroke:none;stroke-width:2.66561413;stroke-miterlimit:4;stroke-dasharray:none;stroke-opacity:0"
         id="circle43"
         cx="25"
         cy="272"
         r="25" />
    </clipPath>
    <clipPath
       clipPathUnits="userSpaceOnUse"
       id="clipPath45">
      <circle
         style="opacity:1;fill:#ffff00;fill-opacity:1;fill-rule:nonzero;stroke:none;stroke-width:2.66561413;stroke-miterlimit:4;stroke-dasharray:none;stroke-opacity:0"
         id="circle47"
         cx="25"
         cy="272"
         r="25" />
    </clipPath>
    <clipPath
       clipPathUnits="userSpaceOnUse"
       id="clipPath49">
      <circle
         style="opacity:1;fill:#ffff00;fill-opacity:1;fill-rule:nonzero;stroke:none;stroke-width:2.66561413;stroke-miterlimit:4;stroke-dasharray:none;stroke-opacity:0"
         id="circle51"
         cx="25"
         cy="272"
         r="25" />
    </clipPath>
    <clipPath
       clipPathUnits="userSpaceOnUse"
       id="clipPath53">
      <circle
         style="opacity:1;fill:#ffff00;fill-opacity:1;fill-rule:nonzero;stroke:none;stroke-width:2.66561413;stroke-miterlimit:4;stroke-dasharray:none;stroke-opacity:0"
         id="circle55"
         cx="25"
         cy="272"
         r="25" />
    </clipPath>
    <clipPath
       clipPathUnits="userSpaceOnUse"
       id="clipPath57">
      <circle
         style="opacity:1;fill:#ffff00;fill-opacity:1;fill-rule:nonzero;stroke:none;stroke-width:2.66561413;stroke-miterlimit:4;stroke-dasharray:none;stroke-opacity:0"
         id="circle59"
         cx="25"
         cy="272"
         r="25" />
    </clipPath>
  </defs>
  <sodipodi:namedview
     id="base"
     pagecolor="#ffffff"
     bordercolor="#666666"
     borderopacity="1.0"
     inkscape:pageopacity="0.0"
     inkscape:pageshadow="2"
     inkscape:zoom="1.9307551"
     inkscape:cx="94.488268"
     inkscape:cy="94.488178"
     inkscape:document-units="mm"
     inkscape:current-layer="layer1"
     showgrid="false"
     inkscape:window-width="1024"
     inkscape:window-height="715"
     inkscape:window-x="-8"
     inkscape:window-y="-8"
     inkscape:window-maximized="1"
     showborder="false" />
  <metadata
     id="metadata1302">
    <rdf:RDF>
      <cc:Work
         rdf:about="">
        <dc:format>image/svg+xml</dc:format>
        <dc:type
           rdf:resource="http://purl.org/dc/dcmitype/StillImage" />
        <dc:title />
      </cc:Work>
    </rdf:RDF>
  </metadata>
  <g
     inkscape:label="Layer 1"
     inkscape:groupmode="layer"
     id="layer1"
     transform="translate(0,-247)">
    <circle
       r="25"
       cy="272"
       cx="25"
       id="circle19"
       style="opacity:1;fill:#ffff00;fill-opacity:1;fill-rule:nonzero;stroke:none;stroke-width:2.66561413;stroke-miterlimit:4;stroke-dasharray:none;stroke-opacity:0" />
    <path
       style="opacity:1;fill:#ff2a2a;fill-opacity:1;fill-rule:nonzero;stroke:none;stroke-width:0.28807297;stroke-miterlimit:4;stroke-dasharray:none;stroke-opacity:0"
       d="m 9.2889011,296.00789 c -0.100303,-0.52221 -0.178448,-2.19226 -0.173663,-3.71123 0.0078,-2.50215 0.08516,-3.23207 0.56225,-5.3109 0.181322,-0.79006 0.8124439,-2.07617 1.3980809,-2.84902 0.652501,-0.86109 2.132801,-2.17425 2.450986,-2.17425 0.118394,0 0.363094,-0.0675 0.543783,-0.14995 l 0.657056,-0.2999 c 0.180689,-0.0825 0.463497,-0.14995 0.628463,-0.14995 0.164966,0 0.370639,-0.0594 0.457054,-0.13194 0.08641,-0.0726 0.869843,-0.17699 1.740953,-0.23206 l 1.583838,-0.10012 0.316937,0.64442 c 0.37145,0.75525 1.474412,1.89703 2.011336,2.08211 l 0.375228,0.12935 v 6.60145 6.60145 H 15.656234 9.4712631 Z"
       id="path1929"
       inkscape:connector-curvature="0"
       clip-path="url(#clipPath57)" />
    <path
       style="opacity:1;fill:#ff2a2a;fill-opacity:1;fill-rule:nonzero;stroke:none;stroke-width:0.28807297;stroke-miterlimit:4;stroke-dasharray:none;stroke-opacity:0"
       d="m 27.298914,290.4717 v -6.48914 l 0.639593,-0.25122 c 0.789601,-0.31016 1.931857,-1.35481 2.303014,-2.10624 l 0.277744,-0.56231 h 1.357 c 0.74635,0 1.402996,0.0675 1.459212,0.14995 0.05622,0.0825 0.316701,0.14995 0.578848,0.14995 0.262151,0 0.522632,0.0675 0.578848,0.14995 0.05622,0.0825 0.27112,0.14995 0.477563,0.14995 0.951209,0 3.324626,2.00665 4.087504,3.45586 0.56716,1.07742 1.069352,2.52609 1.314525,3.79203 0.218526,1.12835 0.237021,6.59074 0.02522,7.44707 l -0.129809,0.52482 -6.484628,0.0392 -6.484627,0.0392 z"
       id="path1931"
       inkscape:connector-curvature="0"
       clip-path="url(#clipPath53)" />
    <path
       style="opacity:1;fill:#d40000;fill-opacity:1;fill-rule:nonzero;stroke:none;stroke-width:0.28807297;stroke-miterlimit:4;stroke-dasharray:none;stroke-opacity:0"
       d="m 40.389877,296.85435 c 0.442547,-0.48308 0.440724,-6.22436 -0.0025,-8.51905 -0.287068,-1.48554 -1.25073,-3.74086 -1.763162,-4.12644 -0.134354,-0.1011 -0.24428,-0.2546 -0.24428,-0.34111 0,-0.18494 -1.42855,-1.45542 -1.636506,-1.45542 -0.07823,0 -0.234882,-0.10121 -0.348118,-0.22492 -0.168814,-0.18442 -0.156916,-0.22492 0.06608,-0.22492 0.433086,0 2.28476,0.8209 2.82817,1.2538 0.272886,0.2174 0.55393,0.39535 0.624548,0.39545 0.263748,2.9e-4 1.549036,1.30857 2.210154,2.24955 0.617242,0.87852 0.891738,1.37168 1.418779,2.54899 0.0923,0.20618 0.233559,0.49204 0.313909,0.63524 0.08035,0.14321 0.146089,0.426 0.146089,0.62844 0,0.20243 0.07443,0.40976 0.165385,0.46073 0.09096,0.051 0.165387,0.38835 0.165387,0.74974 0,0.36139 0.07443,0.69877 0.165385,0.74974 0.09096,0.051 0.165384,0.62453 0.165384,1.27457 0,0.65003 0.07443,1.22359 0.165385,1.27456 0.251112,0.14071 0.213104,2.61909 -0.04135,2.69599 -0.1137,0.0344 -1.186573,0.0829 -2.384154,0.10776 -1.666012,0.0346 -2.139127,0.003 -2.014376,-0.1327 z"
       id="path1933"
       inkscape:connector-curvature="0"
       clip-path="url(#clipPath49)" />
    <path
       style="opacity:1;fill:#d40000;fill-opacity:1;fill-rule:nonzero;stroke:none;stroke-width:0.28807297;stroke-miterlimit:4;stroke-dasharray:none;stroke-opacity:0"
       d="m 5.0364301,296.74357 c -0.04977,-0.11758 -0.04836,-0.74174 0.0031,-1.38703 0.05148,-0.64528 0.137344,-1.71306 0.190794,-2.37283 0.05345,-0.65977 0.166012,-1.26369 0.250137,-1.34204 0.08413,-0.0784 0.152956,-0.3772 0.152956,-0.66412 0,-0.47488 0.163883,-1.09063 0.50369,-1.8925 0.0699,-0.16495 0.243775,-0.58381 0.386394,-0.93081 0.331605,-0.80681 0.963681,-2.04584 1.093295,-2.14314 0.05493,-0.0412 0.281339,-0.31114 0.503131,-0.59979 0.426268,-0.55477 1.739624,-1.79939 1.8987629,-1.79939 0.05168,0 0.246481,-0.12883 0.432894,-0.28629 0.334393,-0.28246 2.151697,-1.2132 2.368812,-1.2132 0.06149,0 -0.339474,0.42174 -0.891043,0.93718 -0.551567,0.51545 -1.003021,1.01107 -1.003229,1.10138 -2.09e-4,0.0903 -0.149225,0.28633 -0.331149,0.4356 -0.181924,0.14927 -0.330771,0.36542 -0.330771,0.48033 0,0.1149 -0.148846,0.48824 -0.3307699,0.82964 -0.181924,0.34139 -0.33077,0.80649 -0.33077,1.03355 0,0.22705 -0.06328,0.44828 -0.140608,0.49162 -0.07734,0.0433 -0.234287,0.67148 -0.348783,1.39587 -0.214031,1.35412 -0.156401,6.89091 0.08043,7.72739 l 0.116753,0.41236 h -2.091786 c -1.658355,0 -2.110535,-0.0443 -2.182268,-0.21378 z"
       id="path1935"
       inkscape:connector-curvature="0"
       clip-path="url(#clipPath45)" />
    <path
       style="opacity:1;fill:#ab2d6a;fill-opacity:1;fill-rule:nonzero;stroke:none;stroke-width:0.28807297;stroke-miterlimit:4;stroke-dasharray:none;stroke-opacity:0"
       d="m 22.502744,290.50956 v -6.29785 h 0.569087 c 0.312999,0 0.615084,0.0675 0.671304,0.14995 0.133248,0.19548 2.347529,0.19548 2.480778,0 0.05622,-0.0825 0.283878,-0.14995 0.505916,-0.14995 h 0.403702 v 6.29785 6.29784 h -2.315395 -2.315392 z"
       id="path1937"
       inkscape:connector-curvature="0"
       clip-path="url(#clipPath41)" />
    <path
       style="opacity:1;fill:#333333;fill-opacity:1;fill-rule:nonzero;stroke:none;stroke-width:0.28807297;stroke-miterlimit:4;stroke-dasharray:none;stroke-opacity:0"
       d="m 10.562975,276.96698 c -0.01802,-3.30608 -0.07635,-5.21999 -0.133355,-4.37629 -0.09351,1.38383 -0.106603,1.28552 -0.169768,-1.27456 -0.03764,-1.52573 -0.05264,-4.29228 -0.03333,-6.14789 0.01931,-1.85562 0.03569,-3.56339 0.03641,-3.79505 7.66e-4,-0.24273 0.07147,-0.3819 0.166894,-0.32843 0.106096,0.0595 0.156375,-0.34653 0.13995,-1.13015 -0.0172,-0.8204 0.04054,-1.26002 0.175408,-1.33559 0.110574,-0.062 0.184865,-0.27478 0.165097,-0.47294 -0.06212,-0.62276 0.0099,-1.05591 0.161421,-0.971 0.08026,0.045 0.150157,-0.19661 0.155337,-0.53685 0.0052,-0.34024 0.08835,-0.69019 0.184849,-0.77768 0.09649,-0.0875 0.175435,-0.31425 0.175435,-0.50394 0,-0.18968 0.07443,-0.34488 0.165385,-0.34488 0.09096,0 0.165385,-0.0948 0.165385,-0.21075 0,-0.28919 0.696794,-1.48614 0.950965,-1.63357 0.1137,-0.0659 0.206731,-0.21778 0.206731,-0.33739 0,-0.11961 0.07882,-0.21747 0.175146,-0.21747 0.09633,0 0.136677,-0.0564 0.08966,-0.1254 -0.04702,-0.069 0.154152,-0.35576 0.447037,-0.63729 0.292885,-0.28153 0.557674,-0.57935 0.588418,-0.66182 0.03075,-0.0825 0.12288,-0.13308 0.204746,-0.11246 0.08186,0.0206 0.130241,-0.0469 0.107496,-0.14995 -0.02274,-0.10309 0.04901,-0.17138 0.159433,-0.15175 0.116029,0.0206 0.160917,-0.0585 0.10635,-0.18743 -0.05194,-0.12272 -0.03065,-0.22504 0.0473,-0.22738 0.07795,-0.002 0.47164,-0.27042 0.874856,-0.59572 0.403217,-0.3253 0.979998,-0.69768 1.281736,-0.8275 0.301736,-0.12982 0.548614,-0.30756 0.548614,-0.39499 0,-0.0874 0.106193,-0.12201 0.235986,-0.0769 0.129793,0.0452 0.324283,-0.0144 0.432204,-0.13226 0.107919,-0.11789 0.253772,-0.1821 0.32412,-0.14268 0.07035,0.0394 0.216204,-0.0248 0.324125,-0.14269 0.107919,-0.1179 0.301782,-0.17763 0.430808,-0.13274 0.129025,0.0449 0.277236,-0.0191 0.329358,-0.14229 0.05687,-0.13438 0.222646,-0.19359 0.414565,-0.14809 0.175891,0.0417 0.491767,-0.0263 0.701952,-0.1512 0.210986,-0.12534 0.573202,-0.19391 0.808686,-0.1531 0.234591,0.0407 0.59492,-0.008 0.800727,-0.10764 0.477559,-0.23173 4.205677,-0.22692 4.880741,0.006 0.268356,0.0927 0.686094,0.13278 0.928304,0.089 0.275607,-0.0498 0.515243,0.002 0.640448,0.13904 0.11003,0.12021 0.414217,0.21856 0.675965,0.21856 0.261749,0 0.475906,0.0717 0.475906,0.15937 0,0.0877 0.137412,0.13827 0.305364,0.11247 0.167949,-0.0258 0.428429,0.0457 0.578848,0.15889 0.150415,0.11318 0.273483,0.15552 0.273483,0.0941 0,-0.0614 0.121722,-0.0201 0.270495,0.0918 0.148771,0.11194 0.390647,0.20455 0.537502,0.2058 0.146855,0.001 0.246559,0.0916 0.221563,0.20084 -0.02501,0.10922 0.01315,0.16574 0.08477,0.12561 0.207669,-0.11636 0.777068,0.22182 1.640106,0.97413 0.945544,0.82423 1.214813,1.11313 1.214813,1.30341 0,0.0771 0.116354,0.18071 0.258558,0.23019 0.142208,0.0495 0.212242,0.15791 0.155626,0.24096 -0.05661,0.0831 -0.02411,0.15101 0.07221,0.15101 0.09633,0 0.175147,0.10122 0.175147,0.22492 0,0.12371 0.08965,0.20806 0.199212,0.18744 0.109572,-0.0206 0.202599,0.0348 0.206734,0.12317 0.0041,0.0884 0.136678,0.27777 0.294542,0.4209 0.446344,0.40468 1.286751,2.16178 1.168077,2.44217 -0.06617,0.15635 -0.03983,0.21254 0.07061,0.15065 0.234339,-0.13131 0.377658,0.23702 0.256152,0.6583 -0.06734,0.23349 -0.03832,0.30468 0.094,0.23053 0.182165,-0.10207 0.269512,0.16739 0.202931,0.62605 -0.01523,0.10494 0.08766,0.29538 0.228632,0.42321 0.163816,0.14852 0.219765,0.36448 0.155016,0.59837 -0.05894,0.21293 -0.0095,0.46618 0.118032,0.6056 0.147708,0.16137 0.203924,0.58202 0.172135,1.28803 -0.03226,0.71646 0.0089,1.01699 0.129896,0.94917 0.215981,-0.12102 0.198987,-0.9307 0.157223,7.49087 -0.01923,3.87617 -0.03319,7.51992 -0.03104,8.09722 0.0025,0.67913 -0.04336,0.94378 -0.129995,0.74975 -0.07364,-0.16495 -0.118889,1.06658 -0.100532,2.73673 0.01836,1.67015 -0.0039,3.01799 -0.04933,2.99521 -0.19292,-0.0966 -2.095157,-0.90001 -2.398086,-1.01279 -0.181921,-0.0677 -0.554039,-0.16497 -0.826926,-0.21611 -0.482034,-0.0903 -0.983337,-0.20229 -2.439433,-0.54479 -0.386586,-0.0909 -1.112216,-0.1992 -1.612505,-0.24059 -0.500292,-0.0414 -0.964296,-0.15256 -1.031127,-0.24703 -0.08306,-0.11742 -0.128324,-0.1006 -0.143058,0.0532 -0.01183,0.12371 -0.09657,-0.045 -0.188269,-0.37487 -0.250745,-0.90209 -0.34786,-3.53259 -0.137461,-3.72334 0.09726,-0.0882 0.176832,-0.30991 0.176832,-0.49272 0,-0.18281 0.06605,-0.35488 0.146782,-0.38237 0.195442,-0.0666 2.047124,-1.62444 1.930788,-1.62444 -0.08581,0 0.392429,-0.54685 0.869833,-0.99461 0.120192,-0.11274 0.170946,-0.20498 0.11277,-0.20498 -0.05817,0 0.03928,-0.18556 0.216565,-0.41236 0.408173,-0.52217 1.519429,-2.49643 1.519429,-2.69941 0,-0.38489 0.958345,-1.68659 1.241716,-1.68659 0.116246,0 0.25829,-0.11087 0.315643,-0.24638 0.05735,-0.13551 0.149846,-0.20507 0.205539,-0.15458 0.192028,0.17411 1.188365,-1.15495 1.490252,-1.98791 0.442882,-1.22199 0.423142,-3.49756 -0.03652,-4.20887 -0.186531,-0.28865 -0.496001,-0.54557 -0.687718,-0.57093 -0.312347,-0.0413 -0.357626,0.0444 -0.435693,0.82472 -0.201191,2.01106 -0.736282,3.25373 -1.415386,3.28702 -0.403593,0.0198 -0.436949,-0.19656 -0.09374,-0.60798 0.358809,-0.43011 0.354183,-4.51143 -0.0053,-4.63649 -0.163746,-0.057 -0.248077,-0.2918 -0.248077,-0.69081 0,-0.33247 -0.07443,-0.6045 -0.165385,-0.6045 -0.09096,0 -0.165385,-0.16688 -0.165385,-0.37085 0,-0.4923 -0.580885,-1.39384 -1.456993,-2.26125 -0.650615,-0.64417 -0.720788,-0.67785 -0.804867,-0.38633 -0.05067,0.17564 -0.176462,0.32039 -0.279554,0.32165 -0.13223,0.002 -0.13466,0.0347 -0.0082,0.11246 0.186147,0.11444 0.630931,2.47177 0.614931,3.25909 -0.0051,0.24742 0.06355,0.49174 0.152407,0.54294 0.08885,0.0512 0.16155,0.35437 0.16155,0.67372 0,0.31935 0.10367,0.76239 0.230369,0.98454 0.126702,0.22215 0.188027,0.50394 0.136279,0.62621 -0.05175,0.12227 0.02922,0.39292 0.179913,0.60146 l 0.273998,0.37914 -2.452787,0.0453 c -1.930885,0.0357 -2.495325,10e-4 -2.652698,-0.16231 -0.138545,-0.1439 -0.429486,-0.18417 -0.947862,-0.1312 -0.523142,0.0535 -0.805589,0.0135 -0.939693,-0.13303 -0.110079,-0.12025 -0.432734,-0.19474 -0.757603,-0.17491 -0.326465,0.0199 -0.622757,-0.0489 -0.700335,-0.16271 -0.07928,-0.1163 -0.269131,-0.15852 -0.462539,-0.10287 -0.201247,0.0579 -0.410047,0.005 -0.540147,-0.13729 -0.116644,-0.12743 -0.339918,-0.1949 -0.496157,-0.14994 -0.15624,0.045 -0.378115,-0.021 -0.493056,-0.14657 -0.114943,-0.12557 -0.344328,-0.22831 -0.509745,-0.22831 -0.165419,0 -0.346757,-0.0675 -0.402973,-0.14994 -0.05622,-0.0825 -0.246667,-0.14995 -0.423224,-0.14995 -0.176555,0 -0.321012,-0.0539 -0.321012,-0.11983 0,-0.0659 -0.27112,-0.20871 -0.602492,-0.31735 -0.617224,-0.20236 -2.539825,-1.78579 -2.539825,-2.09176 0,-0.0936 -0.119601,-0.17014 -0.265771,-0.17014 -0.168298,0 -0.230858,-0.0825 -0.170577,-0.22492 0.05235,-0.12371 0.02312,-0.22492 -0.065,-0.22492 -0.08811,0 -0.160195,-0.094 -0.160195,-0.20888 0,-0.11489 -0.110381,-0.24729 -0.245291,-0.29423 -0.138865,-0.0483 -0.203176,-0.18484 -0.148224,-0.31467 0.0545,-0.12879 -0.0084,-0.26606 -0.143656,-0.31309 -0.152997,-0.0532 -0.212638,-0.21694 -0.163657,-0.44924 0.05041,-0.23912 -0.01086,-0.39611 -0.177414,-0.45403 -0.18887,-0.0657 -0.230384,-0.22312 -0.161037,-0.61056 0.107628,-0.60132 -0.240569,-1.70382 -0.538104,-1.70382 -0.256313,0 -0.603604,0.37178 -0.464828,0.4976 0.05771,0.0523 -0.01958,0.13846 -0.171749,0.1914 -0.181208,0.0631 -0.242507,0.19387 -0.177653,0.37914 0.06417,0.18331 0.0043,0.31582 -0.169961,0.37647 -0.147943,0.0515 -0.233112,0.17834 -0.189266,0.28194 0.04385,0.1036 -0.03062,0.33118 -0.165461,0.50573 -0.134848,0.17456 -0.198942,0.38521 -0.142426,0.46812 0.05652,0.0829 -0.0054,0.18838 -0.137643,0.23439 -0.132216,0.046 -0.240586,0.23108 -0.240823,0.4113 -6.38e-4,0.47259 -0.436824,1.78853 -0.556801,1.67975 -0.05578,-0.0506 -0.105529,0.17764 -0.11055,0.50714 -0.0051,0.32951 -0.07813,0.72075 -0.162469,0.86942 -0.231523,0.40812 -0.42579,1.91251 -0.436717,3.38189 -0.0086,1.14641 -0.04632,1.31216 -0.299179,1.31205 -0.159183,-8e-5 -0.289424,-0.10135 -0.289424,-0.22506 0,-0.12371 -0.07209,-0.22492 -0.160195,-0.22492 -0.0881,0 -0.121041,-0.0925 -0.07319,-0.20558 0.04785,-0.11306 -0.03663,-0.24859 -0.187736,-0.30116 -0.151108,-0.0526 -0.234919,-0.18967 -0.18625,-0.30467 0.04867,-0.11499 -0.01564,-0.33373 -0.142965,-0.48607 -0.127302,-0.15234 -0.233824,-0.49311 -0.236717,-0.75726 -0.0043,-0.39519 -0.236937,-1.10697 -0.451197,-1.38067 -0.121245,-0.15487 -0.704388,0.51449 -0.803055,0.92179 -0.06053,0.24985 -0.157773,0.38422 -0.216107,0.2986 -0.05834,-0.0856 -0.10606,0.50619 -0.10606,1.31511 0,0.80893 0.05582,1.43957 0.124039,1.40142 0.06823,-0.0382 0.135375,0.0864 0.149229,0.27687 0.04123,0.56671 0.05911,0.636 0.224727,0.87105 0.08716,0.12371 0.159621,0.26547 0.161013,0.31502 0.0041,0.1455 1.242923,1.54622 1.242923,1.40534 0,-0.0705 0.09303,-0.0236 0.20673,0.10439 0.279556,0.31457 0.784588,0.46323 0.789346,0.23234 0.0042,-0.20499 0.323925,0.39496 0.721649,1.35424 0.145319,0.35051 0.209004,0.63832 0.141519,0.63958 -0.06749,0.001 -0.03967,0.0519 0.06182,0.11246 0.237088,0.14156 0.890491,1.3065 0.890491,1.58764 0,0.11817 0.116354,0.25533 0.258561,0.30481 0.142208,0.0495 0.217056,0.15084 0.166333,0.22525 -0.05072,0.0744 0.0267,0.17668 0.172065,0.22725 0.149526,0.052 0.223513,0.18829 0.170385,0.31381 -0.05406,0.12772 -0.0087,0.20672 0.106881,0.18617 0.110428,-0.0196 0.182173,0.0487 0.159435,0.15175 -0.02274,0.10309 0.03308,0.18744 0.12404,0.18744 0.09096,0 0.165384,0.0707 0.165384,0.1571 0,0.0864 0.184847,0.31243 0.410771,0.50227 0.225928,0.18984 0.36237,0.38905 0.303209,0.44269 -0.05916,0.0536 -0.01878,0.0975 0.08973,0.0975 0.10851,0 0.548853,0.31863 0.978529,0.70807 l 0.781224,0.70807 0.05865,1.33683 c 0.03226,0.73525 0.0074,1.83363 -0.05545,2.44085 l -0.11411,1.10403 h -1.299211 c -0.714568,0 -1.34521,0.0675 -1.401426,0.14995 -0.05622,0.0825 -0.322102,0.14995 -0.590854,0.14995 -0.268751,0 -0.617868,0.0621 -0.775819,0.13796 -0.157948,0.0759 -0.733721,0.28335 -1.27949,0.46103 -0.545772,0.17769 -1.494669,0.54983 -2.108661,0.82699 l -1.116352,0.50392 z"
       id="path1939"
       inkscape:connector-curvature="0"
       clip-path="url(#clipPath37)" />
    <path
       style="opacity:1;fill:#f5b585;fill-opacity:1;fill-rule:nonzero;stroke:none;stroke-width:0.28807297;stroke-miterlimit:4;stroke-dasharray:none;stroke-opacity:0"
       d="m 23.081592,277.31408 c -0.05622,-0.0825 -0.236215,-0.14995 -0.399994,-0.14995 -0.395172,0 -2.259654,-0.87827 -2.713677,-1.27828 -1.241064,-1.09343 -2.626439,-2.52047 -3.198962,-3.29516 -0.62853,-0.85046 -1.751279,-2.74833 -2.062448,-3.4863 -0.262902,-0.6235 -0.437671,-1.0088 -0.728242,-1.60548 -0.308189,-0.63287 -0.731887,-1.96777 -0.735137,-2.31613 -0.0013,-0.14604 0.08654,-0.11885 0.287462,0.0889 0.324658,0.33575 1.022605,0.70629 1.136251,0.60324 0.04084,-0.037 -0.0136,-0.36301 -0.120997,-0.7244 -0.437574,-1.47247 -0.365243,-3.40089 0.204626,-5.45543 0.265567,-0.95745 1.493104,-4.29184 1.821687,-4.9483 l 0.30022,-0.5998 0.0036,0.62844 c 0.0019,0.34563 0.07806,0.67013 0.169019,0.7211 0.09096,0.051 0.165383,0.28714 0.165383,0.52482 0,0.23768 0.07443,0.47385 0.165388,0.52482 0.09096,0.051 0.165385,0.22365 0.165385,0.38372 0,0.16008 0.07443,0.29105 0.165385,0.29105 0.09096,0 0.165384,0.13495 0.165384,0.2999 0,0.16494 0.06941,0.29989 0.154241,0.29989 0.08483,0 0.198463,0.12633 0.25251,0.28072 0.112324,0.32086 1.57289,1.71015 2.384798,2.26841 1.945477,1.3377 4.731776,2.2438 8.371957,2.72256 1.237346,0.16274 5.871175,0.3383 5.871175,0.22244 0,-0.0382 -0.176153,-0.767 -0.391453,-1.61965 -0.2153,-0.85265 -0.484457,-2.05635 -0.598131,-2.67489 -0.113675,-0.61853 -0.272005,-1.36078 -0.351858,-1.64943 -0.07985,-0.28865 -0.142917,-0.76099 -0.140155,-1.04964 l 0.0051,-0.52482 0.413367,0.44984 c 0.508777,0.55368 1.084489,1.66054 1.325872,2.54913 0.205459,0.75634 0.269194,5.80063 0.07551,5.97623 -0.09504,0.0862 -0.172795,0.37934 -0.172795,0.6515 0,0.60748 0.335753,0.65389 0.917133,0.12677 0.331402,-0.30046 0.404609,-0.32111 0.39865,-0.11246 -0.01195,0.42039 -0.391284,1.56975 -0.698097,2.11551 -0.157804,0.2807 -0.286917,0.63097 -0.286917,0.77838 0,0.1474 -0.07443,0.30971 -0.165385,0.36068 -0.09096,0.051 -0.165384,0.22365 -0.165384,0.38372 0,0.16008 -0.07443,0.29105 -0.165389,0.29105 -0.09096,0 -0.165384,0.0988 -0.165384,0.2196 0,0.40346 -1.408009,2.56996 -2.585927,3.97896 -0.72874,0.87171 -2.560609,2.496 -3.170843,2.81154 -1.804303,0.93298 -2.393422,1.08713 -4.15478,1.08713 -0.918865,0 -1.691047,-0.0662 -1.748109,-0.14995 z"
       id="path1941"
       inkscape:connector-curvature="0"
       clip-path="url(#clipPath33)" />
    <path
       style="opacity:1;fill:#d9946a;fill-opacity:1;fill-rule:nonzero;stroke:none;stroke-width:0.28807297;stroke-miterlimit:4;stroke-dasharray:none;stroke-opacity:0"
       d="m 22.916208,283.87584 c -1.404726,-0.43608 -2.531573,-1.27996 -3.034407,-2.27245 -0.282399,-0.55738 -0.2974,-0.79249 -0.158707,-2.48714 0.09229,-1.12768 0.09351,-2.18558 0.0031,-2.66159 -0.164226,-0.86424 -0.02951,-1.00078 0.400441,-0.40584 0.298808,0.41347 1.796927,1.17956 2.040158,1.04326 0.08127,-0.0455 0.195253,-0.0131 0.253306,0.072 0.05805,0.0852 0.17483,0.11602 0.259507,0.0686 0.08467,-0.0474 0.153956,-0.0222 0.153956,0.0561 0,0.13386 0.370142,0.21765 1.863695,0.4219 0.361796,0.0495 0.71803,0.014 0.849072,-0.0846 0.12417,-0.0934 0.513493,-0.17729 0.865161,-0.18634 0.351669,-0.009 0.751031,-0.1037 0.887473,-0.21033 0.136444,-0.10662 0.322502,-0.19947 0.413463,-0.20634 0.380152,-0.0287 0.744236,-0.18902 0.744236,-0.32774 0,-0.0818 0.07443,-0.10699 0.165384,-0.056 0.09096,0.051 0.165385,0.0212 0.165385,-0.0661 0,-0.0873 0.105433,-0.15879 0.234296,-0.15879 0.128862,0 0.263139,-0.0784 0.298391,-0.17434 0.03525,-0.0959 0.200056,-0.19243 0.366233,-0.21454 0.272836,-0.0363 0.289912,0.0351 0.176072,0.73664 -0.06933,0.42727 -0.123146,0.94554 -0.119577,1.15172 0.01405,0.81255 0.253506,2.48782 0.389839,2.72746 0.08718,0.15327 0.0786,0.29002 -0.02171,0.34624 -0.0912,0.0511 -0.16621,0.20703 -0.166666,0.34648 -0.0023,0.72487 -2.086191,2.42782 -2.970783,2.42782 -0.174111,0 -0.362566,0.0675 -0.418782,0.14995 -0.132403,0.19423 -2.987842,0.166 -3.638475,-0.036 z"
       id="path1943"
       inkscape:connector-curvature="0"
       clip-path="url(#clipPath29)" />
    <path
       style="opacity:1;fill:#d9946a;fill-opacity:1;fill-rule:nonzero;stroke:none;stroke-width:0.14403649;stroke-miterlimit:4;stroke-dasharray:none;stroke-opacity:0"
       d="m 13.727777,267.40612 c -0.05126,-0.0868 -0.140548,-0.14139 -0.198438,-0.12125 -0.182748,0.0636 -0.874373,-0.10525 -0.874373,-0.21344 0,-0.0557 -0.07443,-0.12276 -0.165385,-0.14893 -0.09096,-0.0262 -0.165388,-0.0907 -0.165388,-0.14338 0,-0.0527 -0.07443,-0.15686 -0.165384,-0.23149 -0.09096,-0.0746 -0.165385,-0.19045 -0.165385,-0.25737 0,-0.0669 -0.07443,-0.17944 -0.165385,-0.25006 -0.09163,-0.0711 -0.165384,-0.22117 -0.165384,-0.33641 0,-0.11441 -0.0688,-0.32561 -0.152892,-0.46932 -0.08639,-0.14764 -0.174686,-0.5028 -0.202994,-0.81647 -0.02755,-0.30535 -0.089,-0.59044 -0.136534,-0.63354 -0.129736,-0.11762 -0.103972,-1.04163 0.03761,-1.34886 0.06822,-0.14803 0.124283,-0.36302 0.124584,-0.47774 2.99e-4,-0.11472 0.07448,-0.3098 0.164839,-0.43351 0.09036,-0.12371 0.170149,-0.2924 0.177301,-0.37487 0.0071,-0.0825 0.03844,0.16172 0.06952,0.54266 0.03955,0.48471 0.09786,0.73404 0.194274,0.83062 0.08044,0.0806 0.137753,0.26337 0.137753,0.43928 0,0.19365 0.05908,0.36302 0.165386,0.47415 0.09096,0.0951 0.165383,0.25314 0.165383,0.35121 0,0.0981 0.05246,0.19657 0.116572,0.21888 0.06412,0.0223 0.141389,0.13019 0.171718,0.23975 0.03033,0.10956 0.164688,0.28787 0.298581,0.39625 0.199486,0.16148 0.230555,0.22864 0.172081,0.37195 -0.110827,0.27163 0.27806,1.82985 0.492398,1.973 0.07017,0.0469 0.111914,0.12739 0.09277,0.17894 -0.01915,0.0515 0.0077,0.0937 0.05964,0.0937 0.05196,0 0.07343,0.0309 0.04772,0.0686 -0.02571,0.0377 -0.0019,0.0822 0.05307,0.0987 0.07416,0.0224 0.07536,0.0439 0.0047,0.0835 -0.05461,0.0306 -0.134838,-0.0139 -0.188328,-0.10455 z"
       id="path1945"
       inkscape:connector-curvature="0"
       clip-path="url(#clipPath25)" />
    <path
       style="opacity:1;fill:#d9946a;fill-opacity:1;fill-rule:nonzero;stroke:none;stroke-width:0.14403649;stroke-miterlimit:4;stroke-dasharray:none;stroke-opacity:0"
       d="m 35.726208,267.54433 c 0,-0.12781 0.17736,-0.32555 0.334628,-0.37308 0.04923,-0.0149 0.11073,-0.17815 0.136684,-0.36282 0.02596,-0.18468 0.07697,-0.37036 0.113386,-0.41263 0.03641,-0.0423 0.09148,-0.26156 0.122376,-0.48733 0.03088,-0.22577 0.107701,-0.48521 0.170701,-0.57654 0.063,-0.0913 0.112179,-0.24315 0.109294,-0.33738 l -0.0052,-0.17133 -0.07479,0.16869 c -0.04113,0.0928 -0.141104,0.16767 -0.222163,0.16641 -0.13965,-0.002 -0.13979,-0.006 -0.0025,-0.0787 0.07959,-0.042 0.144713,-0.12535 0.144713,-0.18515 0,-0.0598 0.03458,-0.10874 0.07683,-0.10874 0.133363,0 0.584707,-0.67379 0.584707,-0.87288 0,-0.10483 0.07442,-0.27638 0.165385,-0.38122 0.119324,-0.13754 0.165384,-0.30416 0.165384,-0.59824 0,-0.24448 0.04518,-0.44857 0.112903,-0.50997 0.06424,-0.0582 0.14026,-0.37098 0.176378,-0.72564 0.0521,-0.51158 0.0757,-0.58411 0.131664,-0.40475 0.03751,0.1202 0.112734,0.24349 0.167161,0.27399 0.370305,0.2075 0.333853,3.44315 -0.04263,3.7845 -0.06001,0.0544 -0.132652,0.23245 -0.161439,0.39566 -0.02877,0.16321 -0.108365,0.31624 -0.176842,0.34007 -0.06848,0.0238 -0.124502,0.095 -0.124502,0.15813 0,0.0631 -0.07443,0.18229 -0.165387,0.26476 -0.09096,0.0825 -0.165385,0.19828 -0.165385,0.25736 0,0.0591 -0.07443,0.12882 -0.165384,0.155 -0.09096,0.0262 -0.165385,0.0942 -0.165385,0.15123 0,0.0669 -0.176918,0.13519 -0.499459,0.19272 -0.335508,0.0599 -0.539089,0.1404 -0.620194,0.24538 -0.09776,0.12655 -0.120736,0.13273 -0.120736,0.0325 z"
       id="path1947"
       inkscape:connector-curvature="0"
       clip-path="url(#clipPath21)" />
  </g>
</svg>
