<?xml version="1.0" encoding="UTF-8" standalone="no"?>
<!-- Created with Inkscape (http://www.inkscape.org/) -->

<svg
   xmlns:dc="http://purl.org/dc/elements/1.1/"
   xmlns:cc="http://creativecommons.org/ns#"
   xmlns:rdf="http://www.w3.org/1999/02/22-rdf-syntax-ns#"
   xmlns:svg="http://www.w3.org/2000/svg"
   xmlns="http://www.w3.org/2000/svg"
   xmlns:sodipodi="http://sodipodi.sourceforge.net/DTD/sodipodi-0.dtd"
   xmlns:inkscape="http://www.inkscape.org/namespaces/inkscape"
   width="50mm"
   height="50mm"
   viewBox="0 0 50 50"
   version="1.1"
   id="svg1305"
   inkscape:version="0.92.1 r15371"
   sodipodi:docname="female-2.svg">
  <defs
     id="defs1299">
    <clipPath
       clipPathUnits="userSpaceOnUse"
       id="clipPath17">
      <circle
         style="opacity:1;fill:#ff6600;fill-opacity:1;fill-rule:nonzero;stroke:none;stroke-width:2.49743986;stroke-miterlimit:4;stroke-dasharray:none;stroke-opacity:0"
         id="circle19"
         cx="25"
         cy="272"
         r="25" />
    </clipPath>
    <clipPath
       clipPathUnits="userSpaceOnUse"
       id="clipPath21">
      <circle
         style="opacity:1;fill:#ff6600;fill-opacity:1;fill-rule:nonzero;stroke:none;stroke-width:2.49743986;stroke-miterlimit:4;stroke-dasharray:none;stroke-opacity:0"
         id="circle23"
         cx="25"
         cy="272"
         r="25" />
    </clipPath>
    <clipPath
       clipPathUnits="userSpaceOnUse"
       id="clipPath25">
      <circle
         style="opacity:1;fill:#ff6600;fill-opacity:1;fill-rule:nonzero;stroke:none;stroke-width:2.49743986;stroke-miterlimit:4;stroke-dasharray:none;stroke-opacity:0"
         id="circle27"
         cx="25"
         cy="272"
         r="25" />
    </clipPath>
    <clipPath
       clipPathUnits="userSpaceOnUse"
       id="clipPath29">
      <circle
         style="opacity:1;fill:#ff6600;fill-opacity:1;fill-rule:nonzero;stroke:none;stroke-width:2.49743986;stroke-miterlimit:4;stroke-dasharray:none;stroke-opacity:0"
         id="circle31"
         cx="25"
         cy="272"
         r="25" />
    </clipPath>
    <clipPath
       clipPathUnits="userSpaceOnUse"
       id="clipPath33">
      <circle
         style="opacity:1;fill:#ff6600;fill-opacity:1;fill-rule:nonzero;stroke:none;stroke-width:2.49743986;stroke-miterlimit:4;stroke-dasharray:none;stroke-opacity:0"
         id="circle35"
         cx="25"
         cy="272"
         r="25" />
    </clipPath>
    <clipPath
       clipPathUnits="userSpaceOnUse"
       id="clipPath37">
      <circle
         style="opacity:1;fill:#ff6600;fill-opacity:1;fill-rule:nonzero;stroke:none;stroke-width:2.49743986;stroke-miterlimit:4;stroke-dasharray:none;stroke-opacity:0"
         id="circle39"
         cx="25"
         cy="272"
         r="25" />
    </clipPath>
  </defs>
  <sodipodi:namedview
     id="base"
     pagecolor="#ffffff"
     bordercolor="#666666"
     borderopacity="1.0"
     inkscape:pageopacity="0.0"
     inkscape:pageshadow="2"
     inkscape:zoom="1.36525"
     inkscape:cx="130.8377"
     inkscape:cy="51.245232"
     inkscape:document-units="mm"
     inkscape:current-layer="layer1"
     showgrid="false"
     inkscape:window-width="1024"
     inkscape:window-height="715"
     inkscape:window-x="-8"
     inkscape:window-y="-8"
     inkscape:window-maximized="1" />
  <metadata
     id="metadata1302">
    <rdf:RDF>
      <cc:Work
         rdf:about="">
        <dc:format>image/svg+xml</dc:format>
        <dc:type
           rdf:resource="http://purl.org/dc/dcmitype/StillImage" />
        <dc:title />
      </cc:Work>
    </rdf:RDF>
  </metadata>
  <g
     inkscape:label="Layer 1"
     inkscape:groupmode="layer"
     id="layer1"
     transform="translate(0,-247)">
    <circle
       r="25"
       cy="272"
       cx="25"
       id="circle15"
       style="opacity:1;fill:#00ffff;fill-opacity:1;fill-rule:nonzero;stroke:none;stroke-width:2.49743986;stroke-miterlimit:4;stroke-dasharray:none;stroke-opacity:0" />
    <path
       style="opacity:1;fill:#ff2a7f;fill-opacity:1;fill-rule:nonzero;stroke:none;stroke-width:0.26370788;stroke-miterlimit:4;stroke-dasharray:none;stroke-opacity:0"
       d="m 9.2558368,296.90894 c -0.05582,-0.0501 -0.101379,-0.32654 -0.101379,-0.61441 0,-0.28787 -0.06847,-0.52339 -0.15221,-0.52339 -0.20743,0 -0.20743,-6.37044 0,-6.48544 0.08373,-0.0464 0.15221,-0.44578 0.15221,-0.88749 0,-0.4417 0.06847,-0.84107 0.152203,-0.88749 0.08373,-0.0464 0.152213,-0.29216 0.152213,-0.54613 0,-0.25397 0.06847,-0.49973 0.152201,-0.54616 0.08374,-0.0464 0.158414,-0.21898 0.165995,-0.38352 0.02647,-0.57254 1.3326372,-2.39105 2.2536602,-3.13747 0.349981,-0.28362 0.599807,-0.5687 0.555175,-0.63348 -0.11657,-0.16923 0.308826,-0.28653 0.480538,-0.1325 0.09051,0.0811 0.247535,0.0264 0.422653,-0.14721 0.15331,-0.15195 0.435322,-0.2763 0.626686,-0.2763 0.191373,0 0.390283,-0.0614 0.442015,-0.13653 0.05176,-0.0751 0.247561,-0.13654 0.435168,-0.13654 0.187598,0 0.40616,-0.0555 0.485685,-0.1233 0.146823,-0.12518 0.843453,-0.22102 2.69406,-0.37061 0.973427,-0.0788 1.027394,-0.0679 1.027394,0.20544 0,0.15866 0.06847,0.28847 0.152208,0.28847 0.08374,0 0.152208,0.12288 0.152208,0.27307 0,0.1502 0.06847,0.27308 0.152205,0.27308 0.08374,0 0.152209,0.0791 0.152209,0.17581 0,0.23094 1.303609,1.32953 1.9675,1.65805 1.565841,0.77485 4.362988,0.7945 6.01974,0.0422 0.92869,-0.42164 2.14226,-1.5387 2.51416,-2.31419 l 0.3296,-0.68729 0.71081,0.0937 c 1.22016,0.16082 2.21768,0.31764 2.61331,0.41082 1.20553,0.28391 1.63961,0.42401 2.00219,0.64627 0.22225,0.1362 0.46662,0.24764 0.54308,0.24764 0.0767,0 0.61529,0.44544 1.19732,0.98989 1.07472,1.00527 2.04131,2.45284 2.04131,3.05708 0,0.17719 0.0607,0.32217 0.13489,0.32217 0.0745,0 0.17375,0.16896 0.22117,0.37546 0.0469,0.20651 0.2062,0.80557 0.35284,1.33123 0.34247,1.22764 0.39781,7.31997 0.0744,8.15803 l -0.19775,0.512 H 24.845246 c -8.518357,0 -15.5335852,-0.041 -15.5893952,-0.091 z"
       id="path1318"
       inkscape:connector-curvature="0"
       clip-path="url(#clipPath37)" />
    <path
       style="opacity:1;fill:#2c89a0;fill-opacity:1;fill-rule:nonzero;stroke:none;stroke-width:0.26370788;stroke-miterlimit:4;stroke-dasharray:none;stroke-opacity:0"
       d="m 5.0173798,294.9178 c -0.04614,-1.73359 -0.0091,-2.20287 0.217282,-2.80305 0.195934,-0.51817 0.229872,-0.79249 0.120651,-0.97556 -0.112524,-0.18865 -0.09136,-0.29979 0.08198,-0.42876 0.131233,-0.0978 0.214911,-0.33618 0.190685,-0.54341 -0.02377,-0.20312 0.04843,-0.46838 0.160481,-0.58946 0.112023,-0.12106 0.163302,-0.31445 0.113926,-0.42976 -0.05013,-0.11705 0.04566,-0.33108 0.21683,-0.48459 0.168591,-0.15123 0.266203,-0.33348 0.216925,-0.40501 -0.133861,-0.19428 0.713727,-1.86212 1.220045,-2.40073 0.08373,-0.089 0.391925,-0.44238 0.684925,-0.78518 0.292998,-0.34281 0.629758,-0.62561 0.748351,-0.62844 0.118621,-0.003 0.174116,-0.0423 0.12338,-0.0879 -0.181897,-0.16317 1.7531422,-1.55569 2.1617792,-1.55569 0.08947,0 0.16283,-0.065 0.16283,-0.1446 0,-0.0794 0.06303,-0.10966 0.13994,-0.067 0.07691,0.0427 0.243305,-0.0152 0.369645,-0.12846 0.126341,-0.11334 0.309442,-0.20606 0.406893,-0.20606 0.09737,0 -0.130723,0.3072 -0.507052,0.68267 -1.748924,1.74495 -2.2508972,2.77254 -2.8419392,5.81772 -0.207623,1.06973 -0.212189,6.72739 -0.0055,7.2143 0.0853,0.20145 0.155236,0.51587 0.155236,0.69871 V 297 h -2.040805 -2.040834 z"
       id="path1320"
       inkscape:connector-curvature="0"
       clip-path="url(#clipPath33)" />
    <path
       style="opacity:1;fill:#2c89a0;fill-opacity:1;fill-rule:nonzero;stroke:none;stroke-width:0.26370788;stroke-miterlimit:4;stroke-dasharray:none;stroke-opacity:0"
       d="m 40.541654,296.69275 c 0.2814,-0.44192 0.2714,-7.22651 -0.0116,-8.36281 -0.28892,-1.15718 -1.01804,-3.00822 -1.4169,-3.59718 -0.50599,-0.74709 -1.80491,-2.05962 -2.40859,-2.4338 -0.48041,-0.29778 -0.49541,-0.32494 -0.1522,-0.27679 0.6294,0.0883 2.31176,0.75065 2.40991,0.94875 0.0286,0.0562 0.13477,0.10233 0.23741,0.10233 0.10336,0 0.54774,0.27649 0.98909,0.61441 0.44131,0.33793 0.76585,0.61441 0.72116,0.61441 -0.0445,0 0.22214,0.28812 0.59298,0.64025 0.37079,0.35214 0.64707,0.6646 0.61387,0.69437 -0.0336,0.0298 0.0877,0.20738 0.2698,0.39471 0.18155,0.18732 0.3301,0.39935 0.3301,0.47117 0,0.0718 0.071,0.17441 0.15642,0.228 0.25351,0.15789 0.75818,1.28861 0.71076,1.59248 -0.0361,0.22964 -0.0146,0.24313 0.11339,0.0751 0.12772,-0.16693 0.16159,-0.14168 0.18302,0.13654 0.0136,0.18773 0.0243,0.41748 0.0187,0.51053 -0.003,0.0931 0.0531,0.13551 0.12823,0.0943 0.0747,-0.0412 0.135,0.0787 0.135,0.26648 0,0.18775 0.0692,0.37932 0.1522,0.42572 0.0835,0.0464 0.15222,0.29219 0.15222,0.54616 0,0.25396 0.0692,0.49972 0.15219,0.54613 0.0835,0.0464 0.15224,0.14583 0.15224,0.22093 0,0.0751 -0.0692,0.0986 -0.15224,0.0522 -0.0835,-0.0464 -0.15219,0.0458 -0.15219,0.2048 0,0.15905 0.0692,0.25122 0.15219,0.20481 0.0908,-0.0507 0.15224,0.12752 0.15224,0.44705 0,0.2923 0.0505,0.57739 0.11418,0.63353 0.0631,0.0561 0.11428,1.0494 0.1145,2.20725 l 3e-4,2.10518 -2.32651,7e-5 -2.3265,8e-5 z"
       id="path1322"
       inkscape:connector-curvature="0"
       clip-path="url(#clipPath29)" />
    <path
       style="opacity:1;fill:#ffe4d5;fill-opacity:1;fill-rule:nonzero;stroke:none;stroke-width:0.26370788;stroke-miterlimit:4;stroke-dasharray:none;stroke-opacity:0"
       d="m 23.404978,277.40682 c -1.033489,-0.19119 -2.000411,-0.57251 -3.008287,-1.18634 -1.316749,-0.80195 -3.833644,-3.44747 -4.565585,-4.79891 -0.189592,-0.35006 -0.399558,-0.63647 -0.466592,-0.63647 -0.06709,0 -0.121875,-0.12288 -0.121875,-0.27308 0,-0.15019 -0.06847,-0.27307 -0.152207,-0.27307 -0.08374,0 -0.152206,-0.11925 -0.152206,-0.26501 0,-0.14575 -0.06847,-0.30299 -0.152209,-0.3494 -0.08374,-0.0464 -0.152209,-0.20364 -0.152209,-0.3494 0,-0.14576 -0.06847,-0.26501 -0.152203,-0.26501 -0.08373,0 -0.152209,-0.14132 -0.152209,-0.31403 0,-0.17272 -0.06277,-0.37241 -0.13932,-0.44374 -0.07659,-0.0713 -0.162239,-0.28331 -0.190254,-0.47105 -0.04212,-0.28188 -0.145155,-0.34844 -0.59168,-0.38212 -0.839259,-0.0633 -1.403889,-0.62332 -2.092488,-2.07552 -0.340597,-0.71829 -0.58563,-2.65993 -0.352026,-2.78944 0.09312,-0.0517 0.169425,-0.23688 0.169425,-0.4116 0,-0.17473 0.102382,-0.49367 0.227372,-0.70877 l 0.227374,-0.39107 9.45e-4,0.64049 c 6.34e-4,0.35226 0.06934,0.67846 0.153148,0.72486 0.08373,0.0464 0.152206,0.20661 0.152206,0.356 0,0.25922 0.297379,0.88642 0.76989,1.62378 0.32171,0.50202 1.394889,1.50188 1.612024,1.50188 0.340826,0 0.367581,-0.24915 0.07662,-0.71381 -0.340842,-0.54436 -0.478421,-1.16362 -0.580652,-2.61357 -0.04775,-0.67708 -0.01502,-1.12909 0.08858,-1.22199 0.0905,-0.0811 0.164368,-0.30908 0.164368,-0.50661 0,-0.19754 0.162272,-0.64669 0.360601,-0.9981 0.441405,-0.78212 0.664148,-0.64241 0.733785,0.46027 l 0.04721,0.7468 h 9.817326 9.817334 v -0.70366 c 0,-0.38701 0.0406,-0.7409 0.0897,-0.78641 0.0491,-0.0455 0.23796,0.37336 0.4185,0.93081 0.38971,1.20299 0.43456,3.12337 0.10291,4.37207 -0.11848,0.44498 -0.18043,0.85971 -0.1378,0.92163 0.10712,0.1543 0.51623,0.14258 0.51623,-0.0148 0,-0.0701 0.13699,-0.16634 0.30442,-0.21401 0.16739,-0.0477 0.30441,-0.17469 0.30441,-0.28227 0,-0.10755 0.057,-0.19561 0.1283,-0.19561 0.11998,0 0.61585,-0.81807 0.86902,-1.43361 0.0621,-0.1502 0.22494,-0.7847 0.36263,-1.41002 0.22119,-1.00452 0.26974,-1.09993 0.41719,-0.81921 0.48808,0.92939 0.55856,1.45666 0.35708,2.67126 -0.1094,0.65584 -0.24875,1.28549 -0.31111,1.39922 -0.0628,0.11373 -0.20644,0.3911 -0.3203,0.61639 -0.31683,0.62711 -1.11488,1.29708 -1.54507,1.29708 -0.44244,0 -0.5855,0.14884 -0.85319,0.88749 -0.10952,0.30038 -0.49988,1.11165 -0.86888,1.80284 -0.36906,0.69119 -0.67101,1.29281 -0.67101,1.33693 0,0.0442 -0.13693,0.21214 -0.30439,0.37336 -0.16745,0.16119 -0.3044,0.37366 -0.3044,0.47215 0,0.0986 -0.0692,0.17906 -0.15219,0.17906 -0.0835,0 -0.1522,0.0922 -0.1522,0.20481 0,0.11263 -0.0692,0.2048 -0.15221,0.2048 -0.0835,0 -0.1522,0.0608 -0.1522,0.13497 0,0.18439 -0.30871,0.50639 -1.90265,1.9848 -1.07662,0.99859 -1.61423,1.38033 -2.51141,1.78324 -1.710132,0.76801 -3.260614,0.97905 -4.927449,0.67068 z"
       id="path1324"
       inkscape:connector-curvature="0"
       clip-path="url(#clipPath25)" />
    <path
       style="opacity:1;fill:#f4d5c4;fill-opacity:1;fill-rule:nonzero;stroke:none;stroke-width:0.26370788;stroke-miterlimit:4;stroke-dasharray:none;stroke-opacity:0"
       d="m 23.081287,283.89253 c -0.05175,-0.0751 -0.224929,-0.13654 -0.384872,-0.13654 -0.698319,0 -2.435832,-1.2578 -2.829156,-2.04804 -0.09336,-0.18773 -0.259867,-0.51153 -0.369835,-0.71956 -0.153603,-0.29058 -0.15832,-0.41557 -0.02033,-0.53933 0.122732,-0.11011 0.17957,-0.84062 0.17957,-2.30787 v -2.14681 l 0.453597,0.20299 c 0.249478,0.11164 0.492041,0.25879 0.539029,0.32699 0.125669,0.1824 1.405165,0.6758 2.279823,0.87914 1.459075,0.3392 2.154945,0.36897 3.22885,0.1381 1.064884,-0.22892 3.544351,-1.24424 3.544351,-1.45139 0,-0.0641 0.0519,-0.11676 0.11528,-0.11676 0.0634,0 0.091,0.69122 0.0611,1.53603 -0.0379,1.0776 0.0154,1.77436 0.17864,2.33456 0.24945,0.85589 0.23781,0.94558 -0.23663,1.82238 -0.56797,1.04967 -1.28844,1.57051 -3.055539,2.20886 -0.528457,0.1909 -3.554448,0.20507 -3.683853,0.0172 z"
       id="path1326"
       inkscape:connector-curvature="0"
       clip-path="url(#clipPath21)" />
    <path
       style="opacity:1;fill:#333333;fill-opacity:1;fill-rule:nonzero;stroke:none;stroke-width:0.26370788;stroke-miterlimit:4;stroke-dasharray:none;stroke-opacity:0"
       d="m 10.767229,279.22668 c -0.047,-0.6253 -0.08466,-1.47485 -0.08394,-1.88787 6.32e-4,-0.41302 -0.06616,-1.30391 -0.148688,-1.97976 -0.08263,-0.67586 -0.18034,-2.45766 -0.217335,-3.95954 -0.03693,-1.5019 -0.136067,-3.03792 -0.220163,-3.4134 -0.1980742,-0.88441 -0.1014242,-6.50139 0.125572,-7.30467 0.09556,-0.33792 0.141331,-0.83913 0.101686,-1.11378 -0.03958,-0.27467 -0.0044,-0.55971 0.07741,-0.63341 0.08222,-0.0737 0.163752,-0.38447 0.181292,-0.69057 0.01745,-0.3061 0.07993,-0.59963 0.13864,-0.65231 0.05879,-0.0527 0.106826,-0.29693 0.106826,-0.54282 0,-0.24588 0.06847,-0.48504 0.152206,-0.53145 0.08373,-0.0464 0.152207,-0.20447 0.152207,-0.35124 0,-0.14678 0.06296,-0.37356 0.139772,-0.50396 0.202004,-0.34265 0.773469,-1.52008 0.773469,-1.59364 0,-0.13344 1.134595,-1.80541 1.488421,-2.19337 1.663033,-1.82349 3.153382,-3.00387 4.409595,-3.49247 0.272066,-0.10577 0.494668,-0.23883 0.494668,-0.2956 0,-0.0568 0.136988,-0.10322 0.304415,-0.10322 0.167431,0 0.304416,-0.0615 0.304416,-0.13654 0,-0.0751 0.205479,-0.13653 0.456619,-0.13653 0.251139,0 0.456622,-0.068 0.456622,-0.15115 0,-0.0831 0.103373,-0.11558 0.229632,-0.0721 0.126295,0.0434 0.417392,0.0121 0.646878,-0.0699 0.229486,-0.0818 0.641302,-0.16949 0.915147,-0.1947 0.273847,-0.0252 0.567636,-0.0844 0.652868,-0.13175 0.284417,-0.15769 4.81505,-0.095 5.161673,0.0713 0.180216,0.0865 0.511717,0.14441 0.736677,0.12864 0.22496,-0.0158 0.58025,0.0333 0.78953,0.10923 0.20928,0.0759 0.45921,0.111 0.55538,0.0782 0.0962,-0.0329 0.22008,0.007 0.27535,0.0862 0.0553,0.0802 0.26363,0.14583 0.46303,0.14583 0.1994,0 0.40488,0.0616 0.45662,0.13654 0.0518,0.0751 0.22701,0.13654 0.3895,0.13654 0.16248,0 0.29543,0.0614 0.29543,0.13653 0,0.0751 0.137,0.13655 0.30438,0.13655 0.16746,0 0.30445,0.0614 0.30445,0.13653 0,0.0751 0.0813,0.13653 0.18079,0.13653 0.19023,0 1.73531,1.04858 2.32653,1.57895 0.1908,0.1711 0.50757,0.5156 0.70405,0.76556 0.19646,0.24996 0.47895,0.57358 0.62771,0.71916 0.14878,0.14557 0.27051,0.31711 0.27051,0.38119 0,0.0641 0.137,0.2484 0.30441,0.4096 0.16741,0.16121 0.30441,0.37368 0.30441,0.47216 0,0.0986 0.0799,0.17907 0.17756,0.17907 0.0972,0 0.13178,0.0411 0.076,0.0913 -0.055,0.0502 0.0114,0.20382 0.15047,0.34133 0.13873,0.13751 0.19674,0.25001 0.12892,0.25001 -0.0685,0 6e-4,0.12289 0.1522,0.27309 0.15153,0.15018 0.22277,0.27307 0.1583,0.27307 -0.0654,0 -0.003,0.15533 0.13491,0.34519 0.1387,0.18986 0.21583,0.39794 0.1714,0.46241 -0.0441,0.0644 0.0253,0.19545 0.15277,0.2911 0.12848,0.0957 0.19641,0.26075 0.15099,0.36694 -0.0451,0.10622 0.0248,0.28859 0.1541,0.40534 0.13009,0.11674 0.20139,0.29459 0.15829,0.39524 -0.0429,0.10067 0.0207,0.35384 0.14152,0.56268 0.12084,0.20882 0.18178,0.48721 0.13533,0.61863 -0.046,0.13141 -0.0181,0.23893 0.0621,0.23893 0.0802,0 0.18686,0.23041 0.23701,0.51201 0.4104,2.30328 0.46267,3.01883 0.45644,6.24652 -0.008,4.53011 -0.44931,12.67176 -0.66853,12.35363 -0.0602,-0.0873 -0.10176,0.38452 -0.0911,1.04848 0.0114,0.80697 -0.0562,1.35292 -0.20771,1.64671 l -0.22534,0.43951 -3.97463,0.0384 -3.97458,0.0384 -0.20119,-1.21868 c -0.16258,-0.98485 -0.16506,-1.41714 -0.0129,-2.25285 0.17048,-0.93648 0.24832,-1.08675 0.82427,-1.59123 0.87049,-0.76242 1.47324,-1.39519 1.47324,-1.54666 0,-0.0696 0.0603,-0.14682 0.13344,-0.17185 0.29388,-0.10022 2.1023,-2.78685 2.60398,-3.86851 0.10541,-0.22529 0.25052,-0.5163 0.32443,-0.64669 0.0743,-0.1304 0.13448,-0.3608 0.13448,-0.51201 0,-0.15121 0.0692,-0.27494 0.15222,-0.27494 0.0835,0 0.15221,-0.0922 0.15221,-0.2048 0,-0.11264 0.10461,-0.2048 0.23032,-0.2048 1.28683,0 2.66158,-2.32823 2.66158,-4.50743 0,-1.50335 -0.64193,-2.76742 -1.29179,-2.54372 -0.17273,0.0594 -0.23026,0.30008 -0.23026,0.96296 0,0.48605 -0.0692,0.92169 -0.15222,0.9681 -0.0835,0.0464 -0.15221,0.29581 -0.15221,0.5542 0,0.2584 -0.0692,0.46981 -0.1522,0.46981 -0.0835,0 -0.15221,0.0931 -0.15221,0.20666 0,0.35622 -0.70063,1.29525 -0.96644,1.29525 -0.0795,0 -0.0879,-0.30299 -0.0206,-0.71682 0.22957,-1.40934 0.0828,-3.94766 -0.24581,-4.25992 -0.0754,-0.0713 -0.1366,-0.22805 -0.1366,-0.34825 0,-0.44063 -0.37777,-0.95352 -0.7031,-0.9546 -0.39018,-10e-4 -0.55877,0.65143 -0.36612,1.41762 l 0.12389,0.49282 h -9.497018 -9.496892 v -0.53809 c 0,-0.29594 -0.06847,-0.57605 -0.152206,-0.62246 -0.08374,-0.0464 -0.152205,-0.20148 -0.152205,-0.34459 0,-0.26699 -0.535745,-0.6254 -0.658988,-0.44087 -0.450774,0.67497 -0.710873,1.1787 -0.710873,1.37671 0,0.13289 -0.06017,0.29998 -0.133727,0.37132 -0.07346,0.0713 -0.202668,0.56148 -0.286926,1.0892 -0.149292,0.935 -0.113253,1.2491 0.359085,3.13659 l 0.10261,0.4096 -0.33178,-0.33522 c -0.81586,-0.82433 -1.535658,-2.29999 -1.535658,-3.14827 0,-0.51615 -0.412061,-1.18905 -0.612099,-0.99956 -0.06612,0.0627 -0.263688,0.34618 -0.439005,0.63006 -0.268903,0.43544 -0.318759,0.74916 -0.318759,2.00585 0,0.84584 0.06572,1.52615 0.152211,1.57407 0.08373,0.0464 0.152205,0.19322 0.152205,0.32625 0,0.29978 0.631095,1.43496 1.002331,1.80292 0.151448,0.15013 0.518702,0.36736 0.816115,0.48274 0.901107,0.3496 0.995604,0.41115 1.043273,0.67958 0.05605,0.31556 0.192892,0.62536 0.617423,1.39776 0.179313,0.32624 0.326025,0.67953 0.326025,0.78509 0,0.10555 0.06847,0.1919 0.152209,0.1919 0.08374,0 0.152206,0.12287 0.152206,0.27306 0,0.15019 0.05573,0.27308 0.123798,0.27308 0.06808,0 0.217857,0.21504 0.332822,0.47787 0.11502,0.26283 0.26473,0.47787 0.332822,0.47787 0.06809,0 0.124238,0.0768 0.124772,0.17068 0.0011,0.23851 1.114383,1.50199 2.23727,2.5397 0.90683,0.83805 0.95202,0.91309 1.133526,1.88207 0.148141,0.79088 0.149614,1.18046 0.0064,1.80068 -0.100217,0.43529 -0.182238,0.98743 -0.182238,1.22696 v 0.43553 h -3.945087 c -2.169706,0 -4.047885,0.0354 -4.17373,0.0788 -0.188488,0.0649 -0.243831,-0.12154 -0.314128,-1.05814 z"
       id="path1328"
       inkscape:connector-curvature="0"
       clip-path="url(#clipPath17)" />
  </g>
</svg>
