<?xml version="1.0" encoding="UTF-8" standalone="no"?>
<!-- Created with Inkscape (http://www.inkscape.org/) -->

<svg
   xmlns:dc="http://purl.org/dc/elements/1.1/"
   xmlns:cc="http://creativecommons.org/ns#"
   xmlns:rdf="http://www.w3.org/1999/02/22-rdf-syntax-ns#"
   xmlns:svg="http://www.w3.org/2000/svg"
   xmlns="http://www.w3.org/2000/svg"
   xmlns:sodipodi="http://sodipodi.sourceforge.net/DTD/sodipodi-0.dtd"
   xmlns:inkscape="http://www.inkscape.org/namespaces/inkscape"
   width="50mm"
   height="50mm"
   viewBox="0 0 50 50"
   version="1.1"
   id="svg467"
   inkscape:version="0.92.1 r15371"
   sodipodi:docname="female-1.svg">
  <defs
     id="defs461">
    <clipPath
       clipPathUnits="userSpaceOnUse"
       id="clipPath74">
      <circle
         style="opacity:1;fill:#ff6600;fill-opacity:1;fill-rule:nonzero;stroke:none;stroke-width:3.93456244;stroke-miterlimit:4;stroke-dasharray:none;stroke-opacity:0"
         id="circle76"
         cx="25"
         cy="272"
         r="25" />
    </clipPath>
    <clipPath
       clipPathUnits="userSpaceOnUse"
       id="clipPath78">
      <circle
         style="opacity:1;fill:#ff6600;fill-opacity:1;fill-rule:nonzero;stroke:none;stroke-width:3.93456244;stroke-miterlimit:4;stroke-dasharray:none;stroke-opacity:0"
         id="circle80"
         cx="25"
         cy="272"
         r="25" />
    </clipPath>
    <clipPath
       clipPathUnits="userSpaceOnUse"
       id="clipPath82">
      <circle
         style="opacity:1;fill:#ff6600;fill-opacity:1;fill-rule:nonzero;stroke:none;stroke-width:3.93456244;stroke-miterlimit:4;stroke-dasharray:none;stroke-opacity:0"
         id="circle84"
         cx="25"
         cy="272"
         r="25" />
    </clipPath>
    <clipPath
       clipPathUnits="userSpaceOnUse"
       id="clipPath86">
      <circle
         style="opacity:1;fill:#ff6600;fill-opacity:1;fill-rule:nonzero;stroke:none;stroke-width:3.93456244;stroke-miterlimit:4;stroke-dasharray:none;stroke-opacity:0"
         id="circle88"
         cx="25"
         cy="272"
         r="25" />
    </clipPath>
    <clipPath
       clipPathUnits="userSpaceOnUse"
       id="clipPath90">
      <circle
         style="opacity:1;fill:#ff6600;fill-opacity:1;fill-rule:nonzero;stroke:none;stroke-width:3.93456244;stroke-miterlimit:4;stroke-dasharray:none;stroke-opacity:0"
         id="circle92"
         cx="25"
         cy="272"
         r="25" />
    </clipPath>
    <clipPath
       clipPathUnits="userSpaceOnUse"
       id="clipPath94">
      <circle
         style="opacity:1;fill:#ff6600;fill-opacity:1;fill-rule:nonzero;stroke:none;stroke-width:3.93456244;stroke-miterlimit:4;stroke-dasharray:none;stroke-opacity:0"
         id="circle96"
         cx="25"
         cy="272"
         r="25" />
    </clipPath>
    <clipPath
       clipPathUnits="userSpaceOnUse"
       id="clipPath98">
      <circle
         style="opacity:1;fill:#ff6600;fill-opacity:1;fill-rule:nonzero;stroke:none;stroke-width:3.93456244;stroke-miterlimit:4;stroke-dasharray:none;stroke-opacity:0"
         id="circle100"
         cx="25"
         cy="272"
         r="25" />
    </clipPath>
  </defs>
  <sodipodi:namedview
     id="base"
     pagecolor="#ffffff"
     bordercolor="#666666"
     borderopacity="1.0"
     inkscape:pageopacity="0.0"
     inkscape:pageshadow="2"
     inkscape:zoom="1.36525"
     inkscape:cx="186.6165"
     inkscape:cy="24.920643"
     inkscape:document-units="mm"
     inkscape:current-layer="layer1"
     showgrid="false"
     inkscape:window-width="1024"
     inkscape:window-height="715"
     inkscape:window-x="-8"
     inkscape:window-y="-8"
     inkscape:window-maximized="1"
     showborder="false" />
  <metadata
     id="metadata464">
    <rdf:RDF>
      <cc:Work
         rdf:about="">
        <dc:format>image/svg+xml</dc:format>
        <dc:type
           rdf:resource="http://purl.org/dc/dcmitype/StillImage" />
        <dc:title />
      </cc:Work>
    </rdf:RDF>
  </metadata>
  <g
     inkscape:label="Layer 1"
     inkscape:groupmode="layer"
     id="layer1"
     transform="translate(0,-247)">
    <circle
       r="25"
       cy="272"
       cx="25"
       id="circle72"
       style="opacity:1;fill:#ff6600;fill-opacity:1;fill-rule:nonzero;stroke:none;stroke-width:3.93456244;stroke-miterlimit:4;stroke-dasharray:none;stroke-opacity:0" />
    <path
       style="opacity:1;fill:#6600ff;fill-opacity:1;fill-rule:nonzero;stroke:none;stroke-width:0.21261115;stroke-miterlimit:4;stroke-dasharray:none;stroke-opacity:0"
       d="m 1.000013,295.21427 c 0,-1.73296 0.06276,-2.30674 0.431529,-3.94541 0.384278,-1.70756 1.118691,-3.07661 2.15312,-4.01373 0.513011,-0.46475 1.400052,-0.94599 1.743676,-0.94599 0.09488,0 0.202052,-0.0458 0.238174,-0.10169 0.03612,-0.0559 0.266503,-0.12851 0.511962,-0.16129 0.411781,-0.055 0.841828,-0.14835 1.931436,-0.41931 0.228714,-0.0569 0.576239,-0.13514 0.772279,-0.17391 0.19604,-0.0388 0.463367,-0.10881 0.594057,-0.15562 1.309717,-0.46914 3.990221,-1.29159 4.248838,-1.30365 0.209361,-0.01 0.307428,-0.0667 0.271056,-0.15743 -0.03134,-0.0782 0.02226,-0.14212 0.119111,-0.14212 0.09685,0 0.289292,-0.064 0.427635,-0.14212 0.202981,-0.11469 0.262303,-0.11358 0.307313,0.006 0.09954,0.26384 2.931849,4.26318 3.599173,5.08219 2.026513,2.48712 4.256215,4.67099 5.798815,5.67962 l 0.844113,0.55193 0.508804,-0.32013 c 1.465176,-0.92186 3.465598,-2.76138 5.068443,-4.66076 1.15479,-1.36845 1.10709,-1.30992 1.43633,-1.7623 0.15929,-0.21886 0.3252,-0.42352 0.36872,-0.45478 0.0663,-0.0477 1.6926,-2.35606 2.07096,-2.93964 0.0654,-0.10079 0.26583,-0.39798 0.44554,-0.66041 0.1797,-0.26243 0.32673,-0.53105 0.32673,-0.59694 0,-0.0758 0.14167,-0.0614 0.38613,0.0394 0.21238,0.0876 0.57328,0.23611 0.80199,0.33009 1.01978,0.41902 2.26787,0.86177 3.08911,1.09582 0.49009,0.13968 1.02475,0.29388 1.18812,0.34266 0.31133,0.093 0.96125,0.25936 1.81187,0.46386 0.27773,0.0668 0.66914,0.1691 0.86983,0.2274 0.20068,0.0583 0.4821,0.10599 0.62537,0.10599 0.14328,0 0.35334,0.0452 0.46681,0.10043 0.11347,0.0552 0.33998,0.15072 0.50334,0.21218 0.69489,0.26143 0.95906,0.42543 1.50363,0.93345 0.76305,0.71186 0.88013,0.86095 1.25363,1.59635 0.43386,0.85423 0.56935,1.20255 0.75352,1.93712 0.35225,1.40493 0.52883,2.90265 0.52883,4.4855 v 1.64982 h -3.9208 -3.92079 v -0.27753 c 0,-0.15264 -0.0534,-0.30915 -0.11881,-0.3478 -0.0654,-0.0386 -0.11881,-0.2433 -0.11881,-0.45479 0,-0.21148 -0.0534,-0.41613 -0.11881,-0.45478 -0.0654,-0.0386 -0.11881,-0.21051 -0.11881,-0.38191 0,-0.1714 -0.049,-0.36024 -0.10875,-0.41965 -0.0598,-0.0594 -0.12665,-0.23592 -0.14852,-0.39225 -0.0608,-0.43436 -0.28235,-0.22591 -0.24173,0.22739 0.0197,0.21886 0.0634,0.8712 0.0973,1.44963 l 0.0616,1.05169 H 25.000006 9.656971 l 0.0616,-1.05169 c 0.03388,-0.57843 0.07765,-1.2425 0.09726,-1.47571 0.02002,-0.23806 -0.01645,-0.41552 -0.08316,-0.40465 -0.135725,0.0221 -0.261651,0.37953 -0.812753,2.30672 L 8.757353,296.94 4.878675,296.97 1,297 Z"
       id="path480"
       inkscape:connector-curvature="0"
       clip-path="url(#clipPath98)" />
    <path
       style="opacity:1;fill:#333333;fill-opacity:1;fill-rule:nonzero;stroke:none;stroke-width:0.21261115;stroke-miterlimit:4;stroke-dasharray:none;stroke-opacity:0"
       d="m 13.831692,283.45406 c 0,-0.0945 -0.09356,-0.27108 -0.207921,-0.39237 -0.114357,-0.12129 -0.318882,-0.42512 -0.454498,-0.67519 -0.13562,-0.25007 -0.303532,-0.557 -0.373138,-0.68207 -0.119537,-0.21478 -0.26242,-0.51441 -0.853344,-1.78947 -0.137341,-0.29635 -0.249713,-0.60589 -0.249713,-0.68787 0,-0.082 -0.04443,-0.19765 -0.09873,-0.25705 -0.0543,-0.0594 -0.197003,-0.44058 -0.317115,-0.84704 -0.120111,-0.40647 -0.262813,-0.78763 -0.317113,-0.84704 -0.0543,-0.0594 -0.09873,-0.26662 -0.09873,-0.46047 0,-0.19385 -0.04799,-0.40106 -0.106643,-0.46047 -0.09983,-0.10111 -0.151261,-0.35467 -0.315941,-1.55764 -0.03638,-0.26576 -0.114356,-0.58554 -0.173277,-0.7106 -0.05891,-0.12507 -0.136633,-0.55996 -0.172697,-0.96642 -0.03606,-0.40647 -0.12526,-1.37857 -0.198216,-2.16023 -0.228942,-2.45297 -0.130181,-8.07172 0.146787,-8.351 0.05891,-0.0594 0.107116,-0.35057 0.107116,-0.64704 0,-0.29647 0.05346,-0.57066 0.118813,-0.60931 0.06535,-0.0386 0.118811,-0.26888 0.118811,-0.51163 0,-0.24275 0.05346,-0.47298 0.118812,-0.51163 0.06535,-0.0387 0.118812,-0.21772 0.118812,-0.39794 0,-0.18022 0.05346,-0.35929 0.118812,-0.39794 0.06535,-0.0386 0.118811,-0.21771 0.118811,-0.39793 0,-0.18022 0.04754,-0.35579 0.105651,-0.39016 0.05811,-0.0344 0.140805,-0.19652 0.183771,-0.36034 0.186145,-0.70972 1.651602,-3.56804 1.878896,-3.66471 0.04901,-0.0208 0.08911,-0.13596 0.08911,-0.25582 0,-0.11985 0.04443,-0.21792 0.09874,-0.21792 0.0543,0 0.174234,-0.1407 0.266514,-0.31266 0.09228,-0.17197 0.248934,-0.38941 0.348121,-0.48321 0.09919,-0.0938 0.331799,-0.36529 0.516912,-0.60331 0.46302,-0.59535 2.420331,-2.47383 2.928131,-2.81019 0.228713,-0.1515 0.519488,-0.36638 0.646166,-0.47751 0.126678,-0.11113 0.295987,-0.20206 0.376238,-0.20206 0.08025,0 0.163734,-0.0414 0.185516,-0.092 0.03713,-0.0862 0.630943,-0.42236 1.88119,-1.06484 0.294058,-0.15111 0.775248,-0.34527 1.069306,-0.43146 0.29406,-0.0862 0.585444,-0.19898 0.647525,-0.25064 0.06208,-0.0517 0.251882,-0.0939 0.42178,-0.0939 0.169901,0 0.359705,-0.0464 0.421783,-0.10321 0.245284,-0.2243 3.690023,-0.44165 3.894746,-0.24575 0.06987,0.0669 0.35378,0.12157 0.630914,0.12157 0.277134,0 0.536923,0.0512 0.57731,0.1137 0.04039,0.0625 0.171776,0.11369 0.291976,0.11369 0.30306,0 1.505126,0.61991 2.087341,1.07645 0.394502,0.30935 0.613545,0.38937 1.19067,0.435 0.38898,0.0307 0.86764,0.0911 1.06368,0.13403 0.4054,0.0889 1.7818,0.71312 2.13768,0.96954 0.50271,0.36222 2.08013,1.96735 2.08013,2.11667 0,0.0865 0.0534,0.15726 0.11881,0.15726 0.0654,0 0.11882,0.0725 0.11882,0.16107 0,0.0886 0.0406,0.17812 0.0902,0.19896 0.0846,0.0355 1.00117,1.77812 1.23096,2.34025 0.0575,0.1407 0.15473,0.37094 0.21602,0.51164 0.14689,0.3372 0.64643,1.82695 0.8292,2.47289 0.0796,0.2814 0.19461,0.66876 0.25553,0.8608 0.0609,0.19204 0.11076,0.50879 0.11076,0.70389 0,0.1951 0.0534,0.38635 0.11881,0.425 0.0654,0.0386 0.11881,0.34563 0.11881,0.68218 0,0.33655 0.0534,0.64353 0.11881,0.68217 0.0654,0.0386 0.11882,0.41517 0.11882,0.8367 0,0.42153 0.0495,0.81503 0.10996,0.87444 0.12724,0.12501 0.25971,2.40198 0.26424,4.54217 0.003,1.5315 -0.1547,3.73551 -0.36661,5.11633 -0.0672,0.43773 -0.15502,1.05169 -0.1952,1.36436 -0.0402,0.31266 -0.12133,0.61708 -0.18034,0.67649 -0.059,0.0594 -0.1073,0.23485 -0.1073,0.38987 0,0.2936 -0.0113,0.33487 -0.54957,2.00344 -0.45754,1.41831 -0.96738,2.6372 -1.61699,3.86567 -0.19839,0.3752 -0.42029,0.7969 -0.49312,0.93711 -0.0728,0.14022 -0.17249,0.25533 -0.22151,0.25582 -0.049,4.7e-4 -0.0891,0.077 -0.0891,0.17013 0,0.0931 -0.0774,0.25937 -0.17185,0.36952 -0.0945,0.11014 -0.27358,0.32424 -0.39795,0.47577 l -0.22611,0.27551 -0.81987,-0.39966 c -1.18156,-0.57598 -1.88043,-0.93806 -1.94857,-1.00956 -0.0326,-0.0343 -0.24654,-0.18495 -0.47526,-0.33483 -1.0643,-0.69746 -2.089574,-1.59539 -2.53005,-2.21583 -0.307651,-0.43335 -0.321426,-0.51463 -0.321426,-1.89667 v -1.44392 l 0.386139,-0.25787 c 0.523613,-0.34969 2.824077,-2.56069 3.178437,-3.0548 0.15695,-0.21887 0.31898,-0.42352 0.36006,-0.45479 0.1881,-0.14314 1.37396,-1.92889 1.76479,-2.65755 0.61915,-1.15432 0.58385,-1.11459 0.86319,-0.97153 0.44347,0.22712 1.2638,-0.10357 2.00121,-0.80672 0.68252,-0.6508 1.42637,-1.86706 1.42637,-2.33223 0,-0.14725 0.0536,-0.29935 0.11881,-0.33799 0.14674,-0.0868 0.15792,-1.57812 0.0138,-1.84911 -0.0577,-0.10858 -0.17239,-0.33581 -0.25482,-0.50495 -0.16982,-0.34844 -0.82524,-0.6914 -1.21893,-0.63782 -0.22635,0.0308 -0.27474,0.13058 -0.34819,0.71795 -0.0976,0.78004 -0.27475,1.9245 -0.41367,2.67187 l -0.0951,0.51163 -0.26732,-0.35864 c -0.14703,-0.19725 -0.26732,-0.4147 -0.26732,-0.48321 0,-0.0685 -0.0536,-0.12457 -0.11881,-0.12457 -0.0654,0 -0.11881,-0.0981 -0.11881,-0.21792 0,-0.11985 -0.0401,-0.23497 -0.0891,-0.25582 -0.10641,-0.0453 -0.93658,-1.69984 -1.21698,-2.42552 -0.0483,-0.12506 -0.14208,-0.3553 -0.20835,-0.51163 -0.0662,-0.15633 -0.21257,-0.51448 -0.32512,-0.79588 -0.11255,-0.28139 -0.25262,-0.60047 -0.31126,-0.70905 -0.0587,-0.10859 -0.10661,-0.29743 -0.10661,-0.41965 0,-0.12223 -0.0535,-0.25385 -0.11882,-0.2925 -0.0654,-0.0386 -0.11881,-0.19214 -0.11881,-0.34109 0,-0.14895 -0.0534,-0.30244 -0.11881,-0.34109 -0.0654,-0.0386 -0.11881,-0.21772 -0.11881,-0.39794 0,-0.18021 -0.0534,-0.35928 -0.1188,-0.39793 -0.0654,-0.0386 -0.11881,-0.21772 -0.11881,-0.39794 0,-0.18022 -0.0535,-0.35929 -0.11882,-0.39794 -0.0654,-0.0386 -0.11881,-0.21772 -0.11881,-0.39793 0,-0.18022 -0.0535,-0.35929 -0.11882,-0.39794 -0.0654,-0.0387 -0.11999,-0.23353 -0.12145,-0.43307 -0.003,-0.41208 -0.41698,-1.00663 -0.56084,-0.80546 -0.3857,0.53934 -2.105388,2.38137 -2.941475,3.15073 -1.023376,0.94172 -1.728261,1.55355 -2.316821,2.01097 -0.359407,0.27932 -0.680198,0.53444 -0.712873,0.56692 -0.08158,0.0811 -0.942018,0.70171 -1.262339,0.91049 -0.143915,0.0938 -0.509563,0.33682 -0.812549,0.54005 -0.302986,0.20324 -0.591588,0.36952 -0.641335,0.36952 -0.04975,0 -0.194153,0.0895 -0.320897,0.19896 -0.728061,0.62862 -3.610715,1.88406 -5.822797,2.53592 -0.346712,0.10217 -2.070771,0.15565 -2.070771,0.0642 0,-0.0238 0.46691,-0.47149 1.037577,-0.99485 2.91936,-2.67731 6.062728,-5.769 6.68519,-6.57527 0.163368,-0.21161 0.403961,-0.491 0.534655,-0.62088 0.130693,-0.12987 0.558417,-0.64543 0.950496,-1.14568 0.392078,-0.50026 0.752968,-0.92661 0.80198,-0.94745 0.04902,-0.0209 0.08911,-0.10074 0.08911,-0.17753 0,-0.0768 0.09356,-0.24142 0.207922,-0.36583 0.114357,-0.12441 0.274752,-0.33871 0.356435,-0.47622 0.08169,-0.13752 0.215345,-0.36317 0.297029,-0.50145 0.08169,-0.13828 0.214024,-0.31974 0.294085,-0.40324 0.08006,-0.0835 0.234666,-0.3315 0.34356,-0.55109 0.369552,-0.74524 0.01938,-0.64863 -0.976392,0.26938 -0.524715,0.48374 -1.269693,1.13534 -1.655507,1.448 -0.385811,0.31267 -2.494194,2.27269 -4.685294,4.3556 -4.355515,4.14048 -4.581327,4.34863 -6.069384,5.59461 -1.388679,1.16278 -1.936393,1.58686 -2.051629,1.58855 -0.05367,7e-4 -0.177794,0.0782 -0.275814,0.17197 -0.437386,0.41855 -0.519497,0.0894 -0.55308,-2.21708 -0.02319,-1.59334 -0.03259,-1.64977 -0.280107,-1.68352 -0.271599,-0.037 -0.872612,0.58563 -0.872612,0.90406 0,0.091 -0.0585,0.22148 -0.129999,0.2899 -0.195138,0.18674 -0.03412,1.72385 0.247802,2.36555 0.05494,0.12506 0.1709,0.39367 0.257676,0.5969 0.08678,0.20323 0.198189,0.36952 0.247584,0.36952 0.04939,0 0.08981,0.0729 0.08981,0.16209 0,0.47639 1.889079,1.81562 2.484893,1.76163 0.364704,-0.033 0.485402,0.0108 0.485402,0.1762 0,0.0919 0.11449,0.3605 0.254421,0.59691 0.139934,0.2364 0.387267,0.66005 0.549632,0.94145 0.162364,0.2814 0.395399,0.61726 0.517855,0.74635 0.122454,0.1291 0.222646,0.28573 0.222646,0.34808 0,0.0623 0.09356,0.21258 0.207921,0.33385 0.114357,0.12128 0.364789,0.42511 0.556516,0.67519 0.434621,0.5669 3.47396,3.46765 3.633327,3.46765 0.07079,0 0.117088,0.57394 0.117088,1.45166 0,1.38752 -0.01408,1.4715 -0.318794,1.90061 -0.379259,0.53409 -0.836102,0.97771 -1.641443,1.5939 -0.326645,0.24992 -0.66112,0.51501 -0.743278,0.58908 -0.08216,0.0741 -0.255992,0.16705 -0.386297,0.20663 -0.130308,0.0396 -0.236922,0.11347 -0.236922,0.1642 0,0.0507 -0.160394,0.15582 -0.356434,0.23352 -0.19604,0.0777 -0.356437,0.18624 -0.356437,0.24119 0,0.055 -0.10693,0.0999 -0.237623,0.0999 -0.130692,0 -0.237624,0.0512 -0.237624,0.1137 0,0.0625 -0.10693,0.1137 -0.237623,0.1137 -0.130694,0 -0.237624,0.0512 -0.237624,0.11369 0,0.0625 -0.106932,0.1137 -0.237622,0.1137 -0.130694,0 -0.237627,0.0512 -0.237627,0.11369 0,0.0625 -0.09624,0.1137 -0.213861,0.1137 -0.117622,0 -0.278017,0.0614 -0.356435,0.13644 -0.110891,0.10611 -0.142573,0.0982 -0.142573,-0.0354 z"
       id="path482"
       inkscape:connector-curvature="0"
       clip-path="url(#clipPath94)" />
    <path
       style="opacity:1;fill:#ff0066;fill-opacity:1;fill-rule:nonzero;stroke:none;stroke-width:0.21261115;stroke-miterlimit:4;stroke-dasharray:none;stroke-opacity:0"
       d="m 24.524759,274.17013 c -0.398721,-0.0321 -0.550982,-0.0794 -1.275781,-0.39602 -0.732933,-0.32022 -1.813327,-1.64491 -1.813327,-2.22335 0,-0.21803 0.204312,-0.42064 0.681556,-0.6759 0.282893,-0.15131 1.597464,-0.19726 1.740041,-0.0608 0.04673,0.0447 0.309603,0.13525 0.584159,0.20118 0.492793,0.11832 1.49118,0.002 1.69797,-0.19721 0.144575,-0.13954 1.456223,-0.0968 1.743429,0.0568 0.786417,0.42062 0.842271,0.65049 0.366266,1.50738 -0.585289,1.05362 -1.587942,1.69814 -2.773818,1.78306 -0.294059,0.0211 -0.721782,0.0232 -0.950495,0.005 z m 2.135846,-1.38658 c 0.05226,-0.0809 0.153372,-0.11259 0.224702,-0.0704 0.143492,0.0849 1.441431,-0.78343 1.441431,-0.96429 0,-0.21781 -0.348081,-0.2387 -0.992136,-0.0595 -0.960077,0.26709 -3.304123,0.24256 -4.569845,-0.0478 -0.543248,-0.12463 -1.01107,-0.2266 -1.039602,-0.2266 -0.130482,0 -0.03313,0.44184 0.12503,0.56745 0.0973,0.0773 0.146791,0.18713 0.10998,0.24413 -0.03682,0.057 -0.02285,0.0942 0.03101,0.0828 0.160942,-0.0343 0.563852,0.15977 0.704522,0.33933 0.07223,0.0922 0.208138,0.13943 0.302008,0.10496 0.09387,-0.0345 0.259041,-9.4e-4 0.367047,0.0747 0.28104,0.19665 3.165239,0.15752 3.295854,-0.0447 z"
       id="path484"
       inkscape:connector-curvature="0"
       clip-path="url(#clipPath90)" />
    <path
       style="opacity:1;fill:#ffdecc;fill-opacity:1;fill-rule:nonzero;stroke:none;stroke-width:0.21261115;stroke-miterlimit:4;stroke-dasharray:none;stroke-opacity:0"
       d="m 24.346541,278.12914 c -0.130693,-0.0571 -0.357695,-0.10745 -0.504448,-0.11185 -0.36171,-0.0108 -1.920745,-0.71005 -2.744783,-1.23103 -1.189472,-0.75201 -4.770568,-4.09708 -4.770568,-4.45614 0,-0.0552 -0.04678,-0.11744 -0.103942,-0.13828 -0.174992,-0.0638 -1.234948,-1.68982 -1.737708,-2.66571 l -0.475182,-0.92236 -0.622951,-0.0642 c -0.616927,-0.0636 -1.169906,-0.34201 -1.617338,-0.81441 -0.389122,-0.41082 -0.908226,-1.17835 -0.908226,-1.34286 0,-0.0877 -0.03664,-0.19459 -0.08143,-0.23745 -0.364592,-0.34889 -0.537054,-2.33709 -0.245307,-2.82796 0.457498,-0.76974 0.639447,-0.70086 0.593056,0.22454 -0.02116,0.4221 0.0038,1.33025 0.05552,2.01811 0.09131,1.21494 0.101805,1.24986 0.367352,1.22255 0.150345,-0.0155 0.595955,-0.23774 0.990238,-0.49397 1.200515,-0.78015 1.989295,-1.47219 6.277822,-5.50792 1.929446,-1.81571 3.935808,-3.68664 4.45858,-4.15761 0.522773,-0.47097 1.404951,-1.26922 1.960398,-1.77389 1.459963,-1.32649 1.782176,-1.57077 1.782176,-1.35108 0,0.0994 -0.05346,0.18065 -0.118811,0.18065 -0.06535,0 -0.118812,0.0547 -0.118812,0.12164 0,0.17783 -1.744513,2.56116 -2.227574,3.04328 -0.08374,0.0836 -0.29848,0.33905 -0.477194,0.56771 -0.178715,0.22866 -0.431865,0.52346 -0.56256,0.65512 -0.13069,0.13166 -0.531681,0.56525 -0.891087,0.96354 -0.842813,0.93399 -4.891119,4.8055 -6.154029,5.88527 -0.536075,0.45833 -0.974683,0.90952 -0.974683,1.00264 0,0.1413 0.181833,0.16115 1.099009,0.12001 0.604455,-0.0271 1.312873,-0.10508 1.574258,-0.17326 0.261387,-0.0682 0.635644,-0.15568 0.831684,-0.19446 0.196039,-0.0388 0.476731,-0.11781 0.623762,-0.17563 0.147029,-0.0578 0.387624,-0.14928 0.534652,-0.20324 0.901113,-0.3307 3.443683,-1.59623 3.51485,-1.74946 0.0218,-0.0469 0.09226,-0.0853 0.156604,-0.0853 0.143767,0 2.757332,-1.69565 3.249337,-2.10813 0.19604,-0.16435 0.536001,-0.43517 0.755471,-0.60183 1.58943,-1.2069 4.29597,-3.82075 5.11521,-4.94 0.1782,-0.24347 0.18135,-0.24181 0.28302,0.14886 0.0565,0.21729 0.1312,0.56183 0.1659,0.76564 0.0348,0.20381 0.11064,0.3987 0.16877,0.43308 0.0581,0.0344 0.10568,0.20995 0.10568,0.39017 0,0.18021 0.0535,0.35929 0.11882,0.39794 0.0654,0.0386 0.11881,0.21771 0.11881,0.39793 0,0.18022 0.0536,0.35929 0.11881,0.39794 0.0654,0.0387 0.11882,0.19214 0.11882,0.34109 0,0.14895 0.0534,0.30244 0.11881,0.34109 0.0654,0.0386 0.11881,0.19214 0.11881,0.34109 0,0.14895 0.0534,0.30244 0.1188,0.34108 0.0654,0.0387 0.11881,0.17028 0.11881,0.2925 0,0.12222 0.0493,0.31107 0.10933,0.41965 0.0601,0.10859 0.22666,0.50441 0.37009,0.87961 0.37422,0.97889 1.49661,3.33477 1.65212,3.46773 0.0366,0.0313 0.12497,0.15918 0.19645,0.28425 0.62942,1.10124 0.903,1.33176 1.04578,0.88114 0.12177,-0.38431 0.41764,-1.91368 0.5429,-2.80624 0.0696,-0.49601 0.15256,-0.92671 0.18434,-0.95712 0.11656,-0.11154 0.69645,0.27692 0.90804,0.60829 0.34829,0.54546 0.30328,1.97865 -0.0913,2.90798 -0.69665,1.64063 -1.85767,2.59949 -2.95661,2.44179 l -0.50861,-0.073 -0.5068,0.94305 c -0.61288,1.14043 -0.74946,1.38064 -0.82707,1.45467 -0.0327,0.0313 -0.13081,0.18938 -0.21785,0.35137 -0.0871,0.16199 -0.31406,0.46897 -0.50448,0.68218 -0.19043,0.21321 -0.34635,0.42466 -0.34651,0.46988 -9.4e-4,0.27659 -3.212711,3.31639 -4.526852,4.28447 -0.5188,0.38218 -2.455236,1.28599 -2.989454,1.3953 -0.829714,0.16976 -1.558342,0.20981 -1.8107,0.0995 z m 2.255819,-3.94142 c 0.552823,-0.25052 0.787529,-0.41769 1.311077,-0.93382 0.395925,-0.39032 1.007359,-1.46499 1.007359,-1.77055 0,-0.21016 -0.363347,-0.54804 -0.803984,-0.74764 -0.897926,-0.40674 -0.769495,-0.39493 -1.869283,-0.17184 -0.196038,0.0398 -0.471311,0.12548 -0.611712,0.19047 -0.270977,0.12544 -0.830125,0.0811 -1.705116,-0.1353 -0.868819,-0.21485 -1.391426,-0.25882 -1.478256,-0.12437 -0.04418,0.0684 -0.15851,0.12437 -0.254077,0.12437 -0.297483,0 -1.119153,0.58821 -1.119153,0.80118 0,0.39604 0.745018,1.5869 1.278814,2.04409 0.534764,0.45801 1.053041,0.72894 1.750889,0.91528 0.574111,0.15329 1.968543,0.046 2.493442,-0.19187 z"
       id="path486"
       inkscape:connector-curvature="0"
       clip-path="url(#clipPath86)" />
    <path
       style="opacity:1;fill:#ffdecc;fill-opacity:1;fill-rule:nonzero;stroke:none;stroke-width:0.21261115;stroke-miterlimit:4;stroke-dasharray:none;stroke-opacity:0"
       d="m 23.990106,294.14029 c -1.183516,-0.82385 -3.963148,-3.55551 -5.274092,-5.18306 -0.613623,-0.76181 -1.749934,-2.2906 -2.525136,-3.3973 -1.101948,-1.57316 -1.380276,-2.04582 -1.275713,-2.16638 0.07355,-0.0848 0.207392,-0.15422 0.297411,-0.15422 0.09002,0 0.16367,-0.0391 0.16367,-0.0869 0,-0.0478 0.200494,-0.17414 0.445545,-0.2808 0.47818,-0.20813 1.120857,-0.55806 1.21782,-0.6631 0.03268,-0.0354 0.317622,-0.23251 0.633217,-0.43804 0.608492,-0.39628 1.705942,-1.40244 2.245809,-2.05899 0.266948,-0.32464 0.324955,-0.51047 0.326734,-1.04673 l 0.0022,-0.65201 0.623762,0.45342 c 0.664445,0.48298 2.526412,1.40195 3.118811,1.53929 0.457605,0.10608 1.547835,0.10162 2.066824,-0.008 0.509044,-0.10797 2.269126,-0.97652 3.012655,-1.48665 0.310554,-0.21307 0.591242,-0.3874 0.623762,-0.3874 0.03249,0 0.05911,0.27967 0.05911,0.62149 0,0.55771 0.0457,0.67036 0.445552,1.09769 0.988756,1.0568 2.75573,2.48361 3.07921,2.48639 0.0762,7.1e-4 0.15643,0.0396 0.1782,0.0865 0.0353,0.0762 0.39138,0.27253 1.44044,0.79433 l 0.33153,0.16489 -0.32084,0.52945 c -0.61646,1.01727 -2.65527,3.83769 -3.751685,5.18995 -1.837858,2.26673 -5.515458,5.62844 -6.154879,5.6262 -0.09802,-2.3e-4 -0.552475,-0.26114 -1.0099,-0.57956 z"
       id="path488"
       inkscape:connector-curvature="0"
       clip-path="url(#clipPath82)" />
    <path
       style="opacity:1;fill:#f4d5c4;fill-opacity:1;fill-rule:nonzero;stroke:none;stroke-width:0.21261115;stroke-miterlimit:4;stroke-dasharray:none;stroke-opacity:0"
       d="m 23.871294,279.90333 c -0.719612,-0.23034 -2.174405,-0.95762 -2.940592,-1.47006 l -0.683169,-0.45692 v -0.7794 c 0,-0.42867 0.04106,-0.7794 0.09123,-0.7794 0.05018,0 0.277404,0.11964 0.504951,0.26587 0.665548,0.42769 2.024361,1.0768 2.730549,1.3044 0.852488,0.27474 1.843391,0.30782 2.618917,0.0874 0.707977,-0.2012 2.373166,-0.9819 2.905836,-1.36237 0.673552,-0.4811 0.653466,-0.49649 0.653466,0.50055 0,0.52891 -0.04635,0.89555 -0.108665,0.85872 -0.05975,-0.0353 -0.126602,-0.0226 -0.148521,0.0283 -0.07474,0.1736 -1.10698,0.78773 -2.231317,1.32749 -0.980668,0.47078 -1.235354,0.54431 -2.019802,0.58309 -0.55572,0.0275 -1.078661,-0.0135 -1.372883,-0.10773 z"
       id="path490"
       inkscape:connector-curvature="0"
       clip-path="url(#clipPath78)" />
    <path
       style="opacity:1;fill:#ffffff;fill-opacity:1;fill-rule:nonzero;stroke:none;stroke-width:0.0375847;stroke-miterlimit:4;stroke-dasharray:none;stroke-opacity:0"
       d="m 23.957905,272.92291 c -0.339327,-0.0288 -0.489788,-0.057 -0.605389,-0.1135 -0.134474,-0.0657 -0.246057,-0.0869 -0.345204,-0.0655 -0.113759,0.0246 -0.189339,0.002 -0.285716,-0.0868 -0.235855,-0.2163 -0.460722,-0.33703 -0.656698,-0.35258 l -0.110224,-0.009 0.01172,-0.0947 c 0.01123,-0.0908 0.0076,-0.0992 -0.08732,-0.20145 -0.119895,-0.12919 -0.179271,-0.25353 -0.194419,-0.40717 -0.0149,-0.15109 0.0074,-0.17808 0.12628,-0.15296 0.04876,0.0103 0.353298,0.0768 0.676745,0.14768 1.037998,0.2276 1.554378,0.27945 2.793424,0.28052 1.126159,9.4e-4 1.464457,-0.0293 2.142323,-0.19192 0.521705,-0.12513 0.7817,-0.12713 0.864188,-0.007 0.01985,0.029 0.02797,0.0677 0.02033,0.0969 -0.028,0.10676 -0.556877,0.51628 -0.987255,0.76444 -0.251251,0.14488 -0.341176,0.17689 -0.454917,0.16192 -0.08857,-0.0117 -0.103676,-0.007 -0.1841,0.0574 -0.101058,0.0808 -0.189553,0.10348 -0.570947,0.14638 -0.312728,0.0352 -1.831457,0.0541 -2.152826,0.0268 z"
       id="path1297"
       inkscape:connector-curvature="0"
       clip-path="url(#clipPath74)" />
  </g>
</svg>
