<?xml version="1.0" encoding="UTF-8" standalone="no"?>
<!-- Created with Inkscape (http://www.inkscape.org/) -->

<svg
   xmlns:dc="http://purl.org/dc/elements/1.1/"
   xmlns:cc="http://creativecommons.org/ns#"
   xmlns:rdf="http://www.w3.org/1999/02/22-rdf-syntax-ns#"
   xmlns:svg="http://www.w3.org/2000/svg"
   xmlns="http://www.w3.org/2000/svg"
   xmlns:sodipodi="http://sodipodi.sourceforge.net/DTD/sodipodi-0.dtd"
   xmlns:inkscape="http://www.inkscape.org/namespaces/inkscape"
   width="17mm"
   height="5mm"
   viewBox="0 0 17 5"
   version="1.1"
   id="svg8"
   inkscape:version="0.92.1 r15371"
   sodipodi:docname="logo.svg">
  <defs
     id="defs2" />
  <sodipodi:namedview
     id="base"
     pagecolor="#ffffff"
     bordercolor="#666666"
     borderopacity="1.0"
     inkscape:pageopacity="0.0"
     inkscape:pageshadow="2"
     inkscape:zoom="13.991791"
     inkscape:cx="32.12598"
     inkscape:cy="9.4488175"
     inkscape:document-units="mm"
     inkscape:current-layer="layer1"
     showgrid="false"
     inkscape:window-width="1024"
     inkscape:window-height="715"
     inkscape:window-x="-8"
     inkscape:window-y="-8"
     inkscape:window-maximized="1" />
  <metadata
     id="metadata5">
    <rdf:RDF>
      <cc:Work
         rdf:about="">
        <dc:format>image/svg+xml</dc:format>
        <dc:type
           rdf:resource="http://purl.org/dc/dcmitype/StillImage" />
        <dc:title></dc:title>
      </cc:Work>
    </rdf:RDF>
  </metadata>
  <g
     inkscape:label="Layer 1"
     inkscape:groupmode="layer"
     id="layer1"
     transform="translate(0,-292)">
    <rect
       style="opacity:1;fill:#00ff00;fill-opacity:1;fill-rule:nonzero;stroke:none;stroke-width:0.74814755;stroke-miterlimit:4;stroke-dasharray:none;stroke-opacity:0"
       id="rect14"
       width="3.5547597"
       height="3.5390086"
       x="0.73375618"
       y="292.7305"
       ry="0" />
    <rect
       ry="0"
       y="214.24103"
       x="199.37004"
       height="3.5461957"
       width="3.5475898"
       id="rect16"
       style="opacity:1;fill:#00ffff;fill-opacity:1;fill-rule:nonzero;stroke:none;stroke-width:0.74815124;stroke-miterlimit:4;stroke-dasharray:none;stroke-opacity:0"
       transform="matrix(0.73922969,0.67345339,-0.6767167,0.73624351,0,0)" />
    <path
       style="opacity:1;fill:#000080;fill-opacity:1;fill-rule:nonzero;stroke:none;stroke-width:0.04918629;stroke-miterlimit:4;stroke-dasharray:none;stroke-opacity:0"
       d="m 2.2594785,295.81141 c -0.423696,-0.0705 -0.735274,-0.32432 -0.891627,-0.72626 -0.08297,-0.21329 -0.104465,-0.74893 -0.04013,-1.00013 0.154732,-0.60421 0.628364,-0.94868 1.24166,-0.90305 0.265171,0.0197 0.469377,0.1035 0.647627,0.26569 0.254032,0.23114 0.371073,0.49596 0.405411,0.91727 l 0.01882,0.23089 h -0.960357 -0.960358 v 0.10211 c 0,0.15384 0.09897,0.41455 0.203554,0.53618 0.140856,0.16383 0.330843,0.24711 0.563017,0.24679 0.321836,-5.3e-4 0.543158,-0.14415 0.662029,-0.42986 0.03401,-0.0817 0.03769,-0.0832 0.17215,-0.0667 0.271971,0.0332 0.289423,0.0399 0.270144,0.10351 -0.03797,0.12524 -0.165223,0.32749 -0.274552,0.43636 -0.234402,0.23343 -0.669933,0.35174 -1.057383,0.28724 z m 0.916229,-1.63042 c 0,-0.15356 -0.09959,-0.37641 -0.214351,-0.47962 -0.135672,-0.12203 -0.186259,-0.14748 -0.357395,-0.17979 -0.298753,-0.0564 -0.610254,0.0836 -0.753103,0.33846 -0.0734,0.13095 -0.138445,0.37 -0.108735,0.39958 0.0079,0.008 0.33366,0.0143 0.723957,0.0143 h 0.709627 z"
       id="path18"
       inkscape:connector-curvature="0" />
    <path
       style="opacity:1;fill:#ff6600;fill-opacity:1;fill-rule:nonzero;stroke:none;stroke-width:0.04918629;stroke-miterlimit:4;stroke-dasharray:none;stroke-opacity:0"
       d="m 5.2102775,295.80307 c -0.334904,-0.0502 -0.548818,-0.14421 -0.762066,-0.33509 -0.172887,-0.15475 -0.325031,-0.4444 -0.347555,-0.66167 l -0.01547,-0.14924 0.191955,-0.0188 c 0.210171,-0.0206 0.245966,-0.0111 0.245966,0.0655 0,0.0281 0.0247,0.11679 0.05489,0.19712 0.134335,0.35745 0.548385,0.55188 1.107675,0.52013 0.208555,-0.0118 0.270688,-0.0272 0.422541,-0.10428 0.468221,-0.23774 0.463549,-0.76454 -0.0086,-0.97561 -0.07411,-0.0331 -0.310575,-0.10468 -0.525483,-0.15901 -0.785448,-0.19855 -1.05756,-0.32633 -1.212305,-0.56925 -0.11736,-0.18424 -0.143063,-0.28677 -0.129663,-0.51723 0.02017,-0.34681 0.198792,-0.59507 0.543795,-0.75581 0.211607,-0.0986 0.391478,-0.13169 0.715345,-0.13169 0.697823,0 1.162453,0.32081 1.266325,0.87434 0.01359,0.0724 0.02169,0.13469 0.01799,0.13837 -0.0037,0.004 -0.09878,0.0145 -0.211302,0.0239 l -0.204584,0.0172 -0.0312,-0.11778 c -0.04611,-0.17403 -0.1514,-0.33843 -0.264086,-0.41232 -0.296185,-0.19423 -0.901038,-0.19569 -1.185562,-0.003 -0.153493,0.10403 -0.220977,0.22833 -0.220977,0.40703 0,0.30036 0.14699,0.3923 0.95665,0.59834 0.782551,0.19914 1.009606,0.32733 1.176068,0.66397 0.07517,0.15202 0.08694,0.20382 0.08694,0.38273 0,0.49861 -0.362137,0.88639 -0.941992,1.00869 -0.196557,0.0414 -0.5002,0.047 -0.725234,0.0134 z"
       id="path20"
       inkscape:connector-curvature="0" />
    <path
       style="opacity:1;fill:#ff6600;fill-opacity:1;fill-rule:nonzero;stroke:none;stroke-width:0.04918629;stroke-miterlimit:4;stroke-dasharray:none;stroke-opacity:0"
       d="m 8.2419195,295.79338 c -0.321079,-0.0694 -0.580747,-0.25661 -0.721981,-0.52042 -0.125245,-0.23394 -0.168643,-0.43235 -0.168643,-0.77104 0,-0.46846 0.09713,-0.75513 0.336858,-0.99422 0.289218,-0.28844 0.738239,-0.40181 1.159153,-0.29266 0.551722,0.14307 0.87516,0.60827 0.876078,1.26005 6.11e-4,0.43969 -0.09695,0.74632 -0.310555,0.97602 -0.28912,0.3109 -0.725781,0.43854 -1.17091,0.34227 z m 0.60743,-0.37572 c 0.317574,-0.14722 0.462197,-0.48184 0.438409,-1.01435 -0.01,-0.2233 -0.02596,-0.30799 -0.08048,-0.42658 -0.14309,-0.31117 -0.361647,-0.4574 -0.683612,-0.4574 -0.416593,0 -0.679097,0.27043 -0.746043,0.76857 -0.07221,0.53729 0.104061,0.98656 0.448107,1.14212 0.164003,0.0742 0.449223,0.0685 0.623628,-0.0124 z"
       id="path22"
       inkscape:connector-curvature="0" />
    <path
       style="opacity:1;fill:#ff6600;fill-opacity:1;fill-rule:nonzero;stroke:none;stroke-width:0.04918629;stroke-miterlimit:4;stroke-dasharray:none;stroke-opacity:0"
       d="m 11.024824,295.80336 c -0.533399,-0.11277 -0.845785,-0.52334 -0.887564,-1.16654 -0.05521,-0.84989 0.337892,-1.39618 1.047254,-1.45539 0.463667,-0.0387 0.836547,0.14769 1.017774,0.50875 0.12663,0.25229 0.118973,0.27357 -0.10975,0.30504 -0.164662,0.0226 -0.193405,0.0205 -0.204635,-0.0152 -0.06781,-0.21554 -0.153122,-0.32659 -0.314567,-0.40945 -0.241455,-0.12392 -0.648749,-0.0351 -0.8112,0.17698 -0.159948,0.20877 -0.188549,0.32095 -0.188898,0.74093 -3.72e-4,0.44697 0.03541,0.59293 0.189291,0.77189 0.134602,0.15656 0.284449,0.22089 0.512804,0.22017 0.330356,-0.001 0.536783,-0.15443 0.624164,-0.46381 l 0.04403,-0.15589 0.177029,0.0183 c 0.09737,0.0101 0.186834,0.024 0.198818,0.031 0.03313,0.0193 -0.0051,0.16337 -0.09211,0.34707 -0.100066,0.21129 -0.316752,0.41304 -0.52936,0.49287 -0.173953,0.0653 -0.495565,0.0907 -0.673077,0.0532 z"
       id="path24"
       inkscape:connector-curvature="0" />
    <path
       style="opacity:1;fill:#ff6600;fill-opacity:1;fill-rule:nonzero;stroke:none;stroke-width:0.04918629;stroke-miterlimit:4;stroke-dasharray:none;stroke-opacity:0"
       d="m 12.742224,294.50192 v -1.27435 h 0.202109 0.20211 v 1.27435 1.27436 h -0.20211 -0.202109 z"
       id="path26"
       inkscape:connector-curvature="0" />
    <path
       style="opacity:1;fill:#ff6600;fill-opacity:1;fill-rule:nonzero;stroke:none;stroke-width:0.04918629;stroke-miterlimit:4;stroke-dasharray:none;stroke-opacity:0"
       d="m 14.316165,295.80228 c -0.386959,-0.0764 -0.602995,-0.32627 -0.603551,-0.69815 -5.32e-4,-0.4274 0.273139,-0.67347 0.849521,-0.76354 0.538655,-0.0842 0.755437,-0.12289 0.841197,-0.15025 0.08308,-0.0265 0.08758,-0.0347 0.08758,-0.15945 0,-0.36185 -0.199633,-0.516 -0.663257,-0.51217 -0.283874,0.002 -0.435336,0.062 -0.532326,0.20951 -0.03723,0.0566 -0.07581,0.13618 -0.08572,0.17676 -0.01988,0.0813 -0.04824,0.0867 -0.299024,0.0567 -0.13439,-0.0161 -0.137988,-0.0187 -0.118036,-0.087 0.144532,-0.49428 0.578013,-0.73401 1.253666,-0.69334 0.421158,0.0254 0.681391,0.16229 0.788399,0.41484 0.04911,0.1159 0.05543,0.20657 0.06878,0.98615 0.01435,0.83854 0.0237,0.93382 0.112656,1.14692 0.0177,0.0424 -0.0013,0.0469 -0.19678,0.0469 h -0.216377 l -0.02662,-0.0872 c -0.01464,-0.0479 -0.03418,-0.12111 -0.04343,-0.16258 l -0.01682,-0.0754 -0.127085,0.0921 c -0.332768,0.24129 -0.706051,0.33142 -1.072772,0.25903 z m 0.733001,-0.37215 c 0.163653,-0.0709 0.314087,-0.2166 0.376556,-0.36481 0.02495,-0.0592 0.0515,-0.21448 0.05919,-0.34622 l 0.01395,-0.23892 -0.06461,0.0183 c -0.231563,0.0657 -0.397116,0.10257 -0.662218,0.14739 -0.165649,0.028 -0.347386,0.0735 -0.403863,0.10102 -0.322435,0.15733 -0.286831,0.60339 0.0583,0.7303 0.127816,0.047 0.464104,0.0216 0.622696,-0.0471 z"
       id="path28"
       inkscape:connector-curvature="0" />
    <path
       style="opacity:1;fill:#ff6600;fill-opacity:1;fill-rule:nonzero;stroke:none;stroke-width:0.04918629;stroke-miterlimit:4;stroke-dasharray:none;stroke-opacity:0"
       d="m 16.595777,294.01901 v -1.75727 h 0.202111 0.202109 v 1.75727 1.75727 h -0.202109 -0.202111 z"
       id="path30"
       inkscape:connector-curvature="0" />
    <path
       style="opacity:1;fill:#000080;fill-opacity:1;fill-rule:nonzero;stroke:none;stroke-width:0.04918629;stroke-miterlimit:4;stroke-dasharray:none;stroke-opacity:0"
       d="m 12.742224,292.5032 v -0.24146 h 0.202109 0.20211 v 0.24146 0.24146 h -0.20211 -0.202109 z"
       id="path32"
       inkscape:connector-curvature="0" />
  </g>
</svg>
