<?xml version="1.0" encoding="UTF-8" standalone="no"?>
<!-- Created with Inkscape (http://www.inkscape.org/) -->

<svg
   xmlns:dc="http://purl.org/dc/elements/1.1/"
   xmlns:cc="http://creativecommons.org/ns#"
   xmlns:rdf="http://www.w3.org/1999/02/22-rdf-syntax-ns#"
   xmlns:svg="http://www.w3.org/2000/svg"
   xmlns="http://www.w3.org/2000/svg"
   xmlns:sodipodi="http://sodipodi.sourceforge.net/DTD/sodipodi-0.dtd"
   xmlns:inkscape="http://www.inkscape.org/namespaces/inkscape"
   width="50mm"
   height="50mm"
   viewBox="0 0 50 50"
   version="1.1"
   id="svg1305"
   inkscape:version="0.92.1 r15371"
   sodipodi:docname="male-1.svg">
  <defs
     id="defs1299">
    <clipPath
       clipPathUnits="userSpaceOnUse"
       id="clipPath12">
      <circle
         style="opacity:1;fill:#e580ff;fill-opacity:1;fill-rule:nonzero;stroke:none;stroke-width:6.40579844;stroke-miterlimit:4;stroke-dasharray:none;stroke-opacity:0"
         id="circle14"
         cx="25"
         cy="272"
         r="25" />
    </clipPath>
  </defs>
  <sodipodi:namedview
     id="base"
     pagecolor="#ffffff"
     bordercolor="#666666"
     borderopacity="1.0"
     inkscape:pageopacity="0.0"
     inkscape:pageshadow="2"
     inkscape:zoom="2.7305"
     inkscape:cx="94.488189"
     inkscape:cy="94.488189"
     inkscape:document-units="mm"
     inkscape:current-layer="layer1"
     showgrid="false"
     inkscape:window-width="1024"
     inkscape:window-height="715"
     inkscape:window-x="-8"
     inkscape:window-y="-8"
     inkscape:window-maximized="1"
     showborder="false" />
  <metadata
     id="metadata1302">
    <rdf:RDF>
      <cc:Work
         rdf:about="">
        <dc:format>image/svg+xml</dc:format>
        <dc:type
           rdf:resource="http://purl.org/dc/dcmitype/StillImage" />
        <dc:title />
      </cc:Work>
    </rdf:RDF>
  </metadata>
  <g
     inkscape:label="Layer 1"
     inkscape:groupmode="layer"
     id="layer1"
     transform="translate(0,-247)">
    <circle
       r="25"
       cy="272"
       cx="25"
       id="circle10"
       style="opacity:1;fill:#e580ff;fill-opacity:1;fill-rule:nonzero;stroke:none;stroke-width:6.40579844;stroke-miterlimit:4;stroke-dasharray:none;stroke-opacity:0" />
    <path
       style="opacity:1;fill:#666666;fill-opacity:1;fill-rule:nonzero;stroke:none;stroke-width:0.46333152;stroke-miterlimit:4;stroke-dasharray:none;stroke-opacity:0"
       d="m 19.926261,296.87366 c -2.824198,-0.27726 -3.224287,-0.34081 -3.59428,-0.57087 -0.161914,-0.10068 -0.45352,-0.12227 -0.648013,-0.048 -0.194493,0.0743 -0.747378,-0.0243 -1.228635,-0.21914 -0.481258,-0.19484 -1.189139,-0.33681 -1.573067,-0.31549 -0.383931,0.0213 -0.698055,-0.0383 -0.698055,-0.13241 0,-0.0941 -0.25701,-0.17764 -0.571134,-0.18557 -0.650473,-0.0164 -1.410727,-0.15655 -1.967243,-0.36257 -0.209415,-0.0776 -0.723437,-0.20909 -1.142268,-0.29236 -0.903612,-0.17965 -1.523028,-0.3409 -1.523028,-0.39651 0,-0.022 -0.31851,-0.0921 -0.707803,-0.15564 -0.389292,-0.0635 -1.01754,-0.24218 -1.396107,-0.39695 -0.378567,-0.15478 -0.911799,-0.32377 -1.18496,-0.37554 -0.273162,-0.0517 -0.571499,-0.21469 -0.662976,-0.36205 -0.09148,-0.14737 -0.239215,-0.25823 -0.328315,-0.24635 -0.0891,0.0119 -0.190555,0.0129 -0.225457,0.002 -0.0349,-0.0106 -0.277381,-0.0595 -0.538842,-0.10856 C 1.145829,292.55931 0,292.02924 0,291.81198 c 0,-0.11221 0.179501,-0.38274 0.398889,-0.60117 0.249749,-0.24866 0.287048,-0.39715 0.09976,-0.39715 -0.185512,0 -0.229481,-0.168 -0.115764,-0.44229 0.10085,-0.24325 0.227455,-0.7266 0.281346,-1.07411 0.05389,-0.3475 0.136596,-0.80242 0.183787,-1.01093 0.04719,-0.2085 0.176267,-0.83402 0.286828,-1.39003 0.110561,-0.55601 0.26628,-1.12266 0.346042,-1.25922 0.07976,-0.13656 0.158887,-0.42089 0.175835,-0.63183 0.01696,-0.21096 0.345446,-1.32059 0.730001,-2.46586 0.704816,-2.09906 1.626067,-3.26834 2.355485,-2.98966 0.184,0.0703 0.334544,0.0439 0.334544,-0.0587 0,-0.2231 4.304428,-1.45035 4.759457,-1.35699 0.174515,0.0358 0.317298,-0.0394 0.317298,-0.16711 0,-0.22383 1.422525,-0.66047 1.867042,-0.57308 0.119403,0.0234 0.376416,-0.089 0.571134,-0.24987 0.194721,-0.16089 0.354038,-0.20783 0.354038,-0.10428 0,0.10353 0.166337,0.0508 0.369637,-0.11719 0.203303,-0.16799 0.488868,-0.23207 0.634594,-0.14239 0.145729,0.0896 0.264957,0.0359 0.264957,-0.11952 0,-0.15541 0.106335,-0.21714 0.236299,-0.13716 0.129964,0.0799 0.304964,0.0348 0.388886,-0.10042 0.08392,-0.1352 0.301969,-0.18874 0.484548,-0.11899 0.182576,0.0697 0.477429,-0.0477 0.655225,-0.26098 0.177798,-0.2133 0.425359,-0.325 0.550138,-0.24822 0.124777,0.0768 0.295145,-0.0375 0.378594,-0.25406 0.337656,-0.87609 0.569512,-0.007 0.619913,2.32306 0.05993,2.77068 0.138605,4.36255 0.234076,4.73599 0.03553,0.139 0.09115,0.36646 0.123586,0.50546 0.03244,0.139 0.09065,0.33803 0.129369,0.44229 0.03871,0.10424 0.09895,0.30328 0.133853,0.44228 0.0349,0.139 0.09202,0.30959 0.126918,0.3791 0.0349,0.0695 0.0876,0.21166 0.117112,0.31592 0.09198,0.32494 0.433188,1.15157 1.017141,2.46414 0.309205,0.69502 0.704654,1.66172 0.878773,2.14822 0.17412,0.48652 0.48424,1.19733 0.689155,1.57959 0.204915,0.38226 0.300842,0.69502 0.213173,0.69502 -0.08767,0 0.02554,0.18413 0.251573,0.40918 0.226038,0.22506 0.469458,0.35097 0.540934,0.27979 0.07148,-0.0712 0.277219,-1.53475 0.457208,-3.25243 0.229996,-2.19492 0.489527,-3.43925 0.873306,-4.18708 0.685099,-1.33499 0.682218,-1.40801 -0.08415,-2.13178 -0.346615,-0.32734 -0.632183,-0.68014 -0.634595,-0.78399 -0.0024,-0.10385 0.376362,-0.61563 0.841718,-1.1373 0.803913,-0.90118 1.422577,-2.00931 0.964376,-1.72736 -0.117922,0.0726 -1.087918,-0.6892 -2.155544,-1.69282 -1.067628,-1.00361 -1.940766,-1.78239 -1.940307,-1.73063 4.9e-4,0.0517 -0.169251,-0.0464 -0.377129,-0.21818 -0.20788,-0.17178 -0.307473,-0.42587 -0.221316,-0.56467 0.08615,-0.1388 0.01201,-0.34135 -0.164791,-0.45015 -0.176786,-0.10878 -0.322024,-0.52255 -0.322749,-0.91949 -0.0025,-1.37348 0.293811,-4.13112 0.475324,-4.42354 0.106834,-0.17211 0.07199,-0.22576 -0.0842,-0.12965 -0.235831,0.14511 -0.478126,-0.17674 -0.730553,-0.97043 -0.573298,-1.80259 -1.156824,-3.06841 -1.564015,-3.39276 -0.564875,-0.44996 -0.786714,-1.20799 -0.988698,-3.37844 -0.08855,-0.95152 -0.03914,-1.5658 0.134537,-1.67267 0.332963,-0.20489 0.358144,-0.93745 0.140259,-4.08051 -0.137495,-1.98339 -0.09247,-2.55936 0.251864,-3.22234 0.230608,-0.44401 0.594433,-0.80728 0.808503,-0.80728 0.21407,0 0.318623,-0.11374 0.232339,-0.25274 -0.08628,-0.13901 -0.02917,-0.25273 0.126918,-0.25273 0.156092,0 0.218895,-0.10456 0.139568,-0.23236 -0.07933,-0.12779 0.03632,-0.41212 0.256988,-0.63183 0.220672,-0.21971 0.335948,-0.39948 0.25617,-0.39948 -0.07978,0 0.05485,-0.20941 0.299166,-0.46537 0.244319,-0.25596 0.522866,-0.42416 0.618994,-0.37378 0.09613,0.0504 0.29255,-0.10983 0.436497,-0.35601 0.143947,-0.24618 0.265195,-0.34838 0.269439,-0.22711 0.0042,0.12127 0.17906,0.0789 0.388476,-0.0941 0.209415,-0.17305 0.380756,-0.24964 0.380756,-0.17021 0,0.0794 0.399249,-0.0217 0.88722,-0.22468 0.487972,-0.203 0.944878,-0.36778 1.015352,-0.3662 0.07047,0.002 0.213801,-0.0102 0.318508,-0.0262 0.104707,-0.016 0.390275,-0.009 0.634594,0.0159 0.244319,0.0247 0.444216,-0.0619 0.444216,-0.19258 0,-0.30376 2.357415,-0.0567 2.570106,0.26931 0.09727,0.14909 0.22682,0.13337 0.334838,-0.0407 0.0969,-0.15611 0.282093,-0.21868 0.411533,-0.13902 0.12944,0.0797 0.484386,0.19257 0.788777,0.25093 0.304388,0.0584 0.645749,0.25094 0.758579,0.42796 0.112831,0.17701 0.208647,0.20811 0.212921,0.0691 0.0043,-0.13941 0.09139,-0.12389 0.194265,0.0346 0.102571,0.15804 0.586286,0.50771 1.074924,0.77704 0.488638,0.26933 1.038283,0.79569 1.221433,1.1697 0.18315,0.37401 0.608935,0.97647 0.946189,1.33878 0.862598,0.92672 1.007856,2.08376 0.657634,5.23837 -0.269637,2.42877 -0.258956,2.77906 0.09255,3.03498 0.339562,0.24721 0.360063,0.54634 0.140918,2.05626 -0.14105,0.97182 -0.258718,1.83002 -0.261485,1.90711 -0.0028,0.0771 -0.409551,0.57987 -0.903969,1.1173 -0.494419,0.53743 -0.840686,1.12831 -0.76948,1.31305 0.0712,0.18475 0.01382,0.33591 -0.127536,0.33591 -0.141349,0 -0.228025,0.14217 -0.192613,0.31592 0.03541,0.17376 -0.07783,0.57181 -0.251644,0.88457 -0.173813,0.31275 -0.240905,0.56864 -0.149093,0.56864 0.09181,0 0.03891,0.15359 -0.11756,0.34131 -0.337107,0.40441 -0.424947,2.16881 -0.224055,4.50052 0.130724,1.51729 0.0967,1.69523 -0.346201,1.81054 -0.270147,0.0704 -0.45934,0.22781 -0.420429,0.34993 0.08511,0.26713 -3.184126,3.35975 -3.551631,3.35975 -0.538604,0 -0.908658,1.50662 -0.447791,1.8231 0.144429,0.0992 0.2626,0.29821 0.2626,0.44228 0,0.14408 0.114227,0.27006 0.253839,0.27996 0.139609,0.01 0.454105,0.19846 0.698873,0.41901 0.420517,0.37891 0.403692,0.43775 -0.305395,1.06807 -0.451141,0.40103 -0.733636,0.88909 -0.708318,1.22375 0.02316,0.30618 0.114688,0.55669 0.203386,0.55669 0.43327,0 0.990012,2.19935 1.244799,4.91744 0.1558,1.66207 0.337673,3.07611 0.404165,3.14232 0.06649,0.0662 0.226139,0.0142 0.35477,-0.11552 0.301692,-0.30429 2.68697,-5.85487 3.086263,-7.18179 0.168019,-0.55834 0.413854,-1.01518 0.546304,-1.01518 0.132449,0 0.185842,-0.14264 0.118652,-0.31697 -0.06719,-0.17434 0.04306,-1.39693 0.245003,-2.71688 0.212137,-1.38657 0.303523,-3.06041 0.21643,-3.96419 -0.140594,-1.45904 -0.116212,-1.5617 0.362433,-1.5258 0.282245,0.0212 0.51317,0.10025 0.51317,0.17574 0,0.2902 2.549603,1.17421 4.817007,1.67019 0.345779,0.0756 0.974027,0.2871 1.39611,0.46992 0.910696,0.39444 4.321333,1.39017 5.174985,1.51081 0.33,0.0467 0.685452,0.22245 0.789894,0.39071 0.10444,0.16825 0.291351,0.31651 0.415351,0.32946 0.404844,0.0422 0.776552,0.5618 0.657141,0.91847 -0.07081,0.2115 -0.0037,0.27925 0.170457,0.17208 0.169939,-0.10457 0.384793,0.0788 0.526116,0.44879 0.35934,0.94103 1.755807,6.30699 1.893574,7.27612 0.0663,0.46642 0.23894,1.30295 0.383629,1.85897 0.144692,0.55601 0.265801,1.08243 0.269131,1.16982 0.0063,0.16488 -1.105582,0.65478 -1.770807,0.78023 -0.209414,0.0395 -0.442826,0.15424 -0.518694,0.25498 -0.07586,0.10074 -0.418546,0.23446 -0.761512,0.29714 -0.342966,0.0627 -0.652133,0.13663 -0.687035,0.16433 -0.0349,0.0278 -0.14913,0.0744 -0.253839,0.1038 -0.104708,0.0294 -0.381356,0.13765 -0.614773,0.24061 -0.233414,0.10295 -0.633209,0.22659 -0.888431,0.27474 -0.255221,0.0481 -0.464037,0.10497 -0.464037,0.12624 0,0.0542 -0.627483,0.21702 -1.523028,0.39507 -0.418831,0.0833 -0.932854,0.21648 -1.142268,0.29602 -0.209417,0.0796 -0.494985,0.16672 -0.634594,0.19374 -0.139612,0.027 -0.310953,0.0771 -0.380758,0.11118 -0.06981,0.0341 -0.537038,0.0904 -1.038293,0.12502 -0.501258,0.0346 -1.072392,0.16334 -1.269189,0.28604 -0.196797,0.12269 -0.54759,0.19204 -0.779543,0.15411 -0.231952,-0.0379 -0.492621,0.0453 -0.579265,0.18482 -0.08664,0.13958 -0.31828,0.19238 -0.514743,0.11731 -0.196466,-0.0751 -0.554441,-0.0265 -0.795504,0.10774 -0.253109,0.14103 -0.74431,0.15683 -1.162585,0.0373 -0.443188,-0.12655 -0.666889,-0.11434 -0.576385,0.0315 0.08135,0.13104 -0.002,0.28848 -0.185483,0.34985 -1.248543,0.41788 -10.511837,0.681 -13.532947,0.38441 z M 25.81101,283.9428 c -0.08103,-0.20161 -0.141181,-0.14172 -0.15336,0.1527 -0.01103,0.26642 0.04897,0.41569 0.133322,0.33171 0.08435,-0.084 0.09336,-0.30197 0.02002,-0.48441 z M 4.92369,280.74678 c 0.07191,-0.11584 -0.03056,-0.2106 -0.22769,-0.2106 -0.197135,0 -0.299595,0.0948 -0.227693,0.2106 0.07191,0.11584 0.174365,0.21061 0.227693,0.21061 0.05333,0 0.155787,-0.0948 0.22769,-0.21061 z"
       id="path1884"
       inkscape:connector-curvature="0"
       clip-path="url(#clipPath12)" />
  </g>
</svg>
