<?xml version="1.0" encoding="UTF-8" standalone="no"?>
<!-- Created with Inkscape (http://www.inkscape.org/) -->

<svg
   xmlns:dc="http://purl.org/dc/elements/1.1/"
   xmlns:cc="http://creativecommons.org/ns#"
   xmlns:rdf="http://www.w3.org/1999/02/22-rdf-syntax-ns#"
   xmlns:svg="http://www.w3.org/2000/svg"
   xmlns="http://www.w3.org/2000/svg"
   xmlns:sodipodi="http://sodipodi.sourceforge.net/DTD/sodipodi-0.dtd"
   xmlns:inkscape="http://www.inkscape.org/namespaces/inkscape"
   width="50mm"
   height="50mm"
   viewBox="0 0 50 50"
   version="1.1"
   id="svg1305"
   inkscape:version="0.92.1 r15371"
   sodipodi:docname="male-2.svg">
  <defs
     id="defs1299" />
  <sodipodi:namedview
     id="base"
     pagecolor="#ffffff"
     bordercolor="#666666"
     borderopacity="1.0"
     inkscape:pageopacity="0.0"
     inkscape:pageshadow="2"
     inkscape:zoom="0.96537775"
     inkscape:cx="178.81011"
     inkscape:cy="35.947878"
     inkscape:document-units="mm"
     inkscape:current-layer="layer1"
     showgrid="false"
     inkscape:window-width="1024"
     inkscape:window-height="715"
     inkscape:window-x="-8"
     inkscape:window-y="-8"
     inkscape:window-maximized="1"
     showborder="false" />
  <metadata
     id="metadata1302">
    <rdf:RDF>
      <cc:Work
         rdf:about="">
        <dc:format>image/svg+xml</dc:format>
        <dc:type
           rdf:resource="http://purl.org/dc/dcmitype/StillImage" />
        <dc:title></dc:title>
      </cc:Work>
    </rdf:RDF>
  </metadata>
  <g
     inkscape:label="Layer 1"
     inkscape:groupmode="layer"
     id="layer1"
     transform="translate(0,-247)">
    <path
       style="opacity:1;fill:#c6d570;fill-opacity:1;fill-rule:nonzero;stroke:none;stroke-width:0.31223291;stroke-miterlimit:4;stroke-dasharray:none;stroke-opacity:0"
       d="m 7.0842345,289.53338 c -2.456524,-2.57853 -3.659676,-4.39808 -5.226855,-7.90468 -0.189084,-0.42308 -0.394054,-0.96155 -0.455491,-1.19659 -0.06144,-0.23504 -0.18112,-0.58119 -0.265963,-0.76923 -0.37058198,-0.8213 -0.87342298,-3.41882 -1.05367098,-5.44295 -0.287013,-3.22305 0.204479,-7.88398 1.04834598,-9.94168 0.07712,-0.18803 0.360293,-0.91823 0.62929,-1.62267 2.110407,-5.52663 6.724113,-10.50217 12.1636015,-13.11753 1.992687,-0.95811 2.547469,-1.18669 3.232554,-1.33189 0.325001,-0.0689 0.70847,-0.18893 0.852151,-0.26678 0.143683,-0.0779 1.066525,-0.31402 2.05076,-0.52482 2.601443,-0.55716 7.159011,-0.55202 9.714535,0.011 1.874186,0.41288 3.465157,0.88818 4.371733,1.30603 0.295376,0.13615 0.586968,0.24754 0.647984,0.24754 0.06101,0 0.701321,0.29698 1.422902,0.65995 4.749,2.38885 8.681112,6.35638 11.032568,11.13196 1.490191,3.02644 2.032843,4.84717 2.488573,8.34979 0.339234,2.60726 0.340777,2.74731 0.05772,5.24211 -0.396671,3.4961 -0.981741,5.62827 -2.322086,8.46237 -0.709314,1.49981 -2.488112,4.31172 -3.298137,5.21368 -0.253302,0.28205 -0.631038,0.70512 -0.839405,0.94017 -0.208367,0.23504 -0.650541,0.68252 -0.982606,0.99439 l -0.603754,0.56704 -1.428731,-0.36142 c -0.785801,-0.19878 -1.927238,-0.47354 -2.536526,-0.61057 -0.609289,-0.13704 -1.261184,-0.32124 -1.44866,-0.40933 -0.330913,-0.1555 -0.676878,-0.24313 -3.280785,-0.83097 l -1.235621,-0.27895 v -4.18675 -4.18675 l 0.69959,-0.71496 0.699591,-0.71496 0.155853,-2.09825 c 0.130539,-1.7574 0.208384,-2.13514 0.479219,-2.32541 0.177851,-0.12494 0.451598,-0.59268 0.608324,-1.03942 0.156728,-0.44674 0.351326,-0.94016 0.432438,-1.09648 0.221563,-0.42701 0.389652,-1.94712 0.268736,-2.43032 -0.0585,-0.23379 -0.267147,-0.47624 -0.463657,-0.5388 -0.384627,-0.12244 -0.377527,-0.50423 0.04693,-2.52367 0.207244,-0.98601 0.508497,-0.87279 0.803417,0.30195 0.416963,1.66087 0.778664,0.93001 1.329618,-2.68663 0.05365,-0.35217 1.7e-4,-0.98899 -0.118745,-1.41516 -0.118963,-0.42616 -0.178101,-0.81314 -0.131418,-0.85996 0.04668,-0.0468 0.373291,0.20538 0.725801,0.56045 l 0.640925,0.64559 -0.115386,-0.51282 c -0.427594,-1.9004 -3.012634,-5.09089 -4.953438,-6.1136 l -0.68172,-0.35923 0.675661,-0.16531 c 0.466405,-0.11411 0.905608,-0.10361 1.418148,0.0339 0.735218,0.19723 1.148372,0.1352 0.974879,-0.14635 -0.155879,-0.25297 -2.156615,-1.15301 -3.752757,-1.68819 -2.40239,-0.80551 -5.671909,-1.30335 -7.496592,-1.14149 -3.389008,0.30065 -5.257053,1.13986 -6.496033,2.91833 -0.435112,0.62457 -1.258551,2.34164 -1.258551,2.62439 0,0.11162 -0.249915,0.35084 -0.555366,0.5316 -1.378381,0.8157 -1.86301,3.31392 -1.343337,6.92478 0.121778,0.84615 0.297032,1.83455 0.389458,2.19644 0.130101,0.50942 0.113662,0.72169 -0.07282,0.94017 -0.419109,0.49103 -0.471878,0.8874 -0.271664,2.04055 0.226291,1.30335 0.888145,2.90957 1.257484,3.05173 0.169093,0.0651 0.256627,0.33758 0.259066,0.8065 0.0021,0.38951 0.105143,1.38502 0.229155,2.21225 0.204123,1.36161 0.284768,1.56495 0.851574,2.14715 l 0.6261,0.6431 -0.04571,4.15395 -0.04571,4.15395 -1.44866,0.40409 c -0.796763,0.22224 -2.062208,0.56723 -2.812101,0.76665 -0.749895,0.19941 -1.861953,0.50394 -2.471243,0.67674 -0.609286,0.17279 -1.3762235,0.36657 -1.7043035,0.43062 -0.328079,0.0641 -0.680355,0.18391 -0.782836,0.26636 -0.120592,0.097 -0.573718,-0.25673 -1.284339,-1.00265 z"
       id="path1902"
       inkscape:connector-curvature="0" />
    <path
       style="opacity:1;fill:#ab2d6a;fill-opacity:1;fill-rule:nonzero;stroke:none;stroke-width:0.31223291;stroke-miterlimit:4;stroke-dasharray:none;stroke-opacity:0"
       d="m 26.535312,296.44189 c 0.60929,-0.30276 2.028122,-0.96475 3.152963,-1.47109 3.686101,-1.65926 4.819596,-2.2025 4.913457,-2.35482 0.05088,-0.0826 -0.516147,-1.06787 -1.260066,-2.18954 -0.743918,-1.12168 -1.352579,-2.10673 -1.352579,-2.189 0,-0.0823 0.134214,-0.0943 0.298252,-0.0266 0.331767,0.13678 2.392654,0.70261 3.706862,1.01775 0.468683,0.11238 0.967194,0.25337 1.107798,0.3133 0.236726,0.10091 1.364224,0.39036 3.238178,0.83129 0.972414,0.22881 1.099218,0.3527 0.726409,0.70973 -0.731017,0.70006 -3.01618,2.34069 -3.260248,2.34069 -0.08322,0 -0.248323,0.11725 -0.366897,0.26055 -0.118571,0.14329 -0.253519,0.22249 -0.299883,0.17599 -0.04636,-0.0465 -0.284688,0.057 -0.529612,0.23005 -0.399835,0.28248 -1.970115,1.00149 -3.34263,1.53053 -0.543607,0.20954 -2.328235,0.69941 -2.897318,0.79529 -0.187476,0.0316 -1.031103,0.17757 -1.874735,0.3244 -0.84363,0.14684 -1.878997,0.2636 -2.300811,0.25948 l -0.766937,-0.007 z"
       id="path1904"
       inkscape:connector-curvature="0" />
    <path
       style="opacity:1;fill:#ab2d6a;fill-opacity:1;fill-rule:nonzero;stroke:none;stroke-width:0.31223291;stroke-miterlimit:4;stroke-dasharray:none;stroke-opacity:0"
       d="m 21.337185,296.73757 c -0.749893,-0.12551 -1.555178,-0.26077 -1.78952,-0.30057 -0.587019,-0.0997 -2.397157,-0.60888 -2.812102,-0.79103 -0.187473,-0.0823 -0.532594,-0.20293 -0.766935,-0.26809 -1.411706,-0.39252 -4.662692,-2.27096 -6.6092935,-3.81889 -0.877537,-0.69782 -1.008519,-1.0414 -0.396999,-1.0414 0.166155,0 0.832698,-0.15989 1.4812085,-0.35532 1.263059,-0.38061 1.963602,-0.57718 4.502501,-1.2634 0.890497,-0.24069 1.829997,-0.50672 2.087772,-0.59118 0.257777,-0.0845 0.468683,-0.11606 0.468683,-0.0702 0,0.0458 -0.620817,1.04469 -1.379594,2.21967 -0.758777,1.17498 -1.353154,2.16031 -1.320837,2.18962 0.08743,0.0793 2.029006,0.98283 5.512533,2.56529 0.562421,0.25549 1.636134,0.76006 2.386027,1.12127 1.340649,0.64575 1.352046,0.65653 0.68172,0.64459 -0.374946,-0.007 -1.29527,-0.11482 -2.045164,-0.24033 z"
       id="path1906"
       inkscape:connector-curvature="0" />
    <path
       style="opacity:1;fill:#4d4d4d;fill-opacity:1;fill-rule:nonzero;stroke:none;stroke-width:0.31223291;stroke-miterlimit:4;stroke-dasharray:none;stroke-opacity:0"
       d="m 23.21192,296.35143 c -0.374948,-0.17188 -1.065191,-0.48666 -1.533874,-0.69951 -2.956921,-1.34289 -4.280261,-1.95101 -5.576688,-2.56268 l -1.145499,-0.54046 0.634208,-0.96933 c 0.348813,-0.53314 0.960154,-1.46188 1.358535,-2.06388 0.398381,-0.60199 0.724329,-1.16737 0.724329,-1.2564 0,-0.15077 0.747082,0.7964 4.686837,5.94209 2.115124,2.76255 2.098934,2.7217 0.852152,2.15017 z"
       id="path1908"
       inkscape:connector-curvature="0" />
    <path
       style="opacity:1;fill:#4d4d4d;fill-opacity:1;fill-rule:nonzero;stroke:none;stroke-width:0.31223291;stroke-miterlimit:4;stroke-dasharray:none;stroke-opacity:0"
       d="m 25.469498,296.45776 c 0.09291,-0.11752 1.007481,-1.32906 2.032375,-2.69231 3.339023,-4.44136 4.316783,-5.6831 4.316783,-5.48226 0,0.10865 0.07927,0.29045 0.17615,0.40401 0.394774,0.4627 2.375339,3.63878 2.377731,3.81298 0.0014,0.10324 -0.323372,0.32812 -0.721753,0.49973 -0.398381,0.17161 -1.439974,0.64483 -2.314652,1.0516 -0.874676,0.40677 -1.617983,0.73959 -1.651789,0.73959 -0.03381,0 -0.955781,0.42307 -2.048828,0.94017 -2.042373,0.9662 -2.468535,1.10913 -2.166017,0.72649 z"
       id="path1910"
       inkscape:connector-curvature="0" />
    <path
       style="opacity:1;fill:#4d4d4d;fill-opacity:1;fill-rule:nonzero;stroke:none;stroke-width:0.31223291;stroke-miterlimit:4;stroke-dasharray:none;stroke-opacity:0"
       d="m 15.746844,270.77399 c -0.07511,-0.28206 -0.243665,-1.01282 -0.374561,-1.62394 -0.1309,-0.61111 -0.314747,-1.45726 -0.408552,-1.88034 -0.812831,-3.66596 -0.448163,-7.74653 0.732779,-8.19971 0.481897,-0.18493 0.884635,-0.67573 1.01854,-1.24126 0.162843,-0.68775 1.069081,-2.17442 1.782539,-2.92424 1.286627,-1.35218 3.115432,-1.89364 6.418634,-1.90039 3.011978,-0.006 5.316164,0.46355 8.265876,1.685 l 1.278228,0.52931 -1.164873,0.11549 c -0.640679,0.0635 -1.273401,0.15725 -1.40605,0.2083 -0.342302,0.13175 -0.299371,0.44544 0.06096,0.44544 0.390268,0 1.984376,1.04595 2.82131,1.85115 1.080371,1.03941 2.647224,3.35807 2.421938,3.58403 -0.04051,0.0406 -0.281143,-0.0898 -0.534732,-0.28988 -0.253588,-0.20007 -0.492925,-0.33181 -0.53186,-0.29276 -0.03894,0.0391 0.04947,0.47717 0.196447,0.9736 0.334529,1.12984 0.33637,1.93087 0.0084,3.64999 -0.245063,1.28451 -0.42086,1.81407 -0.424539,1.27886 -0.0025,-0.35754 -0.81089,-2.03703 -0.980539,-2.03703 -0.08016,0 -0.285874,0.71153 -0.457147,1.58119 -0.171271,0.86966 -0.399887,1.94356 -0.508036,2.38645 l -0.196631,0.80525 -0.303906,-1.06166 c -0.300758,-1.05066 -0.794936,-2.43541 -1.243311,-3.48391 -0.127455,-0.29805 -0.278976,-0.77882 -0.336716,-1.06838 -0.05773,-0.28956 -0.159882,-0.52647 -0.226987,-0.52647 -0.0671,0 -0.214912,-0.41639 -0.328463,-0.92531 -0.113552,-0.50892 -0.313096,-0.96635 -0.443429,-1.01651 -0.251255,-0.0967 -0.99885,0.0778 -1.546389,0.36101 -0.41639,0.21536 -2.099035,0.89757 -2.528845,1.0253 -0.208641,0.062 -0.283879,0.03 -0.210256,-0.0895 0.220466,-0.35779 -0.191336,-0.36919 -0.90168,-0.025 -0.620509,0.30069 -0.800187,0.31999 -1.344017,0.14438 -0.345263,-0.11149 -0.731916,-0.28594 -0.859232,-0.38766 -0.172756,-0.13802 -0.285614,-0.11069 -0.444864,0.10775 -0.273135,0.37465 -0.273799,0.37458 -1.42198,-0.15138 -2.897431,-1.32727 -2.843273,-1.32711 -3.266676,-0.009 -0.116212,0.36166 -0.31747,0.86166 -0.447237,1.11111 -0.129768,0.24946 -0.236415,0.5728 -0.236992,0.71852 -4.66e-4,0.14573 -0.06994,0.33804 -0.154134,0.42735 -0.0842,0.0893 -0.361944,0.70086 -0.617215,1.35898 -0.255271,0.65812 -0.567891,1.42735 -0.694713,1.7094 -0.12682,0.28205 -0.251716,1.20513 -0.277546,2.05129 -0.03505,1.14833 -0.08159,1.40841 -0.183528,1.02564 z"
       id="path1912"
       inkscape:connector-curvature="0" />
    <path
       style="opacity:1;fill:#f0e3e3;fill-opacity:1;fill-rule:nonzero;stroke:none;stroke-width:0.31223291;stroke-miterlimit:4;stroke-dasharray:none;stroke-opacity:0"
       d="m 23.284431,295.01182 c -0.789775,-1.0141 -2.220701,-2.89632 -3.179834,-4.1827 -0.959131,-1.28638 -1.821937,-2.38726 -1.91734,-2.4464 -0.110256,-0.0684 -0.173466,-1.68056 -0.173466,-4.42444 v -4.31691 l -0.532281,-0.50206 c -0.770856,-0.7271 -0.973765,-1.34836 -1.104914,-3.38298 -0.106347,-1.64987 -0.153053,-1.83711 -0.518073,-2.077 -0.220653,-0.14501 -0.401659,-0.35803 -0.402238,-0.47339 -4.65e-4,-0.11535 -0.112178,-0.42341 -0.248002,-0.68458 -0.318498,-0.61242 -0.649351,-2.30088 -0.575384,-2.93638 0.09035,-0.77628 0.425086,-0.70633 0.545616,0.11402 0.175886,1.1971 0.674866,3.0408 0.822965,3.0408 0.07567,0 0.137577,-0.957 0.137577,-2.12667 0,-1.16966 0.0682,-2.16894 0.151551,-2.2206 0.08335,-0.0517 0.204308,-0.30621 0.268788,-0.56565 0.06448,-0.25943 0.221577,-0.70247 0.349102,-0.98452 0.127522,-0.28205 0.433171,-1.01282 0.679219,-1.62393 0.246045,-0.61112 0.551693,-1.34188 0.679218,-1.62394 0.127526,-0.28205 0.280722,-0.70512 0.34044,-0.94017 0.05972,-0.23504 0.211397,-0.56621 0.337065,-0.73593 0.219257,-0.29612 0.254889,-0.29439 0.882016,0.0427 0.359442,0.19323 0.716392,0.35132 0.793225,0.35132 0.140109,0 1.384027,0.5247 2.148034,0.90606 0.339257,0.16935 0.437516,0.15662 0.583555,-0.0756 0.162018,-0.25762 0.23299,-0.2579 0.917144,-0.004 0.598709,0.22256 0.805925,0.23532 1.075829,0.0663 0.452181,-0.28324 0.689846,-0.26367 0.570981,0.047 -0.123858,0.32373 0.180779,0.32777 0.764224,0.0101 0.248805,-0.13545 0.989226,-0.45225 1.645384,-0.70398 0.656158,-0.25174 1.40943,-0.56883 1.673941,-0.70463 0.58386,-0.29978 0.879059,-0.11458 1.030866,0.64673 0.05732,0.28745 0.213335,0.7665 0.346703,1.06455 0.133368,0.29805 0.33579,0.8496 0.449827,1.22567 0.114036,0.37606 0.265183,0.76068 0.335879,0.8547 0.0707,0.094 0.185799,0.43904 0.255785,0.76672 0.06998,0.32768 0.234437,0.75987 0.365445,0.96041 0.310504,0.47531 0.575734,2.84232 0.452589,4.03907 -0.06285,0.61083 -0.02945,0.98084 0.09554,1.05832 0.26504,0.16429 0.463113,-0.43942 0.61263,-1.86725 0.152305,-1.45442 0.34779,-1.90606 0.698603,-1.61404 0.593516,0.49404 -0.08064,3.70733 -0.963733,4.5935 -0.404528,0.40594 -0.450262,0.60237 -0.559235,2.40197 -0.08256,1.36347 -0.203875,2.09131 -0.398643,2.39179 -0.153979,0.23755 -1.628406,1.79029 -3.276506,3.45054 -3.284346,3.30855 -3.337134,3.34084 -5.206987,3.18531 -1.05801,-0.088 -1.31304,-0.27323 -4.177435,-3.03411 -0.983604,-0.94806 -1.81069,-1.65659 -1.837964,-1.57452 -0.02728,0.0821 0.260392,0.68849 0.639263,1.3476 2.064407,3.59138 6.855103,6.20224 11.380772,6.20237 0.740772,2e-5 1.063902,0.0651 1.060961,0.2137 -0.0023,0.11752 -0.750089,1.18146 -1.661697,2.36432 -0.911606,1.18285 -1.810855,2.36267 -1.998327,2.62183 -0.556001,0.76859 -2.483656,3.24378 -2.711781,3.48203 -0.169961,0.17751 -0.489954,-0.13794 -1.6469,-1.62352 z"
       id="path1914"
       inkscape:connector-curvature="0" />
    <path
       style="opacity:1;fill:#dfcece;fill-opacity:1;fill-rule:nonzero;stroke:none;stroke-width:0.31223291;stroke-miterlimit:4;stroke-dasharray:none;stroke-opacity:0"
       d="m 29.508662,287.86222 c -3.861776,-0.44577 -6.712546,-1.77401 -9.038967,-4.21147 -0.992141,-1.03949 -2.074445,-2.63257 -1.904393,-2.80313 0.04489,-0.045 0.980726,0.76031 2.079622,1.78966 1.098896,1.02934 2.25265,1.99274 2.563897,2.14088 0.333743,0.15884 1.017859,0.26934 1.667568,0.26934 1.34943,0 1.323435,0.0179 4.428417,-3.0583 l 2.343421,-2.32174 v 4.22848 c 0,2.32567 -0.05752,4.21842 -0.127823,4.20612 -0.0703,-0.0123 -0.975586,-0.12023 -2.011742,-0.23984 z"
       id="path1916"
       inkscape:connector-curvature="0" />
  </g>
</svg>
