<?xml version="1.0" encoding="UTF-8" standalone="no"?>
<!-- Created with Inkscape (http://www.inkscape.org/) -->

<svg
   xmlns:dc="http://purl.org/dc/elements/1.1/"
   xmlns:cc="http://creativecommons.org/ns#"
   xmlns:rdf="http://www.w3.org/1999/02/22-rdf-syntax-ns#"
   xmlns:svg="http://www.w3.org/2000/svg"
   xmlns="http://www.w3.org/2000/svg"
   xmlns:sodipodi="http://sodipodi.sourceforge.net/DTD/sodipodi-0.dtd"
   xmlns:inkscape="http://www.inkscape.org/namespaces/inkscape"
   width="50mm"
   height="50mm"
   viewBox="0 0 50 50"
   version="1.1"
   id="svg1305"
   inkscape:version="0.92.1 r15371"
   sodipodi:docname="male-3.svg">
  <defs
     id="defs1299">
    <clipPath
       clipPathUnits="userSpaceOnUse"
       id="clipPath20">
      <circle
         style="opacity:1;fill:#e580ff;fill-opacity:1;fill-rule:nonzero;stroke:none;stroke-width:7.37417555;stroke-miterlimit:4;stroke-dasharray:none;stroke-opacity:0"
         id="circle22"
         cx="25"
         cy="272"
         r="25" />
    </clipPath>
    <clipPath
       clipPathUnits="userSpaceOnUse"
       id="clipPath24">
      <circle
         style="opacity:1;fill:#e580ff;fill-opacity:1;fill-rule:nonzero;stroke:none;stroke-width:7.37417555;stroke-miterlimit:4;stroke-dasharray:none;stroke-opacity:0"
         id="circle26"
         cx="25"
         cy="272"
         r="25" />
    </clipPath>
    <clipPath
       clipPathUnits="userSpaceOnUse"
       id="clipPath28">
      <circle
         style="opacity:1;fill:#e580ff;fill-opacity:1;fill-rule:nonzero;stroke:none;stroke-width:7.37417555;stroke-miterlimit:4;stroke-dasharray:none;stroke-opacity:0"
         id="circle30"
         cx="25"
         cy="272"
         r="25" />
    </clipPath>
    <clipPath
       clipPathUnits="userSpaceOnUse"
       id="clipPath32">
      <circle
         style="opacity:1;fill:#e580ff;fill-opacity:1;fill-rule:nonzero;stroke:none;stroke-width:7.37417555;stroke-miterlimit:4;stroke-dasharray:none;stroke-opacity:0"
         id="circle34"
         cx="25"
         cy="272"
         r="25" />
    </clipPath>
    <clipPath
       clipPathUnits="userSpaceOnUse"
       id="clipPath36">
      <circle
         style="opacity:1;fill:#e580ff;fill-opacity:1;fill-rule:nonzero;stroke:none;stroke-width:7.37417555;stroke-miterlimit:4;stroke-dasharray:none;stroke-opacity:0"
         id="circle38"
         cx="25"
         cy="272"
         r="25" />
    </clipPath>
    <clipPath
       clipPathUnits="userSpaceOnUse"
       id="clipPath40">
      <circle
         style="opacity:1;fill:#e580ff;fill-opacity:1;fill-rule:nonzero;stroke:none;stroke-width:7.37417555;stroke-miterlimit:4;stroke-dasharray:none;stroke-opacity:0"
         id="circle42"
         cx="25"
         cy="272"
         r="25" />
    </clipPath>
    <clipPath
       clipPathUnits="userSpaceOnUse"
       id="clipPath44">
      <circle
         style="opacity:1;fill:#e580ff;fill-opacity:1;fill-rule:nonzero;stroke:none;stroke-width:7.37417555;stroke-miterlimit:4;stroke-dasharray:none;stroke-opacity:0"
         id="circle46"
         cx="25"
         cy="272"
         r="25" />
    </clipPath>
    <clipPath
       clipPathUnits="userSpaceOnUse"
       id="clipPath48">
      <circle
         style="opacity:1;fill:#e580ff;fill-opacity:1;fill-rule:nonzero;stroke:none;stroke-width:7.37417555;stroke-miterlimit:4;stroke-dasharray:none;stroke-opacity:0"
         id="circle50"
         cx="25"
         cy="272"
         r="25" />
    </clipPath>
    <clipPath
       clipPathUnits="userSpaceOnUse"
       id="clipPath52">
      <circle
         style="opacity:1;fill:#e580ff;fill-opacity:1;fill-rule:nonzero;stroke:none;stroke-width:7.37417555;stroke-miterlimit:4;stroke-dasharray:none;stroke-opacity:0"
         id="circle54"
         cx="25"
         cy="272"
         r="25" />
    </clipPath>
  </defs>
  <sodipodi:namedview
     id="base"
     pagecolor="#ffffff"
     bordercolor="#666666"
     borderopacity="1.0"
     inkscape:pageopacity="0.0"
     inkscape:pageshadow="2"
     inkscape:zoom="1.3652503"
     inkscape:cx="150.78921"
     inkscape:cy="70.982391"
     inkscape:document-units="mm"
     inkscape:current-layer="layer1"
     showgrid="false"
     inkscape:window-width="1024"
     inkscape:window-height="715"
     inkscape:window-x="-8"
     inkscape:window-y="-8"
     inkscape:window-maximized="1"
     showborder="false" />
  <metadata
     id="metadata1302">
    <rdf:RDF>
      <cc:Work
         rdf:about="">
        <dc:format>image/svg+xml</dc:format>
        <dc:type
           rdf:resource="http://purl.org/dc/dcmitype/StillImage" />
        <dc:title />
      </cc:Work>
    </rdf:RDF>
  </metadata>
  <g
     inkscape:label="Layer 1"
     inkscape:groupmode="layer"
     id="layer1"
     transform="translate(0,-247)">
    <circle
       r="25"
       cy="272"
       cx="25"
       id="circle18"
       style="opacity:1;fill:#e580ff;fill-opacity:1;fill-rule:nonzero;stroke:none;stroke-width:7.37417555;stroke-miterlimit:4;stroke-dasharray:none;stroke-opacity:0" />
    <path
       style="opacity:1;fill:#d40000;fill-opacity:1;fill-rule:nonzero;stroke:none;stroke-width:0.30535755;stroke-miterlimit:4;stroke-dasharray:none;stroke-opacity:0"
       d="m 1.106185,295.72611 c 0.05842,-0.70066 0.213134,-1.47951 0.343797,-1.73079 0.130663,-0.25127 0.195066,-0.52355 0.143118,-0.60505 -0.05195,-0.0815 -0.01172,-0.19778 0.08939,-0.25837 0.101111,-0.0606 0.143737,-0.21151 0.09473,-0.33536 -0.04901,-0.12385 0.02752,-0.33827 0.170068,-0.4765 0.142549,-0.13823 0.20625,-0.25132 0.141557,-0.25132 -0.06469,0 -0.03266,-0.0993 0.07118,-0.2206 0.103841,-0.12133 0.138609,-0.26927 0.07726,-0.32876 -0.06134,-0.0595 -0.01805,-0.10815 0.09623,-0.10815 0.114276,0 0.16597,-0.0656 0.114877,-0.14576 -0.05109,-0.0802 0.02069,-0.23716 0.159512,-0.34888 0.138824,-0.11172 0.252407,-0.29965 0.252407,-0.41763 0,-0.11798 0.188118,-0.358 0.4180406,-0.53338 0.2299224,-0.17537 0.3792649,-0.35646 0.3318719,-0.40242 -0.047392,-0.046 0.1649698,-0.28066 0.4719168,-0.52157 0.3069472,-0.2409 0.7487908,-0.61379 0.9818749,-0.82864 0.233084,-0.21484 0.5352339,-0.41528 0.671444,-0.44542 0.1362099,-0.0301 0.3956792,-0.18168 0.5765981,-0.33677 0.1809189,-0.15508 0.393673,-0.24318 0.4727872,-0.19577 0.079114,0.0474 0.1438436,-0.004 0.1438436,-0.11527 0,-0.11081 0.048356,-0.15458 0.107458,-0.0973 0.059102,0.0573 0.296914,-0.0403 0.5284715,-0.21693 0.2315575,-0.17662 0.4916711,-0.27879 0.5780304,-0.22703 0.086359,0.0518 0.2699421,0.003 0.4079614,-0.10785 0.1380195,-0.11108 0.3001224,-0.15427 0.3602283,-0.096 0.060106,0.0583 0.2359732,-0.005 0.3908159,-0.14109 0.2476099,-0.21729 0.9278224,-0.30712 3.1209414,-0.41215 0.178023,-0.009 0.474629,-0.0938 0.659124,-0.18958 0.294708,-0.15295 0.754485,-0.24361 1.644692,-0.32433 0.13985,-0.0127 0.346285,-0.0933 0.458742,-0.17917 0.112458,-0.0859 0.295879,-0.10134 0.407603,-0.0344 0.128505,0.077 0.158696,0.052 0.08218,-0.068 -0.10955,-0.17188 0.218009,-0.27645 0.637339,-0.20347 0.07974,0.0139 0.239322,-0.0507 0.354629,-0.14348 0.115306,-0.0928 0.259373,-0.1205 0.320149,-0.0616 0.06078,0.0589 0.248454,-0.0139 0.417065,-0.16188 0.16861,-0.14796 0.455136,-0.29143 0.636722,-0.3188 0.181587,-0.0274 0.425512,-0.10748 0.542054,-0.17801 0.116542,-0.0705 0.211895,-0.0778 0.211895,-0.0162 0,0.0616 0.111082,0.0226 0.246849,-0.0866 0.371429,-0.29891 0.570218,-0.09 1.223313,1.28544 0.328113,0.69104 0.677439,1.40437 0.77628,1.58518 0.752332,1.37629 1.137029,2.21913 1.014014,2.22162 -0.06843,0.001 -0.04813,0.0569 0.0451,0.12328 0.226299,0.16122 0.810744,1.18922 0.676103,1.18922 -0.05824,0 0.05187,0.21483 0.244691,0.47741 0.192815,0.26257 0.350574,0.53064 0.350574,0.59571 0,0.0651 0.291161,0.68239 0.647026,1.37183 0.355866,0.68944 0.656964,1.3275 0.669109,1.41791 0.0366,0.27245 0.548537,0.29132 0.548537,0.0202 0,-0.13775 0.121258,-0.31625 0.269462,-0.39668 0.148204,-0.0804 0.262628,-0.19505 0.254274,-0.25473 -0.0084,-0.0597 -0.0057,-0.14549 0.006,-0.1907 0.01164,-0.0452 0.03222,-0.13766 0.04571,-0.20547 0.01348,-0.0678 0.423038,-0.91868 0.910116,-1.89082 0.48708,-0.97215 0.880105,-1.78581 0.873391,-1.80815 -0.01978,-0.0658 1.040425,-1.99004 1.197663,-2.17376 0.07914,-0.0925 0.141396,-0.20512 0.138334,-0.25032 -0.0031,-0.0452 0.117847,-0.36861 0.268688,-0.71868 0.150841,-0.35007 0.274255,-0.6742 0.274255,-0.72029 0,-0.0461 0.17119,-0.35144 0.380419,-0.67853 0.394774,-0.61717 0.409265,-0.65364 0.448566,-1.12895 0.02041,-0.2468 0.04713,-0.25264 0.18811,-0.0411 0.09038,0.13561 0.165493,0.18203 0.16692,0.10315 0.0014,-0.0789 0.117019,-0.0513 0.256869,0.0612 0.139851,0.11255 0.254274,0.1438 0.254274,0.0694 0,-0.0743 0.09154,-0.0464 0.203419,0.0621 0.11188,0.10849 0.345741,0.19726 0.519691,0.19726 0.17395,0 0.482893,0.0889 0.686539,0.19756 0.379894,0.20271 0.614505,0.27302 1.234265,0.3699 0.1955,0.0306 0.598222,0.17731 0.894936,0.32609 0.296716,0.14879 0.608255,0.22931 0.692309,0.17893 0.08405,-0.0504 0.20125,-0.0156 0.260437,0.0773 0.05919,0.0929 0.312377,0.15452 0.562639,0.13701 0.250263,-0.0175 0.60866,0.0489 0.796437,0.14761 0.187779,0.0987 0.531046,0.18792 0.76282,0.19826 1.891301,0.0844 2.828539,0.22484 3.071275,0.46022 0.103651,0.10051 0.285869,0.1465 0.404927,0.1022 0.11906,-0.0443 0.266828,-0.002 0.32838,0.095 0.06155,0.0966 0.273034,0.17558 0.469967,0.17558 0.196932,0 0.490867,0.11655 0.65319,0.259 0.162324,0.14245 0.397176,0.27532 0.521894,0.29527 0.37156,0.0594 1.667648,0.91534 1.667648,1.10127 0,0.0946 0.067,0.13186 0.148888,0.0828 0.279735,-0.16765 2.486935,2.42953 2.671839,3.14392 0.05379,0.2078 0.153092,0.37783 0.22068,0.37783 0.06759,0 0.129474,0.0925 0.137525,0.20547 0.008,0.11301 0.05891,0.3719 0.113011,0.57532 0.0541,0.20341 0.132186,0.51806 0.173518,0.69922 0.04133,0.18115 0.129268,0.41429 0.195416,0.51807 0.06615,0.10379 0.145753,0.41788 0.176894,0.69799 0.03114,0.2801 0.10283,0.93461 0.159302,1.45445 L 48.999963,297 H 24.999999 1 Z"
       id="path1995"
       inkscape:connector-curvature="0"
       clip-path="url(#clipPath52)" />
    <path
       style="opacity:1;fill:#333333;fill-opacity:1;fill-rule:nonzero;stroke:none;stroke-width:0.30535755;stroke-miterlimit:4;stroke-dasharray:none;stroke-opacity:0"
       d="m 35.281751,265.10973 c 0.01372,-2.23165 -0.01326,-2.46207 -0.329838,-2.81599 -0.132478,-0.14809 -0.253002,-0.42548 -0.267833,-0.61641 -0.01484,-0.19093 -0.08702,-0.34715 -0.160409,-0.34715 -0.0734,0 -0.133443,-0.0793 -0.133443,-0.17612 0,-0.0969 -0.09535,-0.27922 -0.211894,-0.40524 -0.543213,-0.58737 -0.720442,-0.8174 -0.720442,-0.93509 0,-0.07 -0.07628,-0.13259 -0.169516,-0.13904 -0.09323,-0.006 -0.284078,-0.11225 -0.424099,-0.23512 -0.140022,-0.12288 -0.459401,-0.29892 -0.709735,-0.39122 -0.402952,-0.14855 -0.461239,-0.12649 -0.508238,0.19236 -0.07137,0.48423 -0.641299,0.58227 -0.762934,0.13124 -0.05088,-0.18868 -0.178969,-0.34445 -0.284637,-0.34616 -0.105668,-0.002 -0.42097,-0.3749 -0.700671,-0.82932 -0.839815,-1.36442 -0.883731,-1.41131 -1.114912,-1.19034 -0.160831,0.15373 -0.158357,0.30646 0.01141,0.70388 0.235706,0.55179 0.137161,0.80879 -0.206143,0.53762 -0.118794,-0.0938 -0.597401,-0.37313 -1.063569,-0.62066 -0.466168,-0.24753 -1.190848,-0.71319 -1.610399,-1.03481 -0.841669,-0.64521 -2.542736,-2.3352 -2.542736,-2.52618 0,-0.0667 -0.160938,-0.20473 -0.357641,-0.30681 -0.278611,-0.14459 -0.519577,-0.12563 -1.090484,0.0858 -0.403065,0.14927 -0.909595,0.28193 -1.125622,0.2948 -0.216028,0.0129 -0.643015,0.15659 -0.94886,0.31937 -0.305846,0.16278 -0.656363,0.29596 -0.778927,0.29596 -0.122565,0 -0.360914,0.14794 -0.529664,0.32876 -0.168751,0.18081 -0.447561,0.32875 -0.619578,0.32875 -0.172017,0 -0.312759,0.0563 -0.312759,0.12504 0,0.0688 -0.419551,0.44967 -0.932336,0.84645 -0.512785,0.39677 -0.932337,0.82363 -0.932337,0.94857 0,0.12494 -0.101709,0.26501 -0.22602,0.31127 -0.124312,0.0462 -0.233886,0.17338 -0.243498,0.28249 -0.0096,0.10913 -0.057,0.43998 -0.105298,0.73524 -0.0483,0.29527 -0.130154,1.27239 -0.181893,2.17139 -0.05174,0.89899 -0.174957,1.84083 -0.273817,2.09297 -0.09886,0.25214 -0.1619,0.7914 -0.140089,1.19835 0.05871,1.09535 0.0058,1.47962 -0.203646,1.47962 -0.103209,0 -0.146666,-0.10357 -0.09657,-0.23016 0.114147,-0.28845 -0.630759,-1.28754 -1.080156,-1.44874 -0.441794,-0.15848 -0.648397,-0.7252 -0.786616,-2.15772 -0.178585,-1.85089 -0.153232,-2.73508 0.183916,-6.414 0.03198,-0.349 0.154164,-0.69208 0.271512,-0.76241 0.117349,-0.0703 0.160945,-0.21011 0.09688,-0.31062 -0.06406,-0.10052 -0.02753,-0.18276 0.08118,-0.18276 0.108711,0 0.15454,-0.10895 0.101843,-0.24211 -0.0527,-0.13317 0.09171,-0.45822 0.320895,-0.72233 0.22919,-0.26412 0.416708,-0.58864 0.416708,-0.72116 0,-0.13252 0.266987,-0.51545 0.593305,-0.85096 0.326318,-0.3355 0.593305,-0.64913 0.593305,-0.69694 0,-0.0478 0.266987,-0.34581 0.593305,-0.66224 0.326318,-0.31642 0.593305,-0.52096 0.593305,-0.45452 0,0.0664 0.158101,-0.0741 0.351335,-0.31232 0.193234,-0.23821 0.460221,-0.43311 0.593305,-0.43311 0.133084,0 0.397317,-0.15064 0.587185,-0.33475 0.189868,-0.18411 0.418714,-0.2907 0.508547,-0.23687 0.08983,0.0538 0.163332,0.0152 0.163332,-0.0859 0,-0.10108 0.07682,-0.13774 0.170713,-0.0815 0.09389,0.0563 0.216309,-0.0129 0.272037,-0.15373 0.05573,-0.14083 0.165839,-0.21738 0.244692,-0.17012 0.07885,0.0472 0.43207,-0.0641 0.784927,-0.24751 0.352856,-0.18339 0.801608,-0.33343 0.997225,-0.33343 0.195618,0 0.402633,-0.0455 0.460035,-0.10121 0.138221,-0.13403 1.391553,-0.27647 2.2406,-0.25464 0.732911,0.0188 2.034189,0.14714 2.034189,0.20056 0,0.0181 0.152564,0.0497 0.339031,0.0703 0.425373,0.0469 1.433925,0.70551 2.063136,1.34723 0.530208,0.54075 1.483519,0.8729 3.163027,1.10206 0.170612,0.0233 0.37922,0.14808 0.463571,0.27733 0.08436,0.12925 0.154536,0.16806 0.155963,0.0862 0.0014,-0.0818 0.150352,-0.0191 0.330945,0.13938 0.180593,0.15848 0.409439,0.23955 0.508548,0.18016 0.09911,-0.0594 0.180196,0.0117 0.180196,0.15797 0,0.14629 0.07628,0.22026 0.169517,0.16438 0.09323,-0.0559 0.169515,-0.0233 0.169515,0.0725 0,0.0957 0.09535,0.17437 0.211895,0.17473 0.230245,6.7e-4 1.754195,1.47553 1.533164,1.48374 -0.07406,0.003 -0.0011,0.0804 0.161993,0.17254 0.163159,0.0922 0.296653,0.31181 0.296653,0.48814 0,0.17632 0.06404,0.32058 0.142305,0.32058 0.183201,0 0.605746,0.84073 0.557653,1.10955 -0.02023,0.11301 0.04197,0.20547 0.138187,0.20547 0.09622,0 0.224005,0.29752 0.283969,0.66115 0.05997,0.36364 0.171958,0.69887 0.248874,0.74496 0.07691,0.0461 0.09984,0.18492 0.05093,0.30849 -0.0489,0.12357 -0.0146,0.26922 0.07625,0.32365 0.09084,0.0544 0.12756,0.26534 0.08161,0.46867 -0.06712,0.29703 -0.04785,0.32123 0.09808,0.12312 0.145894,-0.19806 0.18435,-0.14955 0.195467,0.24656 0.0076,0.27123 0.04965,0.97394 0.09341,1.56159 0.04376,0.58764 0.09591,1.75942 0.115889,2.60394 0.03544,1.49791 0.02548,1.54171 -0.406863,1.78934 -0.437746,0.25072 -1.111942,1.16196 -1.036565,1.40101 0.02139,0.0678 -0.03741,0.12328 -0.13064,0.12328 -0.09323,0 -0.170668,0.12945 -0.17207,0.28767 -0.0014,0.15821 -0.108555,0.58303 -0.238115,0.94404 -0.225831,0.62927 -0.235081,0.57835 -0.223935,-1.23283 z"
       id="path1997"
       inkscape:connector-curvature="0"
       clip-path="url(#clipPath48)" />
    <path
       style="opacity:1;fill:#f9bc90;fill-opacity:1;fill-rule:nonzero;stroke:none;stroke-width:0.30535755;stroke-miterlimit:4;stroke-dasharray:none;stroke-opacity:0"
       d="m 22.632587,280.82799 c -3.254772,-1.58492 -6.013252,-4.74366 -7.894204,-9.03966 -0.193055,-0.44093 -0.351009,-0.90026 -0.351009,-1.02073 0,-0.12048 -0.305128,-0.4928 -0.678063,-0.8274 -0.372934,-0.33459 -0.678063,-0.72388 -0.678063,-0.86508 0,-0.18623 0.07248,-0.1564 0.263886,0.10859 0.293531,0.40637 0.753209,0.49039 0.753209,0.13767 0,-0.12522 -0.180262,-0.34219 -0.400582,-0.48218 -0.504886,-0.32078 -0.945887,-1.59768 -0.986084,-2.85516 l -0.03054,-0.95537 -0.108436,1.23282 -0.108437,1.23283 -0.03054,-1.59297 c -0.03165,-1.65069 0.05541,-1.8768 0.651883,-1.69323 0.552226,0.16996 1.012734,1.25018 1.012734,2.37558 0,0.88323 0.03742,0.99281 0.339032,0.99281 0.207985,0 0.340949,-0.11119 0.343994,-0.28766 0.0027,-0.15821 0.120997,-1.47117 0.262818,-2.91769 0.14182,-1.44652 0.295495,-3.25878 0.3415,-4.02724 0.113904,-1.90264 0.307954,-2.50343 1.0474,-3.24283 1.437409,-1.43732 3.155786,-2.36679 5.140037,-2.78027 l 1.321011,-0.27526 1.323259,1.33535 c 1.387536,1.40022 1.804799,1.71245 3.713816,2.77897 1.684279,0.94096 1.823426,0.97529 1.697913,0.41884 l -0.102382,-0.4539 0.293084,0.41095 c 0.634546,0.88972 2.145461,2.30128 2.46326,2.30128 0.242536,0 0.28862,-0.0563 0.168307,-0.20547 -0.09112,-0.11301 -0.249059,-0.44588 -0.35097,-0.7397 -0.291104,-0.8393 0.223882,-0.69207 1.246236,0.35628 1.221494,1.25256 1.541226,2.2133 1.689717,5.07733 0.113902,2.19685 0.129273,2.26774 0.481199,2.21909 0.306314,-0.0424 0.379488,-0.19257 0.464865,-0.95433 0.140925,-1.2574 0.511681,-2.11934 1.04713,-2.43439 0.429087,-0.25246 0.469357,-0.24927 0.707349,0.056 0.260941,0.3347 0.362889,2.41157 0.155265,3.16302 -0.09684,0.35049 -0.117398,0.35559 -0.331327,0.0822 -0.212229,-0.27124 -0.228452,-0.26522 -0.23347,0.0865 -0.008,0.55722 -0.459565,1.30906 -0.860441,1.43244 -0.445501,0.13711 -0.326785,0.50336 0.146762,0.4528 0.528022,-0.0564 0.296971,0.34289 -0.491046,0.84857 -0.365935,0.23482 -0.665338,0.53786 -0.665338,0.67342 0,0.13555 -0.06763,0.37491 -0.150298,0.53189 -0.08267,0.15699 -0.54163,1.06211 -1.019924,2.01139 -1.68481,3.34387 -4.008749,5.83596 -6.601347,7.07898 -0.972073,0.46606 -1.338908,0.54879 -2.653648,0.59846 -1.34882,0.051 -1.621128,0.0111 -2.349519,-0.34354 z m -8.756075,-13.7857 c -0.0039,-0.62756 -0.195605,-1.10955 -0.441245,-1.10955 -0.130863,0 -0.23348,0.16346 -0.232188,0.36985 0.0039,0.62756 0.195606,1.10955 0.441245,1.10955 0.130864,0 0.23348,-0.16346 0.232188,-0.36985 z m 22.953557,0.10984 c 0.161469,-0.40803 0.120367,-1.21939 -0.06177,-1.21939 -0.196604,0 -0.492162,0.98122 -0.383727,1.27392 0.105139,0.2838 0.322122,0.25724 0.4455,-0.0545 z m 0.902599,-1.34041 c -0.03896,-0.24987 -0.07188,-0.0845 -0.07316,0.36759 -0.0011,0.45203 0.03061,0.65647 0.07084,0.4543 0.04024,-0.20218 0.04128,-0.57203 0.0023,-0.82189 z m -0.368944,-1.18306 c -0.06146,-0.0964 -0.186524,-0.17531 -0.27793,-0.17531 -0.09141,0 -0.06783,0.10349 0.05239,0.22998 0.243367,0.25607 0.399481,0.21823 0.225548,-0.0547 z"
       id="path1999"
       inkscape:connector-curvature="0"
       clip-path="url(#clipPath44)" />
    <path
       style="opacity:1;fill:#f9bc90;fill-opacity:1;fill-rule:nonzero;stroke:none;stroke-width:0.30535755;stroke-miterlimit:4;stroke-dasharray:none;stroke-opacity:0"
       d="m 24.431067,292.84951 c -0.288283,-0.56505 -0.979174,-1.95198 -1.535312,-3.08208 -0.556138,-1.13009 -1.515663,-3.07546 -2.132277,-4.32305 -0.96403,-1.95051 -1.121117,-2.39552 -1.121117,-3.176 0,-0.82264 0.02479,-0.88362 0.264657,-0.65103 0.14556,0.14115 0.813029,0.4194 1.483262,0.61835 2.228095,0.66135 4.792933,0.35265 7.434556,-0.89483 l 1.497015,-0.70695 v 1.31101 c 0,1.16888 -0.06662,1.44568 -0.614485,2.55314 -0.337967,0.68317 -1.016515,2.05579 -1.507884,3.05027 -2.266218,4.5866 -3.145003,6.32852 -3.192669,6.32852 -0.02837,0 -0.287464,-0.46231 -0.575746,-1.02735 z"
       id="path2001"
       inkscape:connector-curvature="0"
       clip-path="url(#clipPath40)" />
    <path
       style="opacity:1;fill:#d3a17c;fill-opacity:1;fill-rule:nonzero;stroke:none;stroke-width:0.30535755;stroke-miterlimit:4;stroke-dasharray:none;stroke-opacity:0"
       d="m 22.185097,282.3634 c -0.419551,-0.0844 -1.144231,-0.30311 -1.610399,-0.48608 l -0.847579,-0.33267 0.05558,-1.22565 0.05558,-1.22564 0.451232,0.40572 c 0.248177,0.22315 0.503775,0.40572 0.567993,0.40572 0.06422,0 0.218986,0.0991 0.343931,0.22029 0.124944,0.12115 0.721423,0.43553 1.325508,0.6986 0.866912,0.37754 1.330576,0.47583 2.200537,0.46652 0.606209,-0.006 1.216621,-0.0504 1.356471,-0.0976 0.139851,-0.0472 0.48312,-0.14616 0.762821,-0.21997 0.279701,-0.0738 0.793089,-0.30728 1.140863,-0.51883 0.347773,-0.21156 0.693113,-0.38465 0.767421,-0.38465 0.0743,0 0.38566,-0.22191 0.691894,-0.49313 0.306232,-0.27123 0.628361,-0.49313 0.715841,-0.49313 0.08748,0 0.159053,0.3318 0.159053,0.73733 0,0.73568 -0.0023,0.73843 -1.009749,1.2316 -2.373246,1.16169 -5.244624,1.6901 -7.127004,1.31155 z"
       id="path2003"
       inkscape:connector-curvature="0"
       clip-path="url(#clipPath36)" />
    <path
       style="opacity:1;fill:#f1b68b;fill-opacity:1;fill-rule:nonzero;stroke:none;stroke-width:0.1079602;stroke-miterlimit:4;stroke-dasharray:none;stroke-opacity:0"
       d="m 36.763889,269.43841 c -0.04605,-0.0283 -0.176861,-0.0514 -0.290673,-0.0514 -0.407167,0 -0.414969,-0.22065 -0.01481,-0.41861 0.136716,-0.0676 0.330966,-0.23889 0.437434,-0.38565 l 0.191514,-0.26399 0.04291,0.16509 c 0.03581,0.13777 0.03909,0.13007 0.01981,-0.0465 -0.0127,-0.11639 0.014,-0.31254 0.05934,-0.43587 0.04535,-0.12334 0.0846,-0.34194 0.08723,-0.48577 l 0.0048,-0.26152 0.14738,0.17434 c 0.184881,0.21872 0.197626,0.57442 0.0281,0.78457 -0.06715,0.0833 -0.117769,0.23689 -0.118533,0.3598 -6.94e-4,0.11797 -0.03105,0.23231 -0.06738,0.25409 -0.03633,0.0218 -0.106119,0.12138 -0.155097,0.22136 -0.237455,0.48474 -0.23023,0.47717 -0.372023,0.39011 z m 0.02108,-0.3272 c 0.08391,-0.0814 0.150847,-0.19251 0.148759,-0.24699 -0.0028,-0.0728 -0.01819,-0.0643 -0.058,0.0317 -0.02981,0.0719 -0.09553,0.13076 -0.146033,0.13076 -0.05051,0 -0.09183,0.0374 -0.09183,0.0831 0,0.0457 -0.06068,0.0945 -0.134848,0.10832 l -0.13485,0.0252 0.132126,0.008 c 0.07267,0.004 0.200774,-0.0587 0.28468,-0.14001 z m 0.611779,-1.37762 c -0.01662,-0.04 -0.03023,-0.007 -0.03023,0.0726 0,0.0799 0.01361,0.1126 0.03023,0.0726 0.01662,-0.04 0.01662,-0.10533 0,-0.14529 z"
       id="path2005"
       inkscape:connector-curvature="0"
       clip-path="url(#clipPath32)" />
    <path
       style="opacity:1;fill:#d9a67f;fill-opacity:1;fill-rule:nonzero;stroke:none;stroke-width:0.1079602;stroke-miterlimit:4;stroke-dasharray:none;stroke-opacity:0"
       d="m 13.390314,269.23008 c -0.13673,-0.14383 -0.26122,-0.26152 -0.276646,-0.26152 -0.09516,0 -0.269358,-0.22354 -0.270465,-0.34708 -7.24e-4,-0.0808 -0.05466,-0.26091 -0.119866,-0.40025 -0.0652,-0.13933 -0.118549,-0.33565 -0.118549,-0.43625 0,-0.10061 -0.02795,-0.27428 -0.0621,-0.38594 -0.06669,-0.21803 -0.01493,-1.45252 0.06091,-1.45252 0.02383,0 0.05959,0.21576 0.07947,0.47946 0.07821,1.03721 0.48562,2.06698 0.970049,2.4519 0.30649,0.24354 0.336142,0.32315 0.12036,0.32315 -0.08241,0 -0.149832,-0.0267 -0.149832,-0.0594 0,-0.0326 -0.06617,-0.0886 -0.147046,-0.12433 -0.08088,-0.0357 -0.158656,-0.10709 -0.172846,-0.15857 -0.01732,-0.0628 -0.02809,-0.0519 -0.03275,0.0332 -0.0044,0.0796 0.03773,0.14059 0.112913,0.16373 0.06593,0.0203 0.119866,0.0744 0.119866,0.12015 0,0.0578 0.07029,0.0833 0.229742,0.0833 0.258109,0 0.316032,0.0325 0.269145,0.15097 -0.069,0.17438 -0.355545,0.0901 -0.612354,-0.18003 z"
       id="path2007"
       inkscape:connector-curvature="0"
       clip-path="url(#clipPath28)" />
    <path
       style="opacity:1;fill:#d9a67f;fill-opacity:1;fill-rule:nonzero;stroke:none;stroke-width:0.1079602;stroke-miterlimit:4;stroke-dasharray:none;stroke-opacity:0"
       d="m 13.481243,267.29115 c -0.106967,-0.11461 -0.134677,-0.20049 -0.224096,-0.69454 -0.06046,-0.33402 0.02321,-0.62103 0.18104,-0.62103 0.327216,0 0.574063,1.2756 0.268827,1.38918 -0.12302,0.0458 -0.110568,0.0498 -0.225771,-0.0736 z"
       id="path2009"
       inkscape:connector-curvature="0"
       clip-path="url(#clipPath24)" />
    <path
       style="opacity:1;fill:#e1ab83;fill-opacity:1;fill-rule:nonzero;stroke:none;stroke-width:0.1079602;stroke-miterlimit:4;stroke-dasharray:none;stroke-opacity:0"
       d="m 36.462123,267.29054 c -0.08985,-0.16279 -0.07965,-0.43985 0.03007,-0.81716 0.203826,-0.70089 0.38301,-0.67558 0.384392,0.0543 0.0011,0.6112 -0.246542,1.06711 -0.414462,0.76286 z"
       id="path2011"
       inkscape:connector-curvature="0"
       clip-path="url(#clipPath20)" />
  </g>
</svg>
