<?xml version="1.0" encoding="UTF-8" standalone="no"?>
<!-- Created with Inkscape (http://www.inkscape.org/) -->

<svg
   xmlns:dc="http://purl.org/dc/elements/1.1/"
   xmlns:cc="http://creativecommons.org/ns#"
   xmlns:rdf="http://www.w3.org/1999/02/22-rdf-syntax-ns#"
   xmlns:svg="http://www.w3.org/2000/svg"
   xmlns="http://www.w3.org/2000/svg"
   xmlns:sodipodi="http://sodipodi.sourceforge.net/DTD/sodipodi-0.dtd"
   xmlns:inkscape="http://www.inkscape.org/namespaces/inkscape"
   width="50mm"
   height="50mm"
   viewBox="0 0 50 50"
   version="1.1"
   id="svg440"
   inkscape:version="0.92.1 r15371"
   sodipodi:docname="profile.svg">
  <defs
     id="defs434" />
  <sodipodi:namedview
     id="base"
     pagecolor="#ffffff"
     bordercolor="#666666"
     borderopacity="1.0"
     inkscape:pageopacity="0.0"
     inkscape:pageshadow="2"
     inkscape:zoom="2.7305201"
     inkscape:cx="94.48819"
     inkscape:cy="94.488888"
     inkscape:document-units="mm"
     inkscape:current-layer="layer1"
     showgrid="false"
     showborder="false"
     inkscape:window-width="1024"
     inkscape:window-height="715"
     inkscape:window-x="-8"
     inkscape:window-y="-8"
     inkscape:window-maximized="1" />
  <metadata
     id="metadata437">
    <rdf:RDF>
      <cc:Work
         rdf:about="">
        <dc:format>image/svg+xml</dc:format>
        <dc:type
           rdf:resource="http://purl.org/dc/dcmitype/StillImage" />
        <dc:title />
      </cc:Work>
    </rdf:RDF>
  </metadata>
  <g
     inkscape:label="Layer 1"
     inkscape:groupmode="layer"
     id="layer1"
     transform="translate(0,-247)">
    <path
       style="opacity:1;fill:#ffdecc;fill-opacity:1;fill-rule:nonzero;stroke:none;stroke-width:0.26605788;stroke-miterlimit:4;stroke-dasharray:none;stroke-opacity:0"
       d="m 24.50798,283.32572 c -0.236058,-0.29627 -0.95474,-0.99681 -1.597072,-1.55677 -2.048278,-1.78557 -2.918151,-2.72556 -3.332216,-3.60081 -0.217304,-0.45933 -0.485231,-0.83515 -0.595391,-0.83515 -0.133523,0 -0.17295,-0.10455 -0.118272,-0.31362 0.05878,-0.22478 0.03116,-0.2822 -0.09749,-0.20269 -0.129722,0.0802 -0.166331,-0.004 -0.131994,-0.3045 0.02613,-0.2285 0.108811,-0.41545 0.183717,-0.41545 0.07491,0 0.421017,0.42542 0.769129,0.94538 0.699879,1.04537 1.715783,2.14786 2.54409,2.76094 0.297289,0.22004 0.493642,0.44772 0.436334,0.50597 -0.05731,0.0582 -0.006,0.0892 0.113973,0.0688 0.119995,-0.0204 0.41452,0.0494 0.654502,0.15526 0.73847,0.32561 2.426554,0.35868 3.2272,0.0632 0.384895,-0.14205 0.803137,-0.34534 0.929428,-0.45177 0.126289,-0.10644 0.291671,-0.19352 0.367512,-0.19352 0.269564,0 2.069965,-1.98011 2.74402,-3.01791 0.376676,-0.57996 0.697419,-1.05446 0.712765,-1.05446 0.01534,0 0.0331,0.35997 0.03947,0.79994 0.0099,0.6873 -0.02658,0.79993 -0.259213,0.79993 -0.148924,0 -0.270771,0.0693 -0.270771,0.15402 0,0.0848 -0.07078,0.11033 -0.157283,0.0568 -0.09442,-0.0583 -0.143757,0.0111 -0.123443,0.17322 0.04803,0.3839 -0.144474,0.76532 -0.81011,1.60506 -0.589568,0.74377 -2.035125,1.89835 -2.285074,1.82511 -0.07501,-0.022 -0.09951,0.0197 -0.05446,0.0926 0.118423,0.1916 -0.306404,0.50125 -0.512744,0.37373 -0.112716,-0.0697 -0.136119,-0.046 -0.06624,0.0671 0.0671,0.10855 -0.239127,0.53045 -0.808123,1.11329 -0.503893,0.51615 -0.951462,0.93543 -0.994604,0.93173 -0.04313,-0.003 -0.271573,-0.24913 -0.507632,-0.54541 z m -2.261529,-3.0839 c 0,-0.08 -0.06931,-0.14544 -0.154029,-0.14544 -0.08471,0 -0.113576,0.0654 -0.06413,0.14544 0.04943,0.08 0.118751,0.14544 0.154029,0.14544 0.03528,0 0.06413,-0.0654 0.06413,-0.14544 z"
       id="path24"
       inkscape:connector-curvature="0" />
    <path
       style="opacity:1;fill:#6600ff;fill-opacity:1;fill-rule:nonzero;stroke:none;stroke-width:0.25609899;stroke-miterlimit:4;stroke-dasharray:none;stroke-opacity:0"
       d="m 23.245494,296.92929 c -0.79778,-0.12199 -1.24737,-0.17648 -2.99742,-0.36331 -0.417732,-0.0446 -0.851962,-0.17371 -0.964982,-0.28693 -0.113,-0.11321 -0.32997,-0.17322 -0.48215,-0.13335 -0.15218,0.0399 -0.4187,-0.0207 -0.59229,-0.13468 -0.17358,-0.11395 -0.37013,-0.19727 -0.43677,-0.18515 -0.29894,0.0543 -0.47918,-0.0244 -0.38931,-0.17012 0.068,-0.11033 -0.0383,-0.1389 -0.34757,-0.0934 -0.24511,0.036 -0.47806,0.013 -0.51768,-0.0512 -0.0395,-0.0642 -0.22566,-0.11675 -0.41344,-0.11675 -0.187781,0 -0.341421,-0.0477 -0.341421,-0.10589 0,-0.0582 -0.18883,-0.18436 -0.41962,-0.28025 -0.23078,-0.0959 -0.60527,-0.2514 -0.83221,-0.34557 -0.28837,-0.11967 -0.36207,-0.20804 -0.24477,-0.29347 0.107267,-0.0782 0.0724,-0.0911 -0.0966,-0.0358 -0.1496,0.0489 -0.42302,-0.0184 -0.62942,-0.155 -0.20071,-0.13279 -0.67964,-0.40222 -1.06428,-0.59872 -0.384931,-0.19665 -0.682071,-0.4407 -0.660911,-0.54285 0.0211,-0.10211 -0.0265,-0.14538 -0.105844,-0.0962 -0.0793,0.0491 -0.32667,-0.0408 -0.54957,-0.19978 -0.2229,-0.159 -0.45129,-0.28911 -0.50752,-0.28911 -0.0562,0 -0.24447,-0.15375 -0.41831,-0.34167 -0.17383,-0.18792 -0.3541504,-0.30353 -0.4006804,-0.25691 -0.0466,0.0466 -0.0846,0.0112 -0.0846,-0.0787 0,-0.0899 -0.0674,-0.16348 -0.14986,-0.16348 -0.2479201,0 -0.5745402,-0.40653 -0.4668701,-0.58108 0.0625,-0.10122 0.0395,-0.12507 -0.061,-0.0629 -0.0889,0.055 -0.1614901,0.0294 -0.1614901,-0.0567 0,-0.0862 -0.0546,-0.12291 -0.12117,-0.0815 -0.1664601,0.10311 -0.6043202,-0.40336 -0.4735701,-0.54776 0.0579,-0.0639 0.035,-0.076 -0.0511,-0.0269 -0.2374301,0.13567 -2.9949109,-2.81339 -2.8890409,-3.08979 0.055,-0.14371 0.0297,-0.18887 -0.071,-0.12651 -0.1661301,0.10289 -0.4896502,-0.37793 -0.5226002,-0.77664 -0.0109,-0.12936 0.0799,-0.26604 0.2012201,-0.30373 0.7148102,-0.22197 2.2145407,-0.8294 2.4831907,-1.00576 0.1733601,-0.1138 0.4396002,-0.20692 0.5916202,-0.20692 0.15203,0 0.3153001,-0.0631 0.3628601,-0.14012 0.0476,-0.0771 0.20946,-0.14013 0.3598201,-0.14013 0.15036,0 0.3826701,-0.0557 0.5162601,-0.12378 0.1335801,-0.0681 0.4316901,-0.20156 0.6624803,-0.29661 0.2307802,-0.0951 0.5289102,-0.22853 0.6624902,-0.29661 0.13358,-0.0681 0.33899,-0.12378 0.45647,-0.12378 0.20721,0 0.35521,-0.0583 1.01215,-0.39851 0.172051,-0.0891 0.467301,-0.162 0.656131,-0.162 0.18883,0 0.38222,-0.0631 0.42976,-0.14012 0.0476,-0.0771 0.24009,-0.14013 0.42787,-0.14013 0.18778,0 0.34142,-0.0704 0.34142,-0.15648 0,-0.0876 0.12336,-0.12415 0.27993,-0.0831 0.15396,0.0403 0.24952,0.0241 0.21235,-0.0362 -0.0371,-0.0603 0.22085,-0.19046 0.5734,-0.28936 1.227551,-0.34432 2.710801,-1.60127 2.710801,-2.2972 0,-0.11215 0.063,-0.24287 0.13988,-0.2905 0.0769,-0.0476 0.13987,-0.17533 0.13987,-0.28379 0,-0.21204 0.96479,-1.32768 1.14817,-1.32768 0.0608,0 0.110656,0.0674 0.110656,0.14992 0,0.19587 0.759911,1.2993 1.194991,1.73519 0.21657,0.21696 0.31096,0.43358 0.25903,0.59438 -0.0647,0.20036 -0.0523,0.21143 0.0598,0.0532 0.16279,-0.22976 0.44593,-0.0111 2.3637,1.82711 0.770981,0.73892 1.123141,1.17262 1.068351,1.31571 -0.11294,0.29485 0.22529,0.66398 0.5342,0.58305 0.14001,-0.0367 0.25455,2.4e-4 0.25455,0.0821 0,0.0818 0.12589,0.0346 0.27975,-0.10488 0.15385,-0.1395 0.27974,-0.30979 0.27974,-0.37841 0,-0.21606 0.69521,-0.83179 0.83878,-0.74289 0.081,0.0501 0.0992,-0.0142 0.0445,-0.15691 -0.0718,-0.18737 -0.0382,-0.22091 0.14873,-0.14901 0.14491,0.0557 0.20686,0.0369 0.15504,-0.0471 -0.0474,-0.077 0.0908,-0.29021 0.30745,-0.47393 0.21656,-0.18373 0.652281,-0.57722 0.968291,-0.87444 1.30026,-1.22298 1.48122,-1.35111 1.62448,-1.1503 0.101344,0.142 0.11463,0.12585 0.0531,-0.0644 -0.0538,-0.16662 0.0617,-0.40758 0.33584,-0.70064 0.22985,-0.24568 0.4182,-0.5115 0.41857,-0.59071 2.8e-4,-0.0792 0.12521,-0.25088 0.27746,-0.38149 0.15707,-0.13473 0.24137,-0.33009 0.19485,-0.45152 -0.045,-0.11775 -0.0123,-0.21408 0.0729,-0.21408 0.0851,0 0.15484,0.0499 0.15484,0.111 0,0.061 0.220291,0.34493 0.489541,0.6309 0.26925,0.28598 0.48955,0.61068 0.48955,0.72157 0,0.11089 0.0664,0.24272 0.14761,0.29299 0.0812,0.0503 0.12796,0.19363 0.103989,0.31856 -0.0403,0.20948 0.0939,0.38672 1.10196,1.4556 0.19589,0.20771 0.53724,0.4175 0.75855,0.46618 0.2213,0.0487 0.43827,0.14675 0.48216,0.2179 0.0439,0.0711 0.20281,0.12935 0.35318,0.12935 0.150351,0 0.382681,0.0557 0.516261,0.12378 0.72975,0.37191 2.53238,0.99724 2.87474,0.99724 0.1295,0 0.23546,0.0631 0.23546,0.14012 0,0.0771 0.12217,0.14013 0.27149,0.14013 0.149311,0 0.310381,0.0631 0.357921,0.14013 0.0476,0.0771 0.20947,0.14013 0.35983,0.14013 0.15036,0 0.38268,0.058 0.51626,0.12893 0.13359,0.0709 0.62052,0.26623 1.0821,0.43405 0.46157,0.16782 0.96509,0.3592 1.11895,0.42531 0.15385,0.0661 0.688861,0.28225 1.188891,0.48031 0.50003,0.19806 1.01845,0.42158 1.15203,0.49673 0.13358,0.0751 0.33423,0.13659 0.44588,0.13659 0.28608,0 0.21643,0.56123 -0.11754,0.94698 -0.17787,0.20548 -0.37508,0.29191 -0.56244,0.24652 -0.15868,-0.0384 -0.20984,-0.0337 -0.11367,0.0111 0.0961,0.0442 0.17483,0.16723 0.17483,0.2733 0,0.23274 -1.12836,1.41129 -1.29898,1.35677 -0.0663,-0.0212 -0.0861,0.0172 -0.0442,0.0853 0.0791,0.12818 -2.188231,2.40541 -2.394941,2.40541 -0.0641,0 -0.20317,0.12038 -0.30903,0.26751 -0.109566,0.15226 -0.28338,0.23256 -0.4035,0.18638 -0.12752,-0.049 -0.17476,-0.0223 -0.11936,0.0675 0.0504,0.0817 -0.0651,0.25155 -0.25679,0.37735 -0.19166,0.12582 -0.34847,0.18372 -0.34847,0.12868 0,-0.055 -0.0924,0.0223 -0.20536,0.17193 -0.11295,0.14961 -0.207361,0.22773 -0.209811,0.17361 -0.002,-0.0541 -0.16972,0.055 -0.37171,0.24259 -0.20201,0.18755 -0.41571,0.31102 -0.4749,0.27437 -0.0592,-0.0367 -0.14537,0.0319 -0.19152,0.15242 -0.056,0.14612 -0.1889,0.19293 -0.39929,0.14061 -0.17346,-0.0431 -0.23339,-0.0411 -0.13315,0.004 0.13811,0.0628 0.12117,0.12933 -0.0699,0.27452 -0.29739,0.22593 -0.51484,0.25941 -0.39206,0.0604 0.0476,-0.0771 0.0275,-0.14012 -0.0446,-0.14012 -0.17771,0 -0.46208,0.35655 -0.3633,0.45552 0.0436,0.0437 -0.0671,0.12558 -0.24599,0.18202 -0.17889,0.0564 -0.76051,0.31442 -1.292491,0.57331 -0.53198,0.25889 -1.08272,0.47071 -1.22386,0.47071 -0.14114,0 -0.25662,0.0643 -0.25662,0.14279 0,0.0802 -0.14506,0.10634 -0.33072,0.0596 -0.22758,-0.0572 -0.35706,-0.0144 -0.41521,0.13745 -0.0512,0.1336 -0.25174,0.22062 -0.5085,0.22062 -0.23321,0 -0.424,0.0564 -0.424,0.12541 0,0.069 -0.23603,0.16035 -0.524521,0.20307 -0.28847,0.0427 -0.87068,0.14293 -1.2938,0.2227 -2.11484,0.39872 -5.544701,0.61273 -6.783682,0.42328 z m -3.604562,-1.05911 c -0.0464,-0.0466 -0.16711,-0.0514 -0.26809,-0.0111 -0.11157,0.0447 -0.0784,0.0779 0.0845,0.0847 0.14746,0.006 0.23006,-0.027 0.18359,-0.0736 z m 2.556052,-14.13781 c -0.18038,-0.19238 -0.36444,-0.31307 -0.40902,-0.26819 -0.0446,0.0449 0.0676,0.20225 0.24917,0.34976 0.46411,0.37697 0.54914,0.33357 0.15985,-0.0815 z m 5.874032,0.20963 c 0,-0.0771 -0.0277,-0.14012 -0.0617,-0.14012 -0.034,0 -0.100589,0.0631 -0.14813,0.14012 -0.0476,0.0771 -0.0198,0.14013 0.0617,0.14013 0.0815,0 0.14814,-0.0631 0.14814,-0.14013 z m 3.03925,-2.04645 c -0.0465,-0.0466 -0.16712,-0.0516 -0.26809,-0.0111 -0.11158,0.0447 -0.0785,0.0779 0.0845,0.0847 0.14744,0.006 0.23005,-0.027 0.18357,-0.0737 z M 20.060544,279.6153 c -0.0465,-0.0466 -0.16712,-0.0516 -0.268082,-0.0111 -0.11158,0.0447 -0.0785,0.0779 0.0845,0.0847 0.147442,0.006 0.230062,-0.027 0.183582,-0.0736 z m -0.661462,-0.81791 c 0,-0.034 -0.063,-0.10077 -0.13987,-0.14839 -0.0769,-0.0476 -0.13987,-0.0198 -0.13987,0.0618 0,0.0816 0.0629,0.14841 0.13987,0.14841 0.0769,0 0.13987,-0.0278 0.13987,-0.0618 z"
       id="path453"
       inkscape:connector-curvature="0" />
    <path
       style="opacity:1;fill:#333333;fill-opacity:1;fill-rule:nonzero;stroke:none;stroke-width:0.25609899;stroke-miterlimit:4;stroke-dasharray:none;stroke-opacity:0"
       d="m 24.224585,280.40059 c -0.0476,-0.0771 -0.23637,-0.14013 -0.41961,-0.14013 -0.409891,0 -0.583711,-0.23284 -0.246491,-0.3302 0.13558,-0.0391 0.0262,-0.0597 -0.24305,-0.0456 -0.33677,0.0176 -0.47794,-0.0312 -0.45237,-0.15628 0.0216,-0.10544 -0.0666,-0.1643 -0.2098,-0.14013 -0.16896,0.0284 -0.234,-0.0358 -0.20589,-0.20353 0.0226,-0.13488 -0.0247,-0.24523 -0.104856,-0.24523 -0.0803,0 -0.14601,0.0697 -0.14601,0.15501 0,0.0853 -0.27479,-0.11968 -0.61066,-0.45541 -0.33586,-0.33574 -0.58391,-0.65773 -0.55123,-0.71553 0.0327,-0.0578 -0.032,-0.10511 -0.14365,-0.10511 -0.22127,0 -0.43569,-0.37796 -0.3856,-0.67966 0.0173,-0.10411 -0.0331,-0.14931 -0.11185,-0.10056 -0.0788,0.0488 -0.24198,-0.10255 -0.36262,-0.33626 -0.12065,-0.23374 -0.281881,-0.42497 -0.358301,-0.42497 -0.0806,0 -0.0997,-0.15664 -0.0454,-0.37335 0.0747,-0.29836 0.0508,-0.35695 -0.11904,-0.29164 -0.15452,0.0594 -0.32838,-0.15438 -0.63657,-0.78271 -0.76513,-1.55992 -0.83043,-1.80305 -0.85313,-3.17653 -0.0204,-1.23411 -0.007,-1.30566 0.18483,-0.98089 0.24236,0.41049 0.27403,0.61252 0.0769,0.49043 -0.25868,-0.16015 -0.14279,0.30425 0.13987,0.56053 0.15386,0.13949 0.27973,0.40149 0.27973,0.58223 0,0.18073 0.0629,0.3286 0.13987,0.3286 0.0769,0 0.13987,0.11512 0.13987,0.25583 0,0.14071 0.15542,0.4021 0.34537,0.58088 0.18994,0.17878 0.32185,0.36319 0.29309,0.40979 -0.0288,0.0465 0.345591,0.0847 0.831871,0.0847 0.48629,0 0.86063,-0.0236 0.83186,-0.0524 -0.0538,-0.0539 0.8704,-0.71833 0.99922,-0.71833 0.0396,0 0.0357,0.0587 -0.009,0.13044 -0.0443,0.0717 -0.0114,0.17323 0.0731,0.22551 0.0979,0.0606 0.1367,-0.017 0.107156,-0.21371 -0.0345,-0.23006 0.0791,-0.38199 0.44582,-0.59603 0.41632,-0.24298 0.61915,-0.27135 1.316201,-0.18411 0.45322,0.0567 0.75736,0.14465 0.67586,0.19536 -0.0815,0.0507 -0.17025,0.24985 -0.19724,0.44254 -0.045,0.32154 -0.12031,0.35607 -0.91637,0.42038 -0.477021,0.0384 -0.945941,0.14888 -1.042031,0.24523 -0.0961,0.0963 -0.28803,0.17515 -0.4265,0.17515 -0.13846,0 -0.25176,0.0631 -0.25176,0.14013 0,0.0771 0.0542,0.14013 0.12047,0.14013 0.0663,0 0.0912,0.15335 0.0555,0.34078 -0.0447,0.23424 0.0476,0.46246 0.29511,0.7299 0.26743,0.28895 0.31617,0.42078 0.18933,0.51214 -0.111012,0.08 -0.0624,0.0993 0.13902,0.0552 0.21868,-0.0479 0.33462,0.01 0.39406,0.19804 0.0463,0.14621 0.14666,0.26585 0.22294,0.26585 0.0763,0 0.0998,-0.0631 0.0523,-0.14013 -0.0476,-0.0771 -0.0198,-0.14012 0.0617,-0.14012 0.0814,0 0.148121,0.0631 0.148121,0.14012 0,0.26674 0.82957,0.15182 1.01155,-0.14012 0.22352,-0.35857 0.66677,-0.3801 0.57485,-0.0279 -0.0546,0.20891 0.032,0.25812 0.50263,0.28593 0.32201,0.019 0.5685,-0.0295 0.5685,-0.1122 0,-0.0802 0.12589,-0.1458 0.27975,-0.1458 0.15385,0 0.2807,-0.0788 0.28187,-0.17516 0.002,-0.13369 0.0274,-0.13545 0.108589,-0.007 0.13049,0.20564 0.37881,0.0497 0.37881,-0.23783 0,-0.11561 0.0816,-0.19343 0.181471,-0.17294 0.0998,0.0205 0.17103,-0.0426 0.15827,-0.14012 -0.0487,-0.37198 0.0158,-0.54061 0.1702,-0.44501 0.1122,0.0696 0.13325,-0.009 0.0702,-0.2604 -0.0495,-0.19779 -0.0429,-0.38602 0.0146,-0.41831 0.0575,-0.0323 0.0172,-0.0361 -0.0897,-0.008 -0.106945,0.0276 -0.28188,-0.0748 -0.38876,-0.22772 -0.261131,-0.3735 -0.935171,-0.54116 -1.865551,-0.46405 -0.74664,0.0619 -0.76882,0.0534 -0.78842,-0.30095 -0.0129,-0.23473 0.0523,-0.36462 0.18309,-0.36462 0.1118,0 0.16932,-0.055 0.12785,-0.12223 -0.0786,-0.12739 0.68413,-0.29393 1.35837,-0.2966 0.44469,-0.002 1.250981,0.5326 1.121161,0.74304 -0.0473,0.0767 -0.0239,0.101 0.052,0.054 0.13803,-0.0856 1.14247,0.51742 1.33664,0.80228 0.0692,0.10166 0.103444,0.0937 0.104855,-0.0244 10e-4,-0.0963 0.12803,-0.17517 0.28188,-0.17517 0.15387,0 0.27974,0.0552 0.27974,0.12261 0,0.0674 0.16107,0.12261 0.35793,0.12261 0.2022,0 0.33568,-0.0686 0.30679,-0.15764 -0.0282,-0.0867 0.094,-0.30951 0.27149,-0.49512 0.17744,-0.18562 0.32262,-0.26445 0.32262,-0.17517 0,0.0893 0.0614,0.16232 0.13637,0.16232 0.0769,0 0.0998,-0.18324 0.0525,-0.42038 -0.0535,-0.2678 -0.0269,-0.42038 0.0734,-0.42038 0.0866,0 0.157361,-0.12558 0.157361,-0.27908 0,-0.15349 0.12587,-0.35781 0.27973,-0.45409 0.2963,-0.18537 0.3712,-0.47329 0.14345,-0.55133 -0.075,-0.0257 -0.0993,-0.1879 -0.054,-0.36043 0.16272,-0.62052 0.34719,-0.1293 0.32027,0.85288 -0.0323,1.17989 -0.16981,1.6673 -0.816301,2.89397 -0.26401,0.50096 -0.54803,1.0509 -0.63115,1.22209 -0.0832,0.17121 -0.3238,0.34952 -0.53484,0.3963 -0.32755,0.0726 -0.36267,0.12444 -0.23986,0.35434 0.13421,0.25123 0.0827,0.32924 -0.18731,0.2837 -0.0614,-0.01 -0.0928,0.0926 -0.0699,0.22863 0.0317,0.18866 -0.0375,0.2363 -0.29124,0.20053 -0.29493,-0.0415 -0.32251,-0.006 -0.24211,0.31528 0.0916,0.36557 -0.103544,0.51151 -0.25014,0.18705 -0.0435,-0.0963 -0.0616,-0.049 -0.0402,0.10511 0.0447,0.32188 -1.02249,1.47135 -1.365981,1.47135 -0.11903,0 -0.21642,0.0557 -0.21642,0.12378 0,0.14516 -0.53965,0.33929 -0.83196,0.29929 -0.1114,-0.0153 -0.27445,0.0708 -0.36235,0.19124 -0.13438,0.1841 -0.23064,0.19218 -0.60468,0.0507 -0.34821,-0.13168 -0.50459,-0.13086 -0.71974,0.004 -0.3328,0.20822 -0.37785,0.21115 -0.48847,0.0318 z m 1.74837,-0.47544 c 0,-0.13293 -0.41868,-0.19993 -0.49332,-0.0789 -0.0455,0.0737 0.0469,0.13401 0.20534,0.13401 0.15838,0 0.28798,-0.0248 0.28798,-0.0551 z m -1.57645,-0.30985 c -0.0465,-0.0466 -0.16711,-0.0516 -0.26808,-0.0111 -0.11158,0.0447 -0.0785,0.0779 0.0845,0.0847 0.14745,0.006 0.23006,-0.027 0.18358,-0.0736 z m 3.11502,-1.74529 c 0,-0.0724 -0.0629,-0.13185 -0.13987,-0.13185 -0.0769,0 -0.13987,0.0983 -0.13987,0.21846 0,0.12016 0.0629,0.17949 0.13987,0.13187 0.0769,-0.0476 0.13987,-0.14596 0.13987,-0.21848 z m -5.175181,-0.19365 c 0,-0.034 -0.0629,-0.10077 -0.13987,-0.14839 -0.0769,-0.0476 -0.13987,-0.0198 -0.13987,0.0618 0,0.0816 0.0629,0.1484 0.13987,0.1484 0.0769,0 0.13987,-0.0278 0.13987,-0.0618 z m -1.58289,-1.78614 c -0.0447,-0.11178 -0.0778,-0.0786 -0.0845,0.0847 -0.007,0.14772 0.027,0.23047 0.0735,0.18392 0.0465,-0.0466 0.0514,-0.16743 0.01111,-0.26859 z m 7.597292,0.0263 c 0,-0.0771 -0.0629,-0.14013 -0.13987,-0.14013 -0.0769,0 -0.13986,0.0631 -0.13986,0.14013 0,0.0771 0.0629,0.14013 0.13986,0.14013 0.0769,0 0.13987,-0.0631 0.13987,-0.14013 z m 2.7974,-0.91084 c 0,-0.11561 -0.0592,-0.21018 -0.13162,-0.21018 -0.17637,0 -0.30268,0.21881 -0.19094,0.33077 0.15752,0.1578 0.32256,0.0961 0.32256,-0.12059 z m -9.231412,-0.0701 c 0,-0.0771 -0.0277,-0.14013 -0.0617,-0.14013 -0.034,0 -0.100578,0.0631 -0.14813,0.14013 -0.0476,0.0771 -0.0197,0.14013 0.0617,0.14013 0.0814,0 0.14813,-0.0631 0.14813,-0.14013 z m 0,-0.56051 c 0,-0.0771 -0.0944,-0.14013 -0.20981,-0.14013 -0.11539,0 -0.2098,0.0631 -0.2098,0.14013 0,0.0771 0.0944,0.14013 0.2098,0.14013 0.11539,0 0.20981,-0.0631 0.20981,-0.14013 z"
       id="path455"
       inkscape:connector-curvature="0" />
    <path
       style="opacity:1;fill:#4d4d4d;fill-opacity:1;fill-rule:nonzero;stroke:none;stroke-width:0.25609899;stroke-miterlimit:4;stroke-dasharray:none;stroke-opacity:0"
       d="m 32.567797,267.88587 c -0.0122,-0.1468 -0.0861,-0.21314 -0.1758,-0.15761 -0.103878,0.0643 -0.12428,-5.8e-4 -0.062,-0.19711 0.0511,-0.16114 0.0226,-0.53161 -0.0633,-0.82328 -0.0859,-0.29166 -0.18495,-0.93504 -0.22015,-1.42971 -0.0352,-0.49467 -0.12852,-0.97735 -0.20743,-1.0726 -0.0789,-0.0952 -0.104311,-0.3294 -0.0564,-0.52035 0.0878,-0.35023 -0.35179,-1.53649 -0.634031,-1.71126 -0.20942,-0.12966 -0.16925,-0.49067 0.0546,-0.49067 0.386791,0 0.332721,-0.36613 -0.0812,-0.54969 -0.30687,-0.13607 -0.45697,-0.14331 -0.57249,-0.0275 -0.25176,0.25224 -0.79869,0.19249 -0.80885,-0.0885 -0.007,-0.19449 -0.0341,-0.18255 -0.13082,0.0577 -0.135,0.33541 -0.44973,0.46521 -0.97928,0.40385 -0.19232,-0.0223 -0.55423,0.0827 -0.80424,0.23331 -0.446221,0.26879 -0.638111,0.15762 -0.26435,-0.15315 0.20207,-0.16801 0.14693,-0.85704 -0.0686,-0.85704 -0.069,0 -0.25049,0.0631 -0.4033,0.14012 -0.15282,0.0771 -0.40448,0.2042 -0.55928,0.28251 -0.15478,0.0783 -0.45376,0.10888 -0.66437,0.0679 -0.28614,-0.0556 -0.31492,-0.0447 -0.11384,0.0432 0.22557,0.0987 0.16469,0.15209 -0.37612,0.33046 -0.91189,0.30076 -1.916741,0.15919 -3.042391,-0.42861 -0.48364,-0.25256 -0.57761,-0.26496 -0.64643,-0.0853 -0.0443,0.11563 -0.16919,0.21023 -0.27757,0.21023 -0.32751,0 -1.3116,-0.341 -1.3116,-0.4545 0,-0.0583 -0.0892,-0.106 -0.19815,-0.106 -0.109023,0 -0.226991,-0.0788 -0.262251,-0.17516 -0.051,-0.13932 -0.102778,-0.13861 -0.25292,0.003 -0.15277,0.14456 -0.15546,0.23219 -0.0141,0.45895 0.1603,0.25714 0.14611,0.27308 -0.17173,0.19315 -0.330921,-0.0832 -0.342751,-0.0643 -0.263911,0.42245 0.0639,0.39411 -0.003,0.66719 -0.29552,1.20543 -0.24268,0.4467 -0.34558,0.79835 -0.28738,0.98205 0.0498,0.1574 0.0277,0.36214 -0.0492,0.45499 -0.0769,0.0928 -0.15396,0.64158 -0.17122,1.2194 -0.0336,1.12827 -0.25491,2.4951 -0.42042,2.59758 -0.0559,0.0345 -0.13684,-0.0293 -0.18001,-0.14205 -0.0432,-0.11268 -0.0183,-0.24216 0.0553,-0.2877 0.0735,-0.0456 0.13376,-0.1459 0.13376,-0.22296 0,-0.0771 -0.0629,-0.10111 -0.13987,-0.0534 -0.0769,0.0476 -0.13987,-0.0396 -0.13987,-0.19365 0,-0.15414 -0.0629,-0.31922 -0.13987,-0.36687 -0.0769,-0.0476 -0.13987,-0.38764 -0.13987,-0.75561 0,-0.36795 -0.0472,-0.71629 -0.104855,-0.77407 -0.14565,-0.14586 -0.15782,-3.1646 -0.0127,-3.1646 0.0647,0 0.11766,-0.19763 0.11766,-0.43917 0,-0.6692 0.29955,-1.545 0.50184,-1.46724 0.22338,0.0859 0.33737,-0.2177 0.33737,-0.89851 0,-1.20353 0.73952,-2.19844 2.142611,-2.88254 0.53943,-0.263 1.12772,-0.47819 1.30733,-0.47819 0.1796,0 0.32655,-0.0567 0.32655,-0.12602 0,-0.19996 1.11425,-0.2922 4.227811,-0.35006 2.771881,-0.0515 2.893061,-0.0425 2.762431,0.2019 -0.0752,0.14066 -0.13662,0.41381 -0.13662,0.60702 0,0.19319 -0.0629,0.39022 -0.13987,0.43786 -0.17412,0.10777 -0.18559,0.63057 -0.0138,0.63057 0.0694,0 0.50602,-0.37834 0.97047,-0.84076 0.46445,-0.46242 0.87883,-0.84078 0.92085,-0.84078 0.0421,0 0.037,0.37695 -0.011,0.83764 -0.0732,0.70169 -0.0499,0.85206 0.14379,0.92651 0.12716,0.0489 0.31913,0.0158 0.42661,-0.0736 0.30388,-0.25265 0.640241,0.34393 0.640241,1.13556 0,0.58335 0.0456,0.68393 0.384641,0.84833 0.28975,0.14049 0.37447,0.27201 0.34342,0.53312 -0.0289,0.24314 -0.003,0.29083 0.0855,0.15972 0.102555,-0.15134 0.14284,-0.14469 0.21167,0.035 0.0474,0.1237 0.0134,0.22194 -0.0768,0.22194 -0.089,0 -0.0241,0.12857 0.14426,0.28571 0.24194,0.22581 0.30611,0.44443 0.30611,1.0427 0,0.41633 0.0629,0.79594 0.13987,0.84357 0.19254,0.11922 0.18201,3.05463 -0.0116,3.24864 -0.0834,0.0836 -0.15153,0.45856 -0.15153,0.83349 0,0.37492 -0.0522,0.74485 -0.11584,0.82208 -0.0637,0.0772 -0.14345,0.32958 -0.17719,0.5608 -0.0337,0.23121 -0.0708,0.30631 -0.0823,0.16688 z m -13.938005,-6.82298 c -0.0476,-0.0771 -0.16141,-0.13917 -0.25303,-0.13799 -0.100044,0.001 -0.0828,0.0565 0.0433,0.13799 0.2687,0.17397 0.31712,0.17397 0.20981,0 z m 3.986292,-0.20192 c 0,-0.034 -0.0629,-0.10078 -0.13987,-0.1484 -0.0769,-0.0476 -0.13987,-0.0198 -0.13987,0.0618 0,0.0815 0.0629,0.1484 0.13987,0.1484 0.0769,0 0.13987,-0.0278 0.13987,-0.0618 z m -3.496742,-3.02103 c 0,-0.0771 -0.063,-0.14013 -0.13988,-0.14013 -0.0769,0 -0.13987,0.0631 -0.13987,0.14013 0,0.0771 0.063,0.14013 0.13987,0.14013 0.0769,0 0.13988,-0.0631 0.13988,-0.14013 z"
       id="path457"
       inkscape:connector-curvature="0" />
    <path
       style="opacity:1;fill:#89a02c;fill-opacity:1;fill-rule:nonzero;stroke:none;stroke-width:0.29583478;stroke-miterlimit:4;stroke-dasharray:none;stroke-opacity:0"
       d="m 3.9873083,285.56615 c -0.4009802,-0.45027 -2.0224906,-3.76512 -2.5527407,-5.21855 -1.88510758,-5.16709 -1.91378059,-11.13954 -0.0776,-16.15563 0.1426001,-0.38957 0.2592801,-0.84481 0.2592801,-1.01164 0,-0.40293 2.3922407,-5.04168 2.6872008,-5.21071 0.12678,-0.0726 0.4165501,-0.42733 0.6439402,-0.78823 0.2274,-0.36088 0.6433402,-0.91104 0.9243402,-1.22261 1.4426405,-1.59958 2.4668708,-2.6312 2.6128408,-2.63169 0.0897,-3e-4 0.2468102,-0.13484 0.3491202,-0.29896 0.10234,-0.16413 0.5901102,-0.56713 1.0840103,-0.89556 0.4938798,-0.32844 0.9547998,-0.69812 1.0242298,-0.82153 0.0695,-0.12341 0.48981,-0.4146 0.93412,-0.64708 0.444331,-0.23249 1.389521,-0.7441 2.100441,-1.13693 0.71092,-0.39283 1.69246,-0.79958 2.181221,-0.9039 0.48876,-0.10433 1.07041,-0.28011 1.29257,-0.39065 0.52662,-0.26208 2.950662,-0.81619 4.671572,-1.06788 3.492151,-0.51074 9.033802,0.20686 12.374253,1.60238 1.055601,0.441 3.380351,1.66203 3.554581,1.86697 0.0889,0.10455 0.65888,0.49966 1.266691,0.87803 2.13247,1.32752 4.220321,3.34331 5.903181,5.69944 1.16203,1.62694 2.481372,3.85617 2.682412,4.53238 0.0662,0.22257 0.21277,0.62319 0.32577,0.89028 0.11299,0.26708 0.29757,0.74056 0.41019,1.05216 0.11261,0.3116 0.2929,0.78506 0.40064,1.05215 0.60844,1.50829 0.96882,4.33307 0.96028,7.52698 -0.009,3.17637 -0.33389,5.33804 -1.12079,7.44603 -0.14955,0.40063 -0.31078,0.89231 -0.35829,1.09263 -0.0476,0.2003 -0.15061,0.3642 -0.22912,0.3642 -0.0785,0 -0.14274,0.20232 -0.14274,0.44959 0,0.24727 -0.0993,0.59329 -0.22059,0.7689 -0.12133,0.17559 -0.27518,0.50139 -0.34189,0.72396 -0.0667,0.22256 -0.27645,0.6232 -0.46609,0.89028 -0.18964,0.26709 -0.488002,0.7672 -0.663042,1.11136 -0.17505,0.34416 -0.40268,0.65819 -0.50583,0.69786 -0.103222,0.0397 -0.50526,-0.0697 -0.89353,-0.24293 -0.38827,-0.17327 -1.14221,-0.481 -1.67538,-0.68385 -0.53319,-0.20286 -1.042141,-0.41974 -1.131011,-0.48196 -0.0889,-0.0622 -0.59782,-0.24385 -1.13101,-0.40359 -0.53317,-0.15977 -1.03849,-0.35188 -1.12291,-0.42695 -0.0844,-0.0751 -0.35708,-0.13648 -0.6059,-0.13648 -0.24882,0 -0.452401,-0.0728 -0.452401,-0.16188 0,-0.089 -0.0861,-0.16186 -0.19135,-0.16186 -0.105189,0 -0.48695,-0.13693 -0.84825,-0.30428 -0.36129,-0.16736 -1.31127,-0.50745 -2.11105,-0.75575 -0.799781,-0.24832 -1.568921,-0.54845 -1.709221,-0.66696 -0.1403,-0.11851 -0.34024,-0.21546 -0.44432,-0.21546 -0.1041,0 -0.18925,-0.0825 -0.18925,-0.18335 0,-0.10089 -0.12774,-0.30116 -0.28385,-0.44515 -0.31158,-0.28736 -0.60608,-0.84939 -0.7733,-1.47581 -0.0594,-0.22258 -0.37679,-0.65962 -0.7053,-0.97122 -0.32851,-0.31161 -0.715941,-0.73984 -0.860981,-0.95165 -0.24795,-0.36209 -0.24321,-0.41288 0.0795,-0.85017 0.25335,-0.3433 0.38025,-0.412 0.484721,-0.26238 0.0893,0.12793 0.103755,0.0683 0.0392,-0.16163 -0.0649,-0.23094 0.008,-0.52725 0.19925,-0.80935 0.43553,-0.64275 0.68808,-1.28687 0.70109,-1.78808 0.01,-0.39486 0.0257,-0.40596 0.15899,-0.11379 0.0948,0.20785 0.11689,-0.24485 0.0618,-1.2647 -0.0904,-1.6725 0.011,-2.44113 0.26778,-2.03456 0.11371,0.17987 0.14192,0.17084 0.14391,-0.0461 10e-4,-0.14839 0.057,-0.29407 0.12365,-0.32375 0.0666,-0.0297 0.24841,-0.28372 0.40393,-0.56455 0.30452,-0.54988 0.38906,-1.43584 0.12118,-1.26998 -0.0889,0.055 -0.16157,-0.0455 -0.16157,-0.2237 0,-0.17807 -0.0763,-0.37095 -0.16942,-0.42864 -0.11478,-0.0711 -0.105078,-0.18254 0.03,-0.34564 0.27425,-0.33107 0.28125,-5.31854 0.008,-5.59245 -0.105411,-0.10556 -0.19158,-0.35726 -0.19158,-0.55931 0,-0.37345 -0.4945,-1.38251 -0.90505,-1.84681 -0.12427,-0.14055 -0.22596,-0.44583 -0.22596,-0.6784 0,-0.23256 -0.0786,-0.47151 -0.17466,-0.53098 -0.0961,-0.0596 -0.1353,-0.30052 -0.0872,-0.53564 0.0481,-0.23511 0.048,-0.33643 -2.9e-4,-0.22515 -0.0483,0.11129 -0.15878,0.20234 -0.24548,0.20234 -0.0867,0 -0.11271,-0.0728 -0.0577,-0.16186 0.0898,-0.14559 -0.122261,-0.232 -0.444321,-0.18105 -0.0666,0.01 -0.12118,-0.38375 -0.12118,-0.87619 0,-0.6562 -0.0663,-0.92088 -0.24838,-0.99086 -0.25067,-0.0964 -0.88267,0.35325 -0.88267,0.62791 0,0.16266 -0.40644,0.61083 -0.55396,0.61083 -0.0508,0 -0.0924,-0.18211 -0.0924,-0.40467 0,-0.22258 0.0727,-0.40469 0.16157,-0.40469 0.0889,0 0.16157,-0.0546 0.16158,-0.1214 10e-6,-0.22042 -6.645492,-0.11543 -7.351522,0.11615 -0.97032,0.31826 -2.187362,0.80262 -2.908292,1.1574 -0.40045,0.19708 -1.21179,1.31591 -1.21179,1.67107 0,0.14436 -0.0942,0.29871 -0.20937,0.34298 -0.13469,0.0518 -0.18608,0.28032 -0.14409,0.64076 0.0471,0.40438 -0.005,0.58759 -0.19016,0.65846 -0.14049,0.054 -0.30326,0.36434 -0.36169,0.6896 -0.0584,0.32526 -0.18147,0.68616 -0.2734,0.80201 -0.0958,0.1207 -0.16816,1.12269 -0.16952,2.34711 -0.002,1.98198 0.12816,2.85171 0.55517,3.70448 0.109456,0.21858 0.0494,0.28311 -0.3012,0.32373 -0.50695,0.0587 -0.69892,0.58586 -0.2957,0.81192 0.14243,0.0799 0.25896,0.27946 0.25896,0.44357 0,0.16411 0.11408,0.34224 0.2535,0.39583 0.15939,0.0613 0.21839,0.20826 0.15894,0.39593 -0.052,0.16415 0.0206,0.57452 0.16129,0.9119 0.14071,0.33741 0.23913,0.87724 0.21872,1.19964 -0.0204,0.32241 0.0153,0.91398 0.0794,1.3146 0.11552,0.72185 0.71254,2.13536 0.94578,2.23921 0.0666,0.0297 0.12117,0.15125 0.12117,0.27015 0,0.25704 0.52267,1.21117 0.66428,1.21263 0.0543,5.9e-4 0.064,0.18313 0.0216,0.40571 -0.0425,0.22257 -0.14738,0.40468 -0.23315,0.40468 -0.28183,0 -1.66567,1.58478 -1.6124,1.84656 0.12638,0.62121 -1.24563,2.03463 -2.362351,2.43367 -0.41777,0.14927 -0.88583,0.3399 -1.04014,0.42363 -0.15431,0.0837 -0.42696,0.15224 -0.60589,0.15224 -0.17894,0 -0.32534,0.0584 -0.32534,0.12977 0,0.0714 -0.47614,0.26618 -1.058101,0.43291 -0.58196,0.16674 -1.09519,0.36329 -1.14053,0.43678 -0.0454,0.0736 -0.22455,0.13363 -0.39824,0.13363 -0.1737,0 -0.44205,0.0667 -0.59636,0.14827 -0.3481899,0.184 -1.2299901,0.54751 -1.9770604,0.81502 -0.3110201,0.11136 -0.7290902,0.26797 -0.9290402,0.34801 -0.9462403,0.37882 -1.1971705,0.47982 -1.5349305,0.61781 -1.0746803,0.43907 -1.3831404,0.47746 -1.6278905,0.20262 z m 14.3812437,-9.12251 c -0.0516,-0.12913 -0.0898,-0.0908 -0.0976,0.0978 -0.007,0.17063 0.0312,0.26624 0.0848,0.21244 0.0537,-0.0538 0.0594,-0.1934 0.0127,-0.31024 z m -0.80786,-2.58993 c -0.0516,-0.12912 -0.0899,-0.0908 -0.0976,0.0978 -0.007,0.17064 0.0311,0.26625 0.0848,0.21246 0.0537,-0.0538 0.0594,-0.19341 0.0127,-0.31026 z m 19.439816,0.19222 c 0,-0.089 -0.0684,-0.16186 -0.15204,-0.16186 -0.0836,0 -0.19696,0.0728 -0.25189,0.16186 -0.0549,0.089 0.0135,0.16189 0.15204,0.16189 0.13854,0 0.25189,-0.0728 0.25189,-0.16189 z m -20.132966,-0.74164 c 0.16039,-0.41876 0.11417,-0.90612 -0.0748,-0.78912 -0.21391,0.13246 -0.46088,0.75907 -0.3641,0.92375 0.11911,0.20266 0.33511,0.1364 0.43893,-0.13463 z"
       id="path459"
       inkscape:connector-curvature="0" />
    <path
       style="opacity:1;fill:#ffdecc;fill-opacity:1;fill-rule:nonzero;stroke:none;stroke-width:0.26605788;stroke-miterlimit:4;stroke-dasharray:none;stroke-opacity:0"
       d="m 19.751655,273.70484 c -0.261894,-0.26189 -0.519891,-0.76175 -0.998917,-1.93535 -0.09132,-0.22375 -0.166047,-0.62735 -0.166047,-0.89689 0,-0.26955 -0.07832,-0.51619 -0.174054,-0.5481 -0.221075,-0.0737 -0.204324,-3.73006 0.02049,-4.47395 0.08445,-0.27945 0.153554,-0.94643 0.153554,-1.4822 0,-0.53576 0.06546,-1.01456 0.145445,-1.06399 0.08,-0.0494 0.145447,-0.22318 0.145447,-0.3861 0,-0.16291 0.143916,-0.49831 0.319817,-0.74534 0.217558,-0.30553 0.264062,-0.46772 0.145445,-0.50726 -0.284443,-0.0948 -0.198274,-0.47021 0.107933,-0.47021 0.155269,0 0.322307,-0.0647 0.371195,-0.14382 0.0545,-0.0882 0.226704,-0.0535 0.445079,0.0896 0.201355,0.13193 0.877718,0.28211 1.555947,0.34551 0.659869,0.0617 1.527008,0.20715 1.926981,0.32328 0.88796,0.25783 1.012867,0.22683 3.235928,-0.80285 0.179867,-0.0833 0.370763,-0.10777 0.424212,-0.0543 0.05346,0.0534 0.02081,0.0972 -0.0725,0.0972 -0.09333,0 -0.169687,0.15818 -0.169687,0.35148 0,0.19332 -0.07722,0.37723 -0.171611,0.40869 -0.09447,0.0315 -0.129911,0.16588 -0.07884,0.29894 0.08557,0.22296 0.135581,0.22094 0.644308,-0.0261 0.817985,-0.3972 1.525652,-0.59669 2.116815,-0.59669 0.289581,0 0.566959,-0.0654 0.616398,-0.14544 0.04944,-0.08 0.230017,-0.14544 0.401284,-0.14544 0.242197,0 0.272609,0.0388 0.13686,0.17453 -0.258218,0.25822 -0.212436,0.61874 0.116358,0.91629 0.159988,0.14478 0.290889,0.40363 0.290889,0.57521 0,0.17159 0.06053,0.37416 0.134515,0.45015 0.07398,0.076 0.164147,0.62904 0.200368,1.22898 0.03622,0.59995 0.148655,1.64712 0.249849,2.32706 0.213023,1.4313 0.213414,1.50677 0.01434,2.7634 -0.234262,1.47888 -0.331806,1.88816 -0.470412,1.97382 -0.07078,0.0438 -0.128676,0.23929 -0.128676,0.43455 0,0.20811 -0.08464,0.35501 -0.204552,0.35501 -0.129014,0 -0.177988,0.10156 -0.132624,0.27504 0.07969,0.30471 -0.470371,1.03394 -0.779888,1.03394 -0.105567,0 -0.191938,0.0654 -0.191938,0.14544 0,0.08 -0.169081,0.14545 -0.375732,0.14545 -0.455639,0 -0.405768,-0.34157 0.05987,-0.41008 0.352925,-0.0519 0.43965,-0.46258 0.09769,-0.46258 -0.119991,0 -0.361339,0.14318 -0.536328,0.31816 -0.20477,0.20476 -0.338679,0.2566 -0.375732,0.14544 -0.03167,-0.095 -0.154969,-0.17272 -0.274009,-0.17272 -0.119039,0 -0.30263,-0.0818 -0.407981,-0.18179 -0.722215,-0.68548 -0.725588,-0.68628 -3.081034,-0.73066 -1.502778,-0.0283 -2.330121,0.0111 -2.436331,0.11568 -0.08846,0.0872 -0.27536,0.20194 -0.415348,0.25494 -0.139991,0.053 -0.25453,0.20424 -0.25453,0.33607 0,0.16809 -0.0869,0.21697 -0.290889,0.16363 -0.189059,-0.0494 -0.290891,-0.004 -0.290891,0.12848 0,0.28948 -0.241838,0.25359 -0.581778,-0.0863 -0.282381,-0.28237 -0.727224,-0.39692 -0.727224,-0.18726 0,0.057 0.17999,0.25099 0.399973,0.43109 l 0.399973,0.32748 -0.399973,0.006 c -0.219983,0.003 -0.53024,-0.12504 -0.689458,-0.28425 z m 1.216874,-0.7958 c -0.08962,-0.23356 -0.606857,-0.44726 -0.745928,-0.3082 -0.106133,0.10611 0.402303,0.50973 0.650281,0.5162 0.09748,0.002 0.140524,-0.0911 0.09565,-0.208 z m 8.090182,-0.53713 c 0,-0.21194 -0.279355,-0.13443 -0.572687,0.1589 -0.188963,0.18896 -0.224899,0.30249 -0.109089,0.34462 0.184979,0.0673 0.681772,-0.2996 0.681772,-0.50352 z m -9.163016,0.23213 c 0,-0.12471 -0.06545,-0.1863 -0.145445,-0.13686 -0.08,0.0494 -0.145444,0.15147 -0.145444,0.22675 0,0.0752 0.06544,0.13685 0.145444,0.13685 0.08,0 0.145445,-0.102 0.145445,-0.22674 z m 9.966889,0.0877 c -0.04728,-0.0764 -0.182043,-0.10222 -0.299474,-0.0571 -0.300649,0.11538 -0.265221,0.19625 0.08597,0.19625 0.164709,0 0.260788,-0.0626 0.213507,-0.13908 z m -1.96743,-0.28711 c 0,-0.0745 0.147264,-0.16378 0.327251,-0.19854 0.179987,-0.0348 0.05627,-0.0616 -0.274935,-0.0596 -0.482423,0.003 -0.569201,0.0412 -0.436333,0.193 0.195912,0.22374 0.384017,0.25566 0.384017,0.0651 z m -8.329739,-0.24343 c -0.04833,-0.0483 -0.173776,-0.0535 -0.278768,-0.0114 -0.116029,0.0464 -0.08157,0.0809 0.08787,0.0879 0.153323,0.007 0.239227,-0.0281 0.190896,-0.0764 z m 4.217896,0 c -0.04833,-0.0483 -0.173775,-0.0535 -0.278767,-0.0114 -0.116026,0.0464 -0.08157,0.0809 0.08787,0.0879 0.153322,0.007 0.239227,-0.0281 0.190897,-0.0764 z m 6.379436,-0.58468 c -0.135442,-0.35294 -0.344528,-0.0968 -0.26416,0.32362 0.06286,0.32876 0.09374,0.34929 0.210835,0.14007 0.07546,-0.13483 0.09946,-0.34348 0.05332,-0.46369 z m 0.573227,-0.62178 c -0.147588,-0.465 -0.326524,-0.36443 -0.252228,0.14176 0.04263,0.29048 0.115355,0.39759 0.207424,0.30553 0.07798,-0.078 0.09813,-0.27926 0.0448,-0.44729 z m -1.290047,-0.19647 c -0.04035,-0.1 -0.07336,-0.0182 -0.07336,0.18181 0,0.19999 0.03301,0.2818 0.07336,0.1818 0.04034,-0.1 0.04034,-0.26361 0,-0.36361 z"
       id="path22"
       inkscape:connector-curvature="0" />
  </g>
</svg>
